<svg width="7316" height="3512" xmlns="http://www.w3.org/2000/svg" xmlns:xlink="http://www.w3.org/1999/xlink" xml:space="preserve" overflow="hidden"><g transform="translate(1119 100)"><rect x="-1112" y="-93.0002" width="7302" height="3498" stroke="#192D54" stroke-width="13.75" stroke-miterlimit="8" fill="none"/><path d="M-573.5 748.503C-573.5 671.181-510.818 608.5-433.497 608.5L126.497 608.5C203.818 608.5 266.5 671.181 266.5 748.503L266.5 1728.5C266.5 1805.82 203.818 1868.5 126.497 1868.5L-433.497 1868.5C-510.818 1868.5-573.5 1805.82-573.5 1728.5Z" stroke="#2E54A1" stroke-width="20.625" stroke-miterlimit="8" fill="#DAE3F5" fill-rule="evenodd"/><path d="M4192.5 1447C4192.5 1400.33 4230.33 1362.5 4277 1362.5L5434 1362.5C5480.67 1362.5 5518.5 1400.33 5518.5 1447L5518.5 1785C5518.5 1831.67 5480.67 1869.5 5434 1869.5L4277 1869.5C4230.33 1869.5 4192.5 1831.67 4192.5 1785Z" stroke="#2E54A1" stroke-width="20.625" stroke-miterlimit="8" fill="#DAE3F5" fill-rule="evenodd"/><path d="M4192.5 701.169C4192.5 654.407 4230.41 616.5 4277.17 616.5L5433.83 616.5C5480.59 616.5 5518.5 654.407 5518.5 701.169L5518.5 1039.83C5518.5 1086.59 5480.59 1124.5 5433.83 1124.5L4277.17 1124.5C4230.41 1124.5 4192.5 1086.59 4192.5 1039.83Z" stroke="#2E54A1" stroke-width="20.625" stroke-miterlimit="8" fill="#DAE3F5" fill-rule="evenodd"/><text font-family="Microsoft YaHei,Microsoft YaHei_MSFontService,sans-serif" font-weight="700" font-size="165" transform="matrix(1 0 0 1 -459.85 1097)">Center</text><text font-family="Microsoft YaHei,Microsoft YaHei_MSFontService,sans-serif" font-weight="700" font-size="165" transform="matrix(1 0 0 1 79.0815 1097)">-</text><text font-family="Microsoft YaHei,Microsoft YaHei_MSFontService,sans-serif" font-weight="700" font-size="165" transform="matrix(1 0 0 1 -373.431 1295)">Align </text><text font-family="Microsoft YaHei,Microsoft YaHei_MSFontService,sans-serif" font-weight="700" font-size="165" transform="matrix(1 0 0 1 -473.966 1493)">Module</text><path d="M1261.5 811.338C1261.5 693.239 1357.24 597.5 1475.34 597.5L2591.66 597.5C2709.76 597.5 2805.5 693.239 2805.5 811.338L2805.5 1666.67C2805.5 1784.76 2709.76 1880.5 2591.66 1880.5L1475.34 1880.5C1357.24 1880.5 1261.5 1784.76 1261.5 1666.67Z" stroke="#588E31" stroke-width="20.625" stroke-miterlimit="8" fill="#E3F2D9" fill-rule="evenodd"/><path d="M1986.5 938.169C1986.5 877.6 2035.6 828.5 2096.17 828.5L2534.83 828.5C2595.4 828.5 2644.5 877.6 2644.5 938.169L2644.5 1538.83C2644.5 1599.4 2595.4 1648.5 2534.83 1648.5L2096.17 1648.5C2035.6 1648.5 1986.5 1599.4 1986.5 1538.83Z" stroke="#588E31" stroke-width="20.625" stroke-miterlimit="8" fill="#ACD78E" fill-rule="evenodd"/><path d="M1477.5 886.334C1477.5 854.393 1503.39 828.5 1535.33 828.5L1766.67 828.5C1798.61 828.5 1824.5 854.393 1824.5 886.334L1824.5 1590.67C1824.5 1622.61 1798.61 1648.5 1766.67 1648.5L1535.33 1648.5C1503.39 1648.5 1477.5 1622.61 1477.5 1590.67Z" stroke="#588E31" stroke-width="20.625" stroke-miterlimit="8" fill="#ACD78E" fill-rule="evenodd"/><path d="M1167.5 659.173C1167.5 499.191 1297.19 369.5 1457.17 369.5L2649.83 369.5C2809.81 369.5 2939.5 499.191 2939.5 659.173L2939.5 1817.83C2939.5 1977.81 2809.81 2107.5 2649.83 2107.5L1457.17 2107.5C1297.19 2107.5 1167.5 1977.81 1167.5 1817.83Z" stroke="#E54C5E" stroke-width="20.625" stroke-miterlimit="8" stroke-dasharray="82.5 61.875" fill="none" fill-rule="evenodd"/><path d="M4.6015e-05-10.3125 110.198-10.312 110.198 10.313-4.6015e-05 10.3125ZM99.8854-30.9371 161.76 0.000721785 99.8851 30.9379Z" fill="#C00000" transform="matrix(1 0 0 -1 1824.5 1238.5)"/><text font-family="Microsoft YaHei,Microsoft YaHei_MSFontService,sans-serif" font-weight="700" font-size="165" transform="matrix(6.12323e-17 -1 1 6.12323e-17 1707.79 1463)">Convs</text><text font-family="Microsoft YaHei,Microsoft YaHei_MSFontService,sans-serif" font-weight="700" font-size="165" transform="matrix(1 0 0 1 2151.37 1296)">SRB</text><text font-family="Microsoft YaHei,Microsoft YaHei_MSFontService,sans-serif" font-weight="700" font-size="165" transform="matrix(1 0 0 1 2422.05 1803)">×</text><text font-family="Calibri,Calibri_MSFontService,sans-serif" font-weight="700" font-size="165" transform="matrix(1 0 0 1 2547.52 1803)">N</text><path d="M0.126233-13.7494 101.625-12.8176 101.372 14.6813-0.126233 13.7494ZM88.1278-40.4426 170.246 1.56302 87.3704 42.0539Z" transform="matrix(1 0 0 -1 266 1238.56)"/><path d="M0-13.75 275.397-13.75 275.397 368.378 261.647 354.628 454.543 354.628 454.543 382.128 247.897 382.128 247.897 0 261.647 13.75 0 13.75ZM440.793 327.128 523.293 368.378 440.793 409.628Z" fill="#0D0D0D" transform="matrix(1 0 0 -1 3669 1238.38)"/><path d="M3669 1224.25 3944.4 1224.25 3944.4 1615.15 3930.65 1601.4 4123.54 1601.4 4123.54 1628.9 3916.9 1628.9 3916.9 1238 3930.65 1251.75 3669 1251.75ZM4109.79 1573.9 4192.29 1615.15 4109.79 1656.4Z" fill="#0D0D0D"/><path d="M436.5 595.5 966.5 894.382 966.5 1579.62 436.5 1878.5Z" stroke="#B58B02" stroke-width="20.625" stroke-miterlimit="8" fill="#FFF2CA" fill-rule="evenodd"/><text font-family="Microsoft YaHei,Microsoft YaHei_MSFontService,sans-serif" font-weight="700" font-size="165" transform="matrix(6.12323e-17 -1 1 6.12323e-17 755.004 1572)">Encoder</text><path d="M966.073 1223.25 1192.36 1224.45 1192.21 1251.95 965.927 1250.75ZM1178.75 1196.87 1261.03 1238.56 1178.32 1279.37Z" fill="#C00000"/><path d="M2805 1224.25 3080.37 1224.25 3080.37 1251.75 2805 1251.75ZM3066.62 1196.75 3149.12 1238 3066.62 1279.25Z" fill="#C00000"/><path d="M-713.5 658.172C-713.5 498.191-583.81 368.5-423.828 368.5L767.828 368.5C927.809 368.5 1057.5 498.191 1057.5 658.172L1057.5 1816.83C1057.5 1976.81 927.809 2106.5 767.828 2106.5L-423.828 2106.5C-583.81 2106.5-713.5 1976.81-713.5 1816.83Z" stroke="#7F7F7F" stroke-width="20.625" stroke-miterlimit="8" stroke-dasharray="82.5 61.875" fill="none" fill-rule="evenodd"/><path d="M3023.5 658.172C3023.5 498.191 3153.19 368.5 3313.17 368.5L5348.83 368.5C5508.81 368.5 5638.5 498.191 5638.5 658.172L5638.5 1816.83C5638.5 1976.81 5508.81 2106.5 5348.83 2106.5L3313.17 2106.5C3153.19 2106.5 3023.5 1976.81 3023.5 1816.83Z" stroke="#7F7F7F" stroke-width="20.625" stroke-miterlimit="8" stroke-dasharray="82.5 61.875" fill="none" fill-rule="evenodd"/><text font-family="Microsoft YaHei,Microsoft YaHei_MSFontService,sans-serif" font-weight="700" font-size="165" transform="matrix(1 0 0 1 4396.58 928)">Recognizer</text><text font-family="Microsoft YaHei,Microsoft YaHei_MSFontService,sans-serif" font-weight="700" font-size="165" transform="matrix(1 0 0 1 4352.75 1674)">SR Decoder</text><text fill="#91ACE0" font-family="Segoe UI Symbol,Segoe UI Symbol_MSFontService,sans-serif" font-weight="700" font-size="248" transform="matrix(1 0 0 1 5266.43 1087)">❄</text><text fill="#91ACE0" font-family="Segoe UI Symbol,Segoe UI Symbol_MSFontService,sans-serif" font-weight="700" font-size="248" transform="matrix(1 0 0 1 5266.43 1821)">❄</text><path d="M699 1748.75 692.387 1748.75 706.137 1735 706.137 2302.83 692.387 2289.08 3409.38 2289.08 3395.63 2302.83 3395.63 1937.08 3423.13 1937.08 3423.13 2316.58 678.637 2316.58 678.637 1721.25 699 1721.25ZM3368.13 1950.83 3409.38 1868.33 3450.63 1950.83Z"/><path d="M-995.5 2649C-995.5 2637.68-986.322 2628.5-975 2628.5L-712 2628.5C-700.678 2628.5-691.5 2637.68-691.5 2649L-691.5 2731C-691.5 2742.32-700.678 2751.5-712 2751.5L-975 2751.5C-986.322 2751.5-995.5 2742.32-995.5 2731Z" stroke="#7F7F7F" stroke-width="20.625" stroke-miterlimit="8" stroke-dasharray="82.5 61.875" fill="none" fill-rule="evenodd"/><path d="M-999.5 3113C-999.5 3101.68-990.322 3092.5-979 3092.5L-716 3092.5C-704.678 3092.5-695.5 3101.68-695.5 3113L-695.5 3195C-695.5 3206.32-704.678 3215.5-716 3215.5L-979 3215.5C-990.322 3215.5-999.5 3206.32-999.5 3195Z" stroke="#E54C5E" stroke-width="20.625" stroke-miterlimit="8" stroke-dasharray="82.5 61.875" fill="none" fill-rule="evenodd"/><path d="M1092 2677.25 1273.72 2677.25 1273.72 2704.75 1092 2704.75ZM1259.97 2649.75 1342.47 2691 1259.97 2732.25Z"/><path d="M1079 3140.25 1260.72 3140.25 1260.72 3167.75 1079 3167.75ZM1246.97 3112.75 1329.47 3154 1246.97 3195.25Z" fill="#C00000"/><text fill="#91ACE0" font-family="Segoe UI Symbol,Segoe UI Symbol_MSFontService,sans-serif" font-weight="700" font-size="248" transform="matrix(1 0 0 1 3108.99 2787)">❄</text><text font-family="SimSun,SimSun_MSFontService,sans-serif" font-weight="700" font-size="110" transform="matrix(1 0 0 1 -566.936 2669)">模型解码器和编码器，在模型</text><text font-family="SimSun,SimSun_MSFontService,sans-serif" font-weight="700" font-size="110" transform="matrix(1 0 0 1 -566.936 2801)">各个阶段都处于激活</text><text font-family="SimSun,SimSun_MSFontService,sans-serif" font-weight="700" font-size="110" transform="matrix(1 0 0 1 -566.936 3117)">模型特征增强部分，只在特征</text><text font-family="SimSun,SimSun_MSFontService,sans-serif" font-weight="700" font-size="110" transform="matrix(1 0 0 1 -566.936 3249)">增强阶段</text><text font-family="SimSun,SimSun_MSFontService,sans-serif" font-weight="700" font-size="110" transform="matrix(1 0 0 1 -124.645 3249)">和推理时激活</text><text font-family="SimSun,SimSun_MSFontService,sans-serif" font-weight="700" font-size="110" transform="matrix(1 0 0 1 1443.05 2736)">各个阶段的特征传递路径</text><text font-family="SimSun,SimSun_MSFontService,sans-serif" font-weight="700" font-size="110" transform="matrix(1 0 0 1 1443.05 3133)">特征</text><text font-family="SimSun,SimSun_MSFontService,sans-serif" font-weight="700" font-size="110" transform="matrix(1 0 0 1 1664.19 3133)">增强阶段</text><text font-family="SimSun,SimSun_MSFontService,sans-serif" font-weight="700" font-size="110" transform="matrix(1 0 0 1 2106.48 3133)">和推理阶段的特</text><text font-family="SimSun,SimSun_MSFontService,sans-serif" font-weight="700" font-size="110" transform="matrix(1 0 0 1 1443.05 3265)">征传递路径</text><text font-family="SimSun,SimSun_MSFontService,sans-serif" font-weight="700" font-size="110" transform="matrix(1 0 0 1 3453.03 2744)">特征</text><text font-family="SimSun,SimSun_MSFontService,sans-serif" font-weight="700" font-size="110" transform="matrix(1 0 0 1 3674.18 2744)">增强阶段</text><text font-family="SimSun,SimSun_MSFontService,sans-serif" font-weight="700" font-size="110" transform="matrix(1 0 0 1 4116.47 2744)">该模块处于冻结或微调状态</text><path d="M3149.5 695.161C3149.5 647.299 3188.3 608.5 3236.16 608.5L3582.79 608.5C3630.66 608.5 3669.46 647.299 3669.46 695.161L3669.46 1781.84C3669.46 1829.7 3630.66 1868.5 3582.79 1868.5L3236.16 1868.5C3188.3 1868.5 3149.5 1829.7 3149.5 1781.84Z" stroke="#2E54A1" stroke-width="20.625" stroke-miterlimit="8" fill="#DAE3F5" fill-rule="evenodd"/><text font-family="Microsoft YaHei,Microsoft YaHei_MSFontService,sans-serif" font-weight="700" font-size="147" transform="matrix(6.12323e-17 -1 1 6.12323e-17 3350.03 1425)">Post</text><text font-family="Microsoft YaHei,Microsoft YaHei_MSFontService,sans-serif" font-weight="700" font-size="147" transform="matrix(6.12323e-17 -1 1 6.12323e-17 3350.03 1112)">-</text><text font-family="Microsoft YaHei,Microsoft YaHei_MSFontService,sans-serif" font-weight="700" font-size="147" transform="matrix(6.12323e-17 -1 1 6.12323e-17 3526.03 1635)">Processing</text><text font-family="Microsoft YaHei,Microsoft YaHei_MSFontService,sans-serif" font-weight="700" font-size="110" transform="matrix(1 0 0 1 1393.55 2246)">Long residual connection</text></g></svg>