<svg width="2130" height="1034" xmlns="http://www.w3.org/2000/svg" xmlns:xlink="http://www.w3.org/1999/xlink" overflow="hidden"><g transform="translate(326 30)"><rect x="-323" y="-27" width="2124" height="1017" stroke="#192D54" stroke-width="4" stroke-miterlimit="8" fill="none"/><path d="M-167 217.667C-167 195.207-148.793 177-126.333 177L36.3325 177C58.7926 177 77 195.207 77 217.667L77 502.333C77 524.793 58.7926 543 36.3325 543L-126.333 543C-148.793 543-167 524.793-167 502.333Z" stroke="#2E54A1" stroke-width="6" stroke-miterlimit="8" fill="#DAE3F5" fill-rule="evenodd"/><path d="M1219 420.667C1219 407.044 1230.04 396 1243.67 396L1580.33 396C1593.96 396 1605 407.044 1605 420.667L1605 519.333C1605 532.956 1593.96 544 1580.33 544L1243.67 544C1230.04 544 1219 532.956 1219 519.333Z" stroke="#2E54A1" stroke-width="6" stroke-miterlimit="8" fill="#DAE3F5" fill-rule="evenodd"/><path d="M1219 203.667C1219 190.044 1230.04 179 1243.67 179L1580.33 179C1593.96 179 1605 190.044 1605 203.667L1605 302.333C1605 315.956 1593.96 327 1580.33 327L1243.67 327C1230.04 327 1219 315.956 1219 302.333Z" stroke="#2E54A1" stroke-width="6" stroke-miterlimit="8" fill="#DAE3F5" fill-rule="evenodd"/><text font-family="Microsoft YaHei,Microsoft YaHei_MSFontService,sans-serif" font-weight="700" font-size="48" transform="translate(-133.774 319)">Center</text><text font-family="Microsoft YaHei,Microsoft YaHei_MSFontService,sans-serif" font-weight="700" font-size="48" transform="translate(23.0055 319)">-</text><text font-family="Microsoft YaHei,Microsoft YaHei_MSFontService,sans-serif" font-weight="700" font-size="48" transform="translate(-108.634 377)">Align</text><text font-family="Microsoft YaHei,Microsoft YaHei_MSFontService,sans-serif" font-weight="700" font-size="48" transform="translate(-137.881 434)">Module</text><path d="M367 236.168C367 201.834 394.834 174 429.168 174L753.832 174C788.166 174 816 201.834 816 236.168L816 484.832C816 519.166 788.166 547 753.832 547L429.168 547C394.834 547 367 519.166 367 484.832Z" stroke="#588E31" stroke-width="6" stroke-miterlimit="8" fill="#E3F2D9" fill-rule="evenodd"/><path d="M578 272.834C578 255.253 592.253 241 609.834 241L737.166 241C754.747 241 769 255.253 769 272.834L769 448.166C769 465.747 754.747 480 737.166 480L609.834 480C592.253 480 578 465.747 578 448.166Z" stroke="#588E31" stroke-width="6" stroke-miterlimit="8" fill="#ACD78E" fill-rule="evenodd"/><path d="M430 257.834C430 248.537 437.537 241 446.834 241L514.166 241C523.463 241 531 248.537 531 257.834L531 463.166C531 472.463 523.463 480 514.166 480L446.834 480C437.537 480 430 472.463 430 463.166Z" stroke="#588E31" stroke-width="6" stroke-miterlimit="8" fill="#ACD78E" fill-rule="evenodd"/><path d="M340 191.335C340 144.758 377.758 107 424.335 107L770.665 107C817.242 107 855 144.758 855 191.335L855 528.665C855 575.242 817.242 613 770.665 613L424.335 613C377.758 613 340 575.242 340 528.665Z" stroke="#E54C5E" stroke-width="6" stroke-miterlimit="8" stroke-dasharray="24 18" fill="none" fill-rule="evenodd"/><path d="M1.33862e-05-3 32.0575-2.99986 32.0575 3.00014-1.33862e-05 3ZM29.0576-8.99987 47.0575 0.000209974 29.0575 9.00013Z" fill="#C00000" transform="matrix(1 0 0 -1 531 360)"/><text font-family="Microsoft YaHei,Microsoft YaHei_MSFontService,sans-serif" font-weight="700" font-size="48" transform="matrix(6.12323e-17 -1 1 6.12323e-17 496.558 426)">Convs</text><text font-family="Microsoft YaHei,Microsoft YaHei_MSFontService,sans-serif" font-weight="700" font-size="48" transform="translate(625.853 377)">SRB</text><text font-family="Microsoft YaHei,Microsoft YaHei_MSFontService,sans-serif" font-weight="700" font-size="48" transform="translate(704.598 525)">×</text><text font-family="Calibri,Calibri_MSFontService,sans-serif" font-weight="700" font-size="48" transform="translate(741.098 525)">N</text><path d="M0.0367225-3.99983 29.5635-3.72875 29.4901 4.27092-0.0367225 3.99983ZM25.6372-11.7651 49.526 0.454698 25.4168 12.2339Z" transform="matrix(1 0 0 -1 77 360.455)"/><path d="M0-4 79.817-4 79.817 106.71 75.817 102.71 131.634 102.71 131.634 110.71 71.817 110.71 71.817 0 75.817 4 0 4ZM127.634 94.7097 151.634 106.71 127.634 118.71Z" fill="#0D0D0D" transform="matrix(1 0 0 -1 1068 359.71)"/><path d="M1068 356 1147.82 356 1147.82 470.17 1143.82 466.17 1199.63 466.17 1199.63 474.17 1139.82 474.17 1139.82 360 1143.82 364 1068 364ZM1195.63 458.17 1219.63 470.17 1195.63 482.17Z" fill="#0D0D0D"/><path d="M127 173 281 259.845 281 459.155 127 546Z" stroke="#B58B02" stroke-width="6" stroke-miterlimit="8" fill="#FFF2CA" fill-rule="evenodd"/><text font-family="Microsoft YaHei,Microsoft YaHei_MSFontService,sans-serif" font-weight="700" font-size="48" transform="matrix(6.12323e-17 -1 1 6.12323e-17 219.384 457)">Encoder</text><path d="M1068 546 914 459.155 914 259.845 1068 173Z" stroke="#B58B02" stroke-width="6" stroke-miterlimit="8" fill="#FFF2CA" fill-rule="evenodd"/><path d="M281.021 356 346.85 356.348 346.807 364.348 280.979 364ZM342.892 348.327 366.828 360.454 342.765 372.327Z" fill="#C00000"/><path d="M0.0186081-3.99996 77.6016-3.63903 77.5644 4.36088-0.0186081 3.99996ZM73.6389-11.6576 97.5828 0.453963 73.5272 12.3422Z" fill="#C00000" transform="matrix(1 0 0 -1 816 360.454)"/><path d="M-208 191.333C-208 144.757-170.243 107-123.667 107L223.667 107C270.243 107 308 144.757 308 191.333L308 528.657C308 575.233 270.243 612.99 223.667 612.99L-123.667 612.99C-170.243 612.99-208 575.233-208 528.657Z" stroke="#7F7F7F" stroke-width="6" stroke-miterlimit="8" stroke-dasharray="24 18" fill="none" fill-rule="evenodd"/><path d="M879 191.335C879 144.758 916.758 107 963.335 107L1555.67 107C1602.24 107 1640 144.758 1640 191.335L1640 528.665C1640 575.242 1602.24 613 1555.67 613L963.335 613C916.758 613 879 575.242 879 528.665Z" stroke="#7F7F7F" stroke-width="6" stroke-miterlimit="8" stroke-dasharray="24 18" fill="none" fill-rule="evenodd"/><text font-family="Microsoft YaHei,Microsoft YaHei_MSFontService,sans-serif" font-weight="700" font-size="48" transform="matrix(6.12323e-17 -1 1 6.12323e-17 1006.3 435)">Resize</text><text font-family="Microsoft YaHei,Microsoft YaHei_MSFontService,sans-serif" font-weight="700" font-size="48" transform="translate(1279.01 270)">Recognizer</text><text font-family="Microsoft YaHei,Microsoft YaHei_MSFontService,sans-serif" font-weight="700" font-size="48" transform="translate(1266.26 487)">SR Decoder</text><text fill="#91ACE0" font-family="Segoe UI Symbol,Segoe UI Symbol_MSFontService,sans-serif" font-weight="700" font-size="72" transform="translate(1532.05 316)">❄</text><text fill="#91ACE0" font-family="Segoe UI Symbol,Segoe UI Symbol_MSFontService,sans-serif" font-weight="700" font-size="72" transform="translate(1532.05 529)">❄</text><path d="M0-4 32-4 32 4 0 4ZM56-4 88-4 88 4 56 4ZM112-4 144-4 144 4 112 4ZM168-4 202.4-4 202.4 1.6 194.4 1.6 194.4 0 198.4 4 168 4ZM202.4 25.6 202.4 57.6 194.4 57.6 194.4 25.6ZM202.4 81.6 202.4 113.6 194.4 113.6 194.4 81.6ZM202.4 137.6 202.4 169.6 194.4 169.6 194.4 137.6ZM202.4 193.6 202.4 225.6 194.4 225.6 194.4 193.6ZM202.4 249.6 202.4 281.6 194.4 281.6 194.4 249.6ZM202.4 305.6 202.4 337.6 194.4 337.6 194.4 305.6ZM202.4 361.6 202.4 393.6 194.4 393.6 194.4 361.6ZM202.4 417.6 202.4 449.6 194.4 449.6 194.4 417.6ZM202.4 473.6 202.4 505.6 194.4 505.6 194.4 473.6ZM202.4 529.6 202.4 561.6 194.4 561.6 194.4 529.6ZM202.4 585.6 202.4 617.6 194.4 617.6 194.4 585.6ZM202.4 641.6 202.4 673.6 194.4 673.6 194.4 641.6ZM202.4 697.6 202.4 729.6 194.4 729.6 194.4 697.6ZM202.4 753.6 202.4 785.6 194.4 785.6 194.4 753.6ZM175.72 790.92 143.72 790.92 143.72 782.92 175.72 782.92ZM119.72 790.92 87.7201 790.92 87.7201 782.92 119.72 782.92ZM63.7201 790.92 31.7201 790.92 31.7201 782.92 63.7201 782.92ZM25.3333 798.92 1.33333 786.92 25.3333 774.92Z" transform="matrix(1.83697e-16 1 1 -1.83697e-16 203 505)"/><path d="M-290 770.833C-290 767.612-287.388 765-284.167 765L-206.833 765C-203.612 765-201 767.612-201 770.833L-201 794.167C-201 797.388-203.612 800-206.833 800L-284.167 800C-287.388 800-290 797.388-290 794.167Z" stroke="#7F7F7F" stroke-width="6" stroke-miterlimit="8" stroke-dasharray="24 18" fill="none" fill-rule="evenodd"/><path d="M-291 905.833C-291 902.612-288.388 900-285.167 900L-208.833 900C-205.612 900-203 902.612-203 905.833L-203 929.167C-203 932.388-205.612 935-208.833 935L-285.167 935C-288.388 935-291 932.388-291 929.167Z" stroke="#E54C5E" stroke-width="6" stroke-miterlimit="8" stroke-dasharray="24 18" fill="none" fill-rule="evenodd"/><path d="M318 779 370.863 779 370.863 787 318 787ZM366.863 771 390.863 783 366.863 795Z"/><path d="M314 913 366.863 913 366.863 921 314 921ZM362.863 905 386.863 917 362.863 929Z" fill="#C00000"/><path d="M914 778 922 778 922 786 914 786ZM930 778 938 778 938 786 930 786ZM946 778 954 778 954 786 946 786ZM962 778 966.863 778 966.863 786 962 786ZM962.863 770 986.863 782 962.863 794Z"/><text fill="#91ACE0" font-family="Segoe UI Symbol,Segoe UI Symbol_MSFontService,sans-serif" font-weight="700" font-size="72" transform="translate(912.113 943)">❄</text><text font-family="SimSun,SimSun_MSFontService,sans-serif" font-weight="700" font-size="32" transform="translate(-164.927 777)">模型解码器和编码器，在模型</text><text font-family="SimSun,SimSun_MSFontService,sans-serif" font-weight="700" font-size="32" transform="translate(-164.927 815)">各个阶段都处于激活</text><text font-family="SimSun,SimSun_MSFontService,sans-serif" font-weight="700" font-size="32" transform="translate(-164.927 907)">模型特征增强部分，只在特征</text><text font-family="SimSun,SimSun_MSFontService,sans-serif" font-weight="700" font-size="32" transform="translate(-164.927 945)">增强训练阶段和推理时激活</text><text font-family="SimSun,SimSun_MSFontService,sans-serif" font-weight="700" font-size="32" transform="translate(419.795 796)">各个阶段的特征传递路径</text><text font-family="SimSun,SimSun_MSFontService,sans-serif" font-weight="700" font-size="32" transform="translate(419.795 912)">特征增强训练阶段和推理阶段</text><text font-family="SimSun,SimSun_MSFontService,sans-serif" font-weight="700" font-size="32" transform="translate(419.795 950)">的特征传递路径</text><text font-family="SimSun,SimSun_MSFontService,sans-serif" font-weight="700" font-size="32" transform="translate(1012.2 796)">预训练</text><text font-family="SimSun,SimSun_MSFontService,sans-serif" font-weight="700" font-size="32" transform="translate(1108.7 796)">阶段的特征传递路径</text><text font-family="SimSun,SimSun_MSFontService,sans-serif" font-weight="700" font-size="32" transform="translate(1012.2 931)">特征增强训练阶段该模块处于冻结或微调状态</text></g></svg>