<svg width="3861" height="1209" xmlns="http://www.w3.org/2000/svg" xmlns:xlink="http://www.w3.org/1999/xlink" xml:space="preserve" overflow="hidden"><g transform="translate(-671 -430)"><path d="M1317 625.004C1317 521.172 1401.17 437 1505 437L3137 437C3240.83 437 3325 521.172 3325 625.004L3325 1377C3325 1480.83 3240.83 1565 3137 1565L1505 1565C1401.17 1565 1317 1480.83 1317 1377Z" stroke="#7F7F7F" stroke-width="13.75" stroke-miterlimit="8" stroke-dasharray="55 41.25" fill="none" fill-rule="evenodd"/><path d="M1533 737.5C1533 716.789 1549.79 700 1570.5 700L1720.5 700C1741.21 700 1758 716.789 1758 737.5L1758 1355.5C1758 1376.21 1741.21 1393 1720.5 1393L1570.5 1393C1549.79 1393 1533 1376.21 1533 1355.5Z" stroke="#588E31" stroke-width="13.75" stroke-miterlimit="8" fill="#E3F2D9" fill-rule="evenodd"/><path d="M1892 738.5C1892 717.789 1908.79 701 1929.5 701L2079.5 701C2100.21 701 2117 717.789 2117 738.5L2117 1356.5C2117 1377.21 2100.21 1394 2079.5 1394L1929.5 1394C1908.79 1394 1892 1377.21 1892 1356.5Z" stroke="#588E31" stroke-width="13.75" stroke-miterlimit="8" fill="#E3F2D9" fill-rule="evenodd"/><path d="M2423 736.501C2423 715.79 2439.79 699 2460.5 699L2610.5 699C2631.21 699 2648 715.79 2648 736.501L2648 1352.5C2648 1373.21 2631.21 1390 2610.5 1390L2460.5 1390C2439.79 1390 2423 1373.21 2423 1352.5Z" stroke="#588E31" stroke-width="13.75" stroke-miterlimit="8" fill="#ACD78E" fill-rule="evenodd"/><path d="M2910 736.332C2910 715.714 2926.71 699 2947.33 699L3096.66 699C3117.28 699 3133.99 715.714 3133.99 736.332L3133.99 1355.67C3133.99 1376.29 3117.28 1393 3096.66 1393L2947.33 1393C2926.71 1393 2910 1376.29 2910 1355.67Z" stroke="#588E31" stroke-width="13.75" stroke-miterlimit="8" fill="#ACD78E" fill-rule="evenodd"/><path d="M1175.05 1037.13 1499.27 1039.44 1499.17 1053.19 1174.95 1050.87ZM1492.49 1025.64 1533.59 1046.56 1492.2 1066.89Z"/><text font-family="Microsoft YaHei,Microsoft YaHei_MSFontService,sans-serif" font-weight="700" font-size="110" transform="matrix(6.12323e-17 -1 1 6.12323e-17 1685.99 1187)">Conv</text><text font-family="Microsoft YaHei,Microsoft YaHei_MSFontService,sans-serif" font-weight="700" font-size="110" transform="matrix(6.12323e-17 -1 1 6.12323e-17 2043.43 1349)">Batchnorm</text><path d="M1758.04 1039.13 1857.72 1039.65 1857.65 1053.4 1757.96 1052.87ZM1850.92 1025.86 1892.06 1046.7 1850.7 1067.11Z"/><path d="M0.0620208-6.87472 272.313-4.41858 272.189 9.33086-0.0620208 6.87472ZM265.563-18.23 306.625 2.76624 265.191 23.0183Z" transform="matrix(1 0 0 -1 2117 1046.77)"/><path d="M2648.04 1037.13 2874.91 1038.35 2874.84 1052.1 2647.96 1050.87ZM2868.11 1024.56 2909.25 1045.41 2867.89 1065.81Z"/><path d="M2252 1044 2252 1498.44" stroke="#000000" stroke-width="13.75" stroke-linecap="round" stroke-linejoin="round" stroke-miterlimit="10" fill="none" fill-rule="evenodd"/><path d="M0 0 547.25 2.76624" stroke="#000000" stroke-width="13.75" stroke-linecap="round" stroke-linejoin="round" stroke-miterlimit="10" fill="none" fill-rule="evenodd" transform="matrix(-1 0 0 1 2799.25 1496)"/><path d="M2792.13 1494.91 2792.13 1080.38C2792.13 1076.58 2795.2 1073.5 2799 1073.5 2802.8 1073.5 2805.88 1076.58 2805.88 1080.38L2805.88 1494.91C2805.88 1498.7 2802.8 1501.78 2799 1501.78 2795.2 1501.78 2792.13 1498.7 2792.13 1494.91ZM2778.38 1087.25 2799 1046 2819.63 1087.25Z"/><text font-family="Microsoft YaHei,Microsoft YaHei_MSFontService,sans-serif" font-weight="700" font-size="110" transform="matrix(6.12323e-17 -1 1 6.12323e-17 2574.87 1223)">BiGR</text><text font-family="Microsoft YaHei,Microsoft YaHei_MSFontService,sans-serif" font-weight="700" font-size="110" transform="matrix(6.12323e-17 -1 1 6.12323e-17 2574.87 955)">U</text><text font-family="Microsoft YaHei,Microsoft YaHei_MSFontService,sans-serif" font-weight="700" font-size="110" transform="matrix(6.12323e-17 -1 1 6.12323e-17 3060.93 1226)">BiGRU</text><path d="M0.0309478-6.87493 389.359-5.12235 389.297 8.62751-0.0309478 6.87493ZM382.546-18.9032 423.702 1.90732 382.36 22.3464Z" transform="matrix(1 0 0 -1 3134 1045.91)"/><text font-family="Microsoft YaHei,Microsoft YaHei_MSFontService,sans-serif" font-weight="700" font-size="110" transform="matrix(1 0 0 1 1657.37 584)">Sequential Residual Block</text><path d="M3558 674.168C3558 648.67 3578.67 628 3604.17 628L3788.83 628C3814.33 628 3835 648.67 3835 674.168L3835 1413.83C3835 1439.33 3814.33 1460 3788.83 1460L3604.17 1460C3578.67 1460 3558 1439.33 3558 1413.83Z" stroke="#588E31" stroke-width="13.75" stroke-miterlimit="8" fill="#E3F2D9" fill-rule="evenodd"/><path d="M672.107 1033.13 863.366 1036.1 863.152 1049.85 671.893 1046.87ZM856.705 1022.24 897.63 1043.51 856.064 1063.49Z"/><path d="M3835 1037.12 3983.99 1037.13 3983.99 1050.88 3835 1050.88ZM3977.12 1023.38 4018.37 1044 3977.12 1064.63Z"/><text font-family="Microsoft YaHei,Microsoft YaHei_MSFontService,sans-serif" font-weight="700" font-size="128" transform="matrix(6.12323e-17 -1 1 6.12323e-17 1079.8 1171)">SRB</text><text font-family="Microsoft YaHei,Microsoft YaHei_MSFontService,sans-serif" font-weight="700" font-size="128" transform="matrix(6.12323e-17 -1 1 6.12323e-17 3741.58 1171)">SRB</text><path d="M897 674.334C897 648.745 917.744 628 943.334 628L1128.67 628C1154.26 628 1175 648.745 1175 674.334L1175 1413.67C1175 1439.26 1154.26 1460 1128.67 1460L943.334 1460C917.744 1460 897 1439.26 897 1413.67Z" stroke="#588E31" stroke-width="13.75" stroke-miterlimit="8" fill="#E3F2D9" fill-rule="evenodd"/><text font-family="Microsoft YaHei,Microsoft YaHei_MSFontService,sans-serif" font-weight="700" font-size="128" transform="matrix(6.12323e-17 -1 1 6.12323e-17 1080.81 1171)">SRB</text><path d="M4024 674.168C4024 648.67 4044.67 628 4070.17 628L4254.83 628C4280.33 628 4301 648.67 4301 674.168L4301 1413.83C4301 1439.33 4280.33 1460 4254.83 1460L4070.17 1460C4044.67 1460 4024 1439.33 4024 1413.83Z" stroke="#B58B02" stroke-width="13.75" stroke-miterlimit="8" fill="#FFF2CA" fill-rule="evenodd"/><path d="M4301 1037.12 4455.03 1037.13 4455.03 1050.88 4301 1050.88ZM4448.15 1023.38 4489.4 1044 4448.15 1064.63Z"/><text font-family="Microsoft YaHei,Microsoft YaHei_MSFontService,sans-serif" font-weight="700" font-size="110" transform="matrix(6.12323e-17 -1 1 6.12323e-17 4201.36 1343)">Conv Layer</text><path d="M764 1055 764.001 1631.33" stroke="#000000" stroke-width="13.75" stroke-linecap="round" stroke-linejoin="round" stroke-miterlimit="10" fill="none" fill-rule="evenodd"/><path d="M0 0 3603.22 3.50823" stroke="#000000" stroke-width="13.75" stroke-linecap="round" stroke-linejoin="round" stroke-miterlimit="10" fill="none" fill-rule="evenodd" transform="matrix(-1 0 0 1 4367.22 1628)"/><path d="M4360.13 1626.33 4360.12 1084.38C4360.12 1080.58 4363.2 1077.5 4367 1077.5 4370.8 1077.5 4373.88 1080.58 4373.88 1084.38L4373.88 1626.33C4373.88 1630.13 4370.8 1633.2 4367 1633.2 4363.21 1633.2 4360.13 1630.13 4360.13 1626.33ZM4346.38 1091.25 4367 1050 4387.62 1091.25Z"/></g></svg>