<svg width="3527" height="2112" xmlns="http://www.w3.org/2000/svg" xmlns:xlink="http://www.w3.org/1999/xlink" xml:space="preserve" overflow="hidden"><g transform="translate(-222 11)"><path d="M304 1086.83C304 1042.74 339.743 1007 383.835 1007L749.165 1007C793.257 1007 829 1042.74 829 1086.83L829 1406.16C829 1450.26 793.257 1486 749.165 1486L383.835 1486C339.743 1486 304 1450.26 304 1406.16Z" stroke="#2E54A1" stroke-width="13.75" stroke-miterlimit="8" fill="#DAE3F5" fill-rule="evenodd"/><path d="M1006 933.5C1006 897.878 1035.1 869 1071 869 1106.9 869 1136 897.878 1136 933.5 1136 969.122 1106.9 998 1071 998 1035.1 998 1006 969.122 1006 933.5Z" stroke="#C65F10" stroke-width="13.75" stroke-miterlimit="8" fill="#FCE6D5" fill-rule="evenodd"/><path d="M1006 1560C1006 1524.1 1035.1 1495 1071 1495 1106.9 1495 1136 1524.1 1136 1560 1136 1595.9 1106.9 1625 1071 1625 1035.1 1625 1006 1595.9 1006 1560Z" stroke="#C65F10" stroke-width="13.75" stroke-miterlimit="8" fill="#FCE6D5" fill-rule="evenodd"/><path d="M1006 1127.5C1006 1091.88 1035.1 1063 1071 1063 1106.9 1063 1136 1091.88 1136 1127.5 1136 1163.12 1106.9 1192 1071 1192 1035.1 1192 1006 1163.12 1006 1127.5Z" stroke="#C65F10" stroke-width="13.75" stroke-miterlimit="8" fill="#FCE6D5" fill-rule="evenodd"/><path d="M1006 1347.5C1006 1311.88 1035.1 1283 1071 1283 1106.9 1283 1136 1311.88 1136 1347.5 1136 1383.12 1106.9 1412 1071 1412 1035.1 1412 1006 1383.12 1006 1347.5Z" stroke="#C65F10" stroke-width="13.75" stroke-miterlimit="8" fill="#FCE6D5" fill-rule="evenodd"/><path d="M1304 933.5C1304 897.878 1333.1 869 1369 869 1404.9 869 1434 897.878 1434 933.5 1434 969.122 1404.9 998 1369 998 1333.1 998 1304 969.122 1304 933.5Z" stroke="#C65F10" stroke-width="13.75" stroke-miterlimit="8" fill="#FCE6D5" fill-rule="evenodd"/><path d="M1304 1560C1304 1524.1 1333.1 1495 1369 1495 1404.9 1495 1434 1524.1 1434 1560 1434 1595.9 1404.9 1625 1369 1625 1333.1 1625 1304 1595.9 1304 1560Z" stroke="#C65F10" stroke-width="13.75" stroke-miterlimit="8" fill="#FCE6D5" fill-rule="evenodd"/><path d="M1304 1127.5C1304 1091.88 1333.1 1063 1369 1063 1404.9 1063 1434 1091.88 1434 1127.5 1434 1163.12 1404.9 1192 1369 1192 1333.1 1192 1304 1163.12 1304 1127.5Z" stroke="#C65F10" stroke-width="13.75" stroke-miterlimit="8" fill="#FCE6D5" fill-rule="evenodd"/><path d="M1304 1347.5C1304 1311.88 1333.1 1283 1369 1283 1404.9 1283 1434 1311.88 1434 1347.5 1434 1383.12 1404.9 1412 1369 1412 1333.1 1412 1304 1383.12 1304 1347.5Z" stroke="#C65F10" stroke-width="13.75" stroke-miterlimit="8" fill="#FCE6D5" fill-rule="evenodd"/><path d="M1136.5 934.5 1304.5 934.501" stroke="#000000" stroke-width="6.875" stroke-miterlimit="8" fill="none" fill-rule="evenodd"/><path d="M1136.5 934.5 1304.5 1128.5" stroke="#000000" stroke-width="6.875" stroke-miterlimit="8" fill="none" fill-rule="evenodd"/><path d="M1136.5 934.5 1304.5 1348.5" stroke="#000000" stroke-width="6.875" stroke-miterlimit="8" fill="none" fill-rule="evenodd"/><path d="M1136.5 934.5 1304.5 1560.83" stroke="#000000" stroke-width="6.875" stroke-miterlimit="8" fill="none" fill-rule="evenodd"/><path d="M0 0 167.995 193.998" stroke="#000000" stroke-width="6.875" stroke-miterlimit="8" fill="none" fill-rule="evenodd" transform="matrix(1 0 0 -1 1136.5 1128.5)"/><path d="M1136.5 1128.5 1304.5 1128.5" stroke="#000000" stroke-width="6.875" stroke-miterlimit="8" fill="none" fill-rule="evenodd"/><path d="M1136.5 1128.5 1304.5 1348.5" stroke="#000000" stroke-width="6.875" stroke-miterlimit="8" fill="none" fill-rule="evenodd"/><path d="M1136.5 1128.5 1304.5 1560.83" stroke="#000000" stroke-width="6.875" stroke-miterlimit="8" fill="none" fill-rule="evenodd"/><path d="M0 0 167.995 413.998" stroke="#000000" stroke-width="6.875" stroke-miterlimit="8" fill="none" fill-rule="evenodd" transform="matrix(1 0 0 -1 1136.5 1348.5)"/><path d="M0 0 167.995 220" stroke="#000000" stroke-width="6.875" stroke-miterlimit="8" fill="none" fill-rule="evenodd" transform="matrix(1 0 0 -1 1136.5 1348.5)"/><path d="M1136.5 1348.5 1304.5 1348.5" stroke="#000000" stroke-width="6.875" stroke-miterlimit="8" fill="none" fill-rule="evenodd"/><path d="M1136.5 1348.5 1304.5 1560.83" stroke="#000000" stroke-width="6.875" stroke-miterlimit="8" fill="none" fill-rule="evenodd"/><path d="M0 0 167.995 626.329" stroke="#000000" stroke-width="6.875" stroke-miterlimit="8" fill="none" fill-rule="evenodd" transform="matrix(1 0 0 -1 1136.5 1560.83)"/><path d="M0 0 167.995 432.331" stroke="#000000" stroke-width="6.875" stroke-miterlimit="8" fill="none" fill-rule="evenodd" transform="matrix(1 0 0 -1 1136.5 1560.83)"/><path d="M0 0 167.995 212.331" stroke="#000000" stroke-width="6.875" stroke-miterlimit="8" fill="none" fill-rule="evenodd" transform="matrix(1 0 0 -1 1136.5 1560.83)"/><path d="M1136.5 1560.5 1304.5 1560.5" stroke="#000000" stroke-width="6.875" stroke-miterlimit="8" fill="none" fill-rule="evenodd"/><text font-family="Microsoft YaHei,Microsoft YaHei_MSFontService,sans-serif" font-weight="700" font-size="92" transform="matrix(1 0 0 1 456.816 1214)">CNN</text><text font-family="Microsoft YaHei,Microsoft YaHei_MSFontService,sans-serif" font-weight="700" font-size="92" transform="matrix(1 0 0 1 341.041 1324)">backbone</text><path d="M1592 995.003C1592 925.413 1648.41 869 1718 869L2450 869C2519.59 869 2576 925.413 2576 995.003L2576 1499C2576 1568.59 2519.59 1625 2450 1625L1718 1625C1648.41 1625 1592 1568.59 1592 1499Z" stroke="#588E31" stroke-width="13.75" stroke-miterlimit="8" fill="#E3F2D9" fill-rule="evenodd"/><path d="M1702 1054.83C1702 1026.21 1725.21 1003 1753.83 1003L1961.17 1003C1989.79 1003 2013 1026.21 2013 1054.83L2013 1438.17C2013 1466.79 1989.79 1490 1961.17 1490L1753.83 1490C1725.21 1490 1702 1466.79 1702 1438.17Z" stroke="#588E31" stroke-width="13.75" stroke-miterlimit="8" fill="#C8E5B3" fill-rule="evenodd"/><path d="M2122 1054.83C2122 1026.21 2145.21 1003 2173.83 1003L2381.17 1003C2409.79 1003 2433 1026.21 2433 1054.83L2433 1438.17C2433 1466.79 2409.79 1490 2381.17 1490L2173.83 1490C2145.21 1490 2122 1466.79 2122 1438.17Z" stroke="#588E31" stroke-width="13.75" stroke-miterlimit="8" fill="#C8E5B3" fill-rule="evenodd"/><text font-family="Microsoft YaHei,Microsoft YaHei_MSFontService,sans-serif" font-weight="700" font-size="92" transform="matrix(1 0 0 1 1716.93 968)">LST</text><text font-family="Microsoft YaHei,Microsoft YaHei_MSFontService,sans-serif" font-weight="700" font-size="92" transform="matrix(1 0 0 1 1879.64 968)">M</text><text font-family="Microsoft YaHei,Microsoft YaHei_MSFontService,sans-serif" font-weight="700" font-size="92" transform="matrix(1 0 0 1 2001.67 968)">backbone</text><text font-family="Microsoft YaHei,Microsoft YaHei_MSFontService,sans-serif" font-weight="700" font-size="92" transform="matrix(6.12323e-17 -1 1 6.12323e-17 1889.27 1412)">BiLSTM</text><text font-family="Microsoft YaHei,Microsoft YaHei_MSFontService,sans-serif" font-weight="700" font-size="92" transform="matrix(6.12323e-17 -1 1 6.12323e-17 2321 1411)">BiLSTM</text><path d="M1.39803e-05-6.875 143.099-6.87471 143.099 6.87529-1.39803e-05 6.875ZM136.224-20.6247 177.474 0.000360892 136.223 20.6253Z" transform="matrix(1 0 0 -1 829 1247)"/><path d="M1434 1240.13 1557.44 1240.13 1557.44 1253.88 1434 1253.88ZM1550.56 1226.38 1591.81 1247 1550.56 1267.63Z"/><path d="M3.14439e-05-6.875 123.439-6.87444 123.439 6.87556-3.14439e-05 6.875ZM116.564-20.6245 157.814 0.000721785 116.563 20.6255Z" transform="matrix(1 0 0 -1 2576 1247)"/><path d="M3322 924C3322 888.102 3351.1 859 3387 859 3422.9 859 3452 888.102 3452 924 3452 959.898 3422.9 989 3387 989 3351.1 989 3322 959.898 3322 924Z" stroke="#C65F10" stroke-width="13.75" stroke-miterlimit="8" fill="#FCE6D5" fill-rule="evenodd"/><path d="M3322 1551C3322 1515.1 3351.1 1486 3387 1486 3422.9 1486 3452 1515.1 3452 1551 3452 1586.9 3422.9 1616 3387 1616 3351.1 1616 3322 1586.9 3322 1551Z" stroke="#C65F10" stroke-width="13.75" stroke-miterlimit="8" fill="#FCE6D5" fill-rule="evenodd"/><path d="M3322 1118C3322 1082.1 3351.1 1053 3387 1053 3422.9 1053 3452 1082.1 3452 1118 3452 1153.9 3422.9 1183 3387 1183 3351.1 1183 3322 1153.9 3322 1118Z" stroke="#C65F10" stroke-width="13.75" stroke-miterlimit="8" fill="#FCE6D5" fill-rule="evenodd"/><path d="M3322 1338C3322 1302.1 3351.1 1273 3387 1273 3422.9 1273 3452 1302.1 3452 1338 3452 1373.9 3422.9 1403 3387 1403 3351.1 1403 3322 1373.9 3322 1338Z" stroke="#C65F10" stroke-width="13.75" stroke-miterlimit="8" fill="#FCE6D5" fill-rule="evenodd"/><path d="M3612 1237.5C3612 1201.88 3641.1 1173 3677 1173 3712.9 1173 3742 1201.88 3742 1237.5 3742 1273.12 3712.9 1302 3677 1302 3641.1 1302 3612 1273.12 3612 1237.5Z" stroke="#C65F10" stroke-width="13.75" stroke-miterlimit="8" fill="#FCE6D5" fill-rule="evenodd"/><path d="M3452.5 924.5 3611.81 1237.66" stroke="#000000" stroke-width="6.875" stroke-miterlimit="8" fill="none" fill-rule="evenodd"/><path d="M3452.5 1118.5 3611.81 1237.67" stroke="#000000" stroke-width="6.875" stroke-miterlimit="8" fill="none" fill-rule="evenodd"/><path d="M0 0 159.311 100.834" stroke="#000000" stroke-width="6.875" stroke-miterlimit="8" fill="none" fill-rule="evenodd" transform="matrix(1 0 0 -1 3452.5 1339.33)"/><path d="M0 0 159.311 313.164" stroke="#000000" stroke-width="6.875" stroke-miterlimit="8" fill="none" fill-rule="evenodd" transform="matrix(1 0 0 -1 3452.5 1551.66)"/><path d="M0 0 11.1426 70.0402" stroke="#000000" stroke-width="13.75" stroke-linecap="round" stroke-linejoin="round" stroke-miterlimit="10" fill="none" fill-rule="evenodd" transform="matrix(1 0 0 -1 3671 1272.04)"/><path d="M0 0 33.1786 0.000360892" stroke="#000000" stroke-width="13.75" stroke-linecap="round" stroke-linejoin="round" stroke-miterlimit="10" fill="none" fill-rule="evenodd" transform="matrix(-1 0 0 1 3715.18 1202)"/><path d="M0 0 33.1786 0.000360892" stroke="#000000" stroke-width="13.75" stroke-linecap="round" stroke-linejoin="round" stroke-miterlimit="10" fill="none" fill-rule="evenodd" transform="matrix(-1 0 0 1 3671.18 1273)"/><path d="M2765 923C2765 887.102 2794.1 858 2830 858 2865.9 858 2895 887.102 2895 923 2895 958.898 2865.9 988 2830 988 2794.1 988 2765 958.898 2765 923Z" stroke="#C65F10" stroke-width="13.75" stroke-miterlimit="8" stroke-dasharray="13.75 13.75" fill="#FCE6D5" fill-rule="evenodd"/><path d="M2765 1550C2765 1514.1 2794.1 1485 2830 1485 2865.9 1485 2895 1514.1 2895 1550 2895 1585.9 2865.9 1615 2830 1615 2794.1 1615 2765 1585.9 2765 1550Z" stroke="#C65F10" stroke-width="13.75" stroke-miterlimit="8" stroke-dasharray="13.75 13.75" fill="#FCE6D5" fill-rule="evenodd"/><path d="M2765 1117C2765 1081.1 2794.1 1052 2830 1052 2865.9 1052 2895 1081.1 2895 1117 2895 1152.9 2865.9 1182 2830 1182 2794.1 1182 2765 1152.9 2765 1117Z" stroke="#C65F10" stroke-width="13.75" stroke-miterlimit="8" stroke-dasharray="13.75 13.75" fill="#FCE6D5" fill-rule="evenodd"/><path d="M2765 1337C2765 1301.1 2794.1 1272 2830 1272 2865.9 1272 2895 1301.1 2895 1337 2895 1372.9 2865.9 1402 2830 1402 2794.1 1402 2765 1372.9 2765 1337Z" stroke="#C65F10" stroke-width="13.75" stroke-miterlimit="8" stroke-dasharray="13.75 13.75" fill="#FCE6D5" fill-rule="evenodd"/><path d="M3063 923C3063 887.102 3092.1 858 3128 858 3163.9 858 3193 887.102 3193 923 3193 958.898 3163.9 988 3128 988 3092.1 988 3063 958.898 3063 923Z" stroke="#C65F10" stroke-width="13.75" stroke-miterlimit="8" stroke-dasharray="13.75 13.75" fill="#FCE6D5" fill-rule="evenodd"/><path d="M3063 1550C3063 1514.1 3092.1 1485 3128 1485 3163.9 1485 3193 1514.1 3193 1550 3193 1585.9 3163.9 1615 3128 1615 3092.1 1615 3063 1585.9 3063 1550Z" stroke="#C65F10" stroke-width="13.75" stroke-miterlimit="8" stroke-dasharray="13.75 13.75" fill="#FCE6D5" fill-rule="evenodd"/><path d="M3063 1117C3063 1081.1 3092.1 1052 3128 1052 3163.9 1052 3193 1081.1 3193 1117 3193 1152.9 3163.9 1182 3128 1182 3092.1 1182 3063 1152.9 3063 1117Z" stroke="#C65F10" stroke-width="13.75" stroke-miterlimit="8" stroke-dasharray="13.75 13.75" fill="#FCE6D5" fill-rule="evenodd"/><path d="M3063 1337C3063 1301.1 3092.1 1272 3128 1272 3163.9 1272 3193 1301.1 3193 1337 3193 1372.9 3163.9 1402 3128 1402 3092.1 1402 3063 1372.9 3063 1337Z" stroke="#C65F10" stroke-width="13.75" stroke-miterlimit="8" stroke-dasharray="13.75 13.75" fill="#FCE6D5" fill-rule="evenodd"/><path d="M2895.5 923.5 3063.5 923.501" stroke="#000000" stroke-width="6.875" stroke-miterlimit="8" stroke-dasharray="6.875 6.875" fill="none" fill-rule="evenodd"/><path d="M2895.5 923.5 3063.5 1117.5" stroke="#000000" stroke-width="6.875" stroke-miterlimit="8" stroke-dasharray="6.875 6.875" fill="none" fill-rule="evenodd"/><path d="M2895.5 923.5 3063.5 1337.5" stroke="#000000" stroke-width="6.875" stroke-miterlimit="8" stroke-dasharray="6.875 6.875" fill="none" fill-rule="evenodd"/><path d="M2895.5 923.5 3063.5 1549.83" stroke="#000000" stroke-width="6.875" stroke-miterlimit="8" stroke-dasharray="6.875 6.875" fill="none" fill-rule="evenodd"/><path d="M0 0 167.995 193.998" stroke="#000000" stroke-width="6.875" stroke-miterlimit="8" stroke-dasharray="6.875 6.875" fill="none" fill-rule="evenodd" transform="matrix(1 0 0 -1 2895.5 1117.5)"/><path d="M2895.5 1117.5 3063.5 1117.5" stroke="#000000" stroke-width="6.875" stroke-miterlimit="8" stroke-dasharray="6.875 6.875" fill="none" fill-rule="evenodd"/><path d="M2895.5 1117.5 3063.5 1337.5" stroke="#000000" stroke-width="6.875" stroke-miterlimit="8" stroke-dasharray="6.875 6.875" fill="none" fill-rule="evenodd"/><path d="M2895.5 1117.5 3063.5 1549.83" stroke="#000000" stroke-width="6.875" stroke-miterlimit="8" stroke-dasharray="6.875 6.875" fill="none" fill-rule="evenodd"/><path d="M0 0 167.995 413.998" stroke="#000000" stroke-width="6.875" stroke-miterlimit="8" stroke-dasharray="6.875 6.875" fill="none" fill-rule="evenodd" transform="matrix(1 0 0 -1 2895.5 1337.5)"/><path d="M0 0 167.995 220" stroke="#000000" stroke-width="6.875" stroke-miterlimit="8" stroke-dasharray="6.875 6.875" fill="none" fill-rule="evenodd" transform="matrix(1 0 0 -1 2895.5 1337.5)"/><path d="M2895.5 1337.5 3063.5 1337.5" stroke="#000000" stroke-width="6.875" stroke-miterlimit="8" stroke-dasharray="6.875 6.875" fill="none" fill-rule="evenodd"/><path d="M2895.5 1337.5 3063.5 1549.83" stroke="#000000" stroke-width="6.875" stroke-miterlimit="8" stroke-dasharray="6.875 6.875" fill="none" fill-rule="evenodd"/><path d="M0 0 167.995 626.329" stroke="#000000" stroke-width="6.875" stroke-miterlimit="8" stroke-dasharray="6.875 6.875" fill="none" fill-rule="evenodd" transform="matrix(1 0 0 -1 2895.5 1549.83)"/><path d="M0 0 167.995 432.331" stroke="#000000" stroke-width="6.875" stroke-miterlimit="8" stroke-dasharray="6.875 6.875" fill="none" fill-rule="evenodd" transform="matrix(1 0 0 -1 2895.5 1549.83)"/><path d="M0 0 167.995 212.331" stroke="#000000" stroke-width="6.875" stroke-miterlimit="8" stroke-dasharray="6.875 6.875" fill="none" fill-rule="evenodd" transform="matrix(1 0 0 -1 2895.5 1549.83)"/><path d="M2895.5 1550.5 3063.5 1550.5" stroke="#000000" stroke-width="6.875" stroke-miterlimit="8" stroke-dasharray="6.875 6.875" fill="none" fill-rule="evenodd"/><path d="M1592 131.17C1592 61.4881 1648.49 5.00016 1718.17 5.00016L2449.83 5.00016C2519.51 5.00016 2576 61.4881 2576 131.17L2576 635.831C2576 705.512 2519.51 762 2449.83 762L1718.17 762C1648.49 762 1592 705.512 1592 635.831Z" stroke="#588E31" stroke-width="13.75" stroke-miterlimit="8" stroke-dasharray="55 41.25" fill="#E3F2D9" fill-rule="evenodd"/><path d="M1702 191.834C1702 163.207 1725.21 140 1753.83 140L1961.17 140C1989.79 140 2013 163.207 2013 191.834L2013 575.166C2013 603.793 1989.79 627 1961.17 627L1753.83 627C1725.21 627 1702 603.793 1702 575.166Z" stroke="#588E31" stroke-width="13.75" stroke-miterlimit="8" stroke-dasharray="55 41.25" fill="#C8E5B3" fill-rule="evenodd"/><path d="M2122 191.834C2122 163.207 2145.21 140 2173.83 140L2381.17 140C2409.79 140 2433 163.207 2433 191.834L2433 575.166C2433 603.793 2409.79 627 2381.17 627L2173.83 627C2145.21 627 2122 603.793 2122 575.166Z" stroke="#588E31" stroke-width="13.75" stroke-miterlimit="8" stroke-dasharray="55 41.25" fill="#C8E5B3" fill-rule="evenodd"/><text font-family="Microsoft YaHei,Microsoft YaHei_MSFontService,sans-serif" font-weight="700" font-size="92" transform="matrix(1 0 0 1 1782.24 105)">Bypass LSTM</text><text font-family="Microsoft YaHei,Microsoft YaHei_MSFontService,sans-serif" font-weight="700" font-size="92" transform="matrix(6.12323e-17 -1 1 6.12323e-17 1889.27 549)">BiLSTM</text><text font-family="Microsoft YaHei,Microsoft YaHei_MSFontService,sans-serif" font-weight="700" font-size="92" transform="matrix(6.12323e-17 -1 1 6.12323e-17 2321 548)">BiLSTM</text><text font-family="Microsoft YaHei,Microsoft YaHei_MSFontService,sans-serif" font-weight="700" font-size="92" transform="matrix(1 0 0 1 818.577 1786)">Map to Sequence</text><text font-family="Microsoft YaHei,Microsoft YaHei_MSFontService,sans-serif" font-weight="700" font-size="92" transform="matrix(1 0 0 1 2615.39 1785)">Embedded </text><text font-family="Microsoft YaHei,Microsoft YaHei_MSFontService,sans-serif" font-weight="700" font-size="92" transform="matrix(1 0 0 1 3135.02 1785)">MLP</text><path d="M1498.13 1247.15 1498.13 1192.15 1511.88 1192.15 1511.88 1247.15ZM1498.13 1150.9 1498.13 1095.9 1511.88 1095.9 1511.88 1150.9ZM1498.13 1054.65 1498.13 999.652 1511.88 999.652 1511.88 1054.65ZM1498.13 958.402 1498.13 903.402 1511.88 903.402 1511.88 958.402ZM1498.13 862.152 1498.13 807.152 1511.88 807.152 1511.88 862.152ZM1498.13 765.902 1498.13 710.902 1511.88 710.902 1511.88 765.902ZM1498.13 669.652 1498.13 614.652 1511.88 614.652 1511.88 669.652ZM1498.13 573.402 1498.13 518.402 1511.88 518.402 1511.88 573.402ZM1498.13 477.152 1498.13 422.152 1511.88 422.152 1511.88 477.152ZM1508.1 377.125 1557.63 377.125 1557.63 390.875 1508.1 390.875ZM1550.75 363.375 1592 384 1550.75 404.625Z"/><path d="M2576 377.125 2634.19 377.125 2634.19 387.684 2620.44 387.684 2620.44 384 2627.32 390.875 2576 390.875ZM2634.19 428.934 2634.19 483.934 2620.44 483.934 2620.44 428.934ZM2634.19 525.184 2634.19 580.184 2620.44 580.184 2620.44 525.184ZM2634.19 621.434 2634.19 676.434 2620.44 676.434 2620.44 621.434ZM2634.19 717.684 2634.19 772.684 2620.44 772.684 2620.44 717.684ZM2634.19 813.934 2634.19 868.934 2620.44 868.934 2620.44 813.934ZM2634.19 910.184 2634.19 965.184 2620.44 965.184 2620.44 910.184ZM2634.19 1006.43 2634.19 1061.43 2620.44 1061.43 2620.44 1006.43ZM2634.19 1102.68 2634.19 1157.68 2620.44 1157.68 2620.44 1102.68ZM2634.19 1198.93 2634.19 1212.78 2620.44 1212.78 2620.44 1198.93ZM2647.94 1205.9 2627.32 1247.15 2606.69 1205.9Z"/><text fill="#91ACE0" font-family="Segoe UI Symbol,Segoe UI Symbol_MSFontService,sans-serif" font-weight="700" font-size="147" transform="matrix(1 0 0 1 310.228 1980)">❄</text><text fill="#91ACE0" font-family="Segoe UI Symbol,Segoe UI Symbol_MSFontService,sans-serif" font-weight="700" font-size="147" transform="matrix(1 0 0 1 2400.77 1582)">❄</text><text font-family="Microsoft YaHei,Microsoft YaHei_MSFontService,sans-serif" font-weight="400" font-size="73" transform="matrix(1 0 0 1 491.964 1955)">在训练时冻结梯度</text></g></svg>