<svg width="1210" height="793" xmlns="http://www.w3.org/2000/svg" xmlns:xlink="http://www.w3.org/1999/xlink" overflow="hidden"><g transform="translate(-73 94)"><path d="M1114 224.5C1114 212.074 1124.07 202 1136.5 202 1148.93 202 1159 212.074 1159 224.5 1159 236.926 1148.93 247 1136.5 247 1124.07 247 1114 236.926 1114 224.5Z" stroke="#C65F10" stroke-width="4" stroke-miterlimit="8" fill="#FFF2CA" fill-rule="evenodd"/><path d="M1114 309C1114 296.297 1124.07 286 1136.5 286 1148.93 286 1159 296.297 1159 309 1159 321.703 1148.93 332 1136.5 332 1124.07 332 1114 321.703 1114 309Z" stroke="#C65F10" stroke-width="4" stroke-miterlimit="8" fill="#FFF2CA" fill-rule="evenodd"/><path d="M1114 393.5C1114 381.074 1124.07 371 1136.5 371 1148.93 371 1159 381.074 1159 393.5 1159 405.926 1148.93 416 1136.5 416 1124.07 416 1114 405.926 1114 393.5Z" stroke="#C65F10" stroke-width="4" stroke-miterlimit="8" fill="#FFF2CA" fill-rule="evenodd"/><path d="M1114 478C1114 465.297 1124.07 455 1136.5 455 1148.93 455 1159 465.297 1159 478 1159 490.703 1148.93 501 1136.5 501 1124.07 501 1114 490.703 1114 478Z" stroke="#C65F10" stroke-width="4" stroke-miterlimit="8" fill="#FFF2CA" fill-rule="evenodd"/><path d="M547 257.168C547 231.118 568.118 210 594.168 210L832.832 210C858.882 210 880 231.118 880 257.168L880 445.832C880 471.882 858.882 493 832.832 493L594.168 493C568.118 493 547 471.882 547 445.832Z" stroke="#588E31" stroke-width="4" stroke-miterlimit="8" fill="#E3F2D9" fill-rule="evenodd"/><path d="M1235 351.5C1235 339.074 1245.07 329 1257.5 329 1269.93 329 1280 339.074 1280 351.5 1280 363.926 1269.93 374 1257.5 374 1245.07 374 1235 363.926 1235 351.5Z" stroke="#C65F10" stroke-width="4" stroke-miterlimit="8" fill="#FFF2CA" fill-rule="evenodd"/><path d="M0 0 5.3347 19.1069" stroke="#000000" stroke-width="4" stroke-linecap="round" stroke-linejoin="round" stroke-miterlimit="10" fill="none" fill-rule="evenodd" transform="matrix(1 0 0 -1 1255 361.107)"/><path d="M1242 361 1254.25 361" stroke="#000000" stroke-width="4" stroke-linecap="round" stroke-linejoin="round" stroke-miterlimit="10" fill="none" fill-rule="evenodd"/><path d="M1260 342 1272.25 342" stroke="#000000" stroke-width="4" stroke-linecap="round" stroke-linejoin="round" stroke-miterlimit="10" fill="none" fill-rule="evenodd"/><path d="M1160.72 222.976 1231.38 341.458 1227.95 343.507 1157.28 225.024ZM1233.79 337.692 1234.79 351.071 1223.49 343.839Z"/><path d="M1159.98 307.257 1227.05 344.954 1225.09 348.441 1158.02 310.743ZM1227.27 340.487 1234.79 351.597 1221.39 350.948Z"/><path d="M0.967266-1.75054 68.0031 35.2903 66.0686 38.7914-0.967266 1.75054ZM68.1871 30.8219 75.7886 41.8772 62.3835 41.3252Z" transform="matrix(1 0 0 -1 1159 393.877)"/><path d="M1.71775-1.02437 71.9447 116.738 68.5092 118.787-1.71775 1.02437ZM74.3559 112.972 75.3489 126.351 64.0494 119.118Z" transform="matrix(1 0 0 -1 1159 478.351)"/><path d="M497 350 537.269 350 537.269 354 497 354ZM535.269 346 547.269 352 535.269 358Z"/><path d="M75 307.334C75 295.551 84.5515 286 96.3338 286L219.666 286C231.449 286 241 295.551 241 307.334L241 392.666C241 404.449 231.449 414 219.666 414L96.3338 414C84.5515 414 75 404.449 75 392.666Z" stroke="#2E54A1" stroke-width="4" stroke-miterlimit="8" fill="#DAE3F5" fill-rule="evenodd"/><path d="M1042 223.5C1042 211.074 1052.07 201 1064.5 201 1076.93 201 1087 211.074 1087 223.5 1087 235.926 1076.93 246 1064.5 246 1052.07 246 1042 235.926 1042 223.5Z" stroke="#C65F10" stroke-width="4" stroke-miterlimit="8" stroke-dasharray="4 4" fill="#FFF2CA" fill-rule="evenodd"/><path d="M1042 308C1042 295.297 1052.07 285 1064.5 285 1076.93 285 1087 295.297 1087 308 1087 320.703 1076.93 331 1064.5 331 1052.07 331 1042 320.703 1042 308Z" stroke="#C65F10" stroke-width="4" stroke-miterlimit="8" stroke-dasharray="4 4" fill="#FFF2CA" fill-rule="evenodd"/><path d="M1042 392.5C1042 380.074 1052.07 370 1064.5 370 1076.93 370 1087 380.074 1087 392.5 1087 404.926 1076.93 415 1064.5 415 1052.07 415 1042 404.926 1042 392.5Z" stroke="#C65F10" stroke-width="4" stroke-miterlimit="8" stroke-dasharray="4 4" fill="#FFF2CA" fill-rule="evenodd"/><path d="M1043 476.5C1043 464.074 1053.07 454 1065.5 454 1077.93 454 1088 464.074 1088 476.5 1088 488.926 1077.93 499 1065.5 499 1053.07 499 1043 488.926 1043 476.5Z" stroke="#C65F10" stroke-width="4" stroke-miterlimit="8" stroke-dasharray="4 4" fill="#FFF2CA" fill-rule="evenodd"/><path d="M920 223.5C920 211.074 930.074 201 942.5 201 954.926 201 965 211.074 965 223.5 965 235.926 954.926 246 942.5 246 930.074 246 920 235.926 920 223.5Z" stroke="#C65F10" stroke-width="4" stroke-miterlimit="8" stroke-dasharray="4 4" fill="#FFF2CA" fill-rule="evenodd"/><path d="M920 308C920 295.297 930.074 285 942.5 285 954.926 285 965 295.297 965 308 965 320.703 954.926 331 942.5 331 930.074 331 920 320.703 920 308Z" stroke="#C65F10" stroke-width="4" stroke-miterlimit="8" stroke-dasharray="4 4" fill="#FFF2CA" fill-rule="evenodd"/><path d="M920 392.5C920 380.074 930.074 370 942.5 370 954.926 370 965 380.074 965 392.5 965 404.926 954.926 415 942.5 415 930.074 415 920 404.926 920 392.5Z" stroke="#C65F10" stroke-width="4" stroke-miterlimit="8" stroke-dasharray="4 4" fill="#FFF2CA" fill-rule="evenodd"/><path d="M920 476.5C920 464.074 930.297 454 943 454 955.703 454 966 464.074 966 476.5 966 488.926 955.703 499 943 499 930.297 499 920 488.926 920 476.5Z" stroke="#C65F10" stroke-width="4" stroke-miterlimit="8" stroke-dasharray="4 4" fill="#FFF2CA" fill-rule="evenodd"/><path d="M965 223 1041.93 307.474" stroke="#000000" stroke-width="4" stroke-miterlimit="8" stroke-dasharray="4 4" fill="none" fill-rule="evenodd"/><path d="M965 223 1041.93 223" stroke="#000000" stroke-width="4" stroke-miterlimit="8" stroke-dasharray="4 4" fill="none" fill-rule="evenodd"/><path d="M965 223 1041.93 391.948" stroke="#000000" stroke-width="4" stroke-miterlimit="8" stroke-dasharray="4 4" fill="none" fill-rule="evenodd"/><path d="M965 223 1042.37 476.423" stroke="#000000" stroke-width="4" stroke-miterlimit="8" stroke-dasharray="4 4" fill="none" fill-rule="evenodd"/><path d="M0 0 76.9307 84.4742" stroke="#000000" stroke-width="4" stroke-miterlimit="8" stroke-dasharray="4 4" fill="none" fill-rule="evenodd" transform="matrix(1 0 0 -1 965 307.474)"/><path d="M965 308 1041.93 308" stroke="#000000" stroke-width="4" stroke-miterlimit="8" stroke-dasharray="4 4" fill="none" fill-rule="evenodd"/><path d="M965 308 1041.93 392.474" stroke="#000000" stroke-width="4" stroke-miterlimit="8" stroke-dasharray="4 4" fill="none" fill-rule="evenodd"/><path d="M965 308 1042.37 476.948" stroke="#000000" stroke-width="4" stroke-miterlimit="8" stroke-dasharray="4 4" fill="none" fill-rule="evenodd"/><path d="M0 0 76.9307 168.948" stroke="#000000" stroke-width="4" stroke-miterlimit="8" stroke-dasharray="4 4" fill="none" fill-rule="evenodd" transform="matrix(1 0 0 -1 965 391.948)"/><path d="M0 0 76.9307 84.4742" stroke="#000000" stroke-width="4" stroke-miterlimit="8" stroke-dasharray="4 4" fill="none" fill-rule="evenodd" transform="matrix(1 0 0 -1 965 392.474)"/><path d="M965 392 1041.93 392" stroke="#000000" stroke-width="4" stroke-miterlimit="8" stroke-dasharray="4 4" fill="none" fill-rule="evenodd"/><path d="M965 392 1042.37 476.474" stroke="#000000" stroke-width="4" stroke-miterlimit="8" stroke-dasharray="4 4" fill="none" fill-rule="evenodd"/><path d="M0 0 76.491 253.423" stroke="#000000" stroke-width="4" stroke-miterlimit="8" stroke-dasharray="4 4" fill="none" fill-rule="evenodd" transform="matrix(1 0 0 -1 966 476.423)"/><path d="M0 0 76.491 168.948" stroke="#000000" stroke-width="4" stroke-miterlimit="8" stroke-dasharray="4 4" fill="none" fill-rule="evenodd" transform="matrix(1 0 0 -1 966 476.948)"/><path d="M0 0 69.1749 84.4742" stroke="#000000" stroke-width="4" stroke-miterlimit="8" stroke-dasharray="4 4" fill="none" fill-rule="evenodd" transform="matrix(1 0 0 -1 973 476.474)"/><path d="M966 477 1042.93 477" stroke="#000000" stroke-width="4" stroke-miterlimit="8" stroke-dasharray="4 4" fill="none" fill-rule="evenodd"/><path d="M441 224.5C441 212.074 451.297 202 464 202 476.703 202 487 212.074 487 224.5 487 236.926 476.703 247 464 247 451.297 247 441 236.926 441 224.5Z" stroke="#C65F10" stroke-width="4" stroke-miterlimit="8" fill="#FFF2CA" fill-rule="evenodd"/><path d="M441 309C441 296.297 451.297 286 464 286 476.703 286 487 296.297 487 309 487 321.703 476.703 332 464 332 451.297 332 441 321.703 441 309Z" stroke="#C65F10" stroke-width="4" stroke-miterlimit="8" fill="#FFF2CA" fill-rule="evenodd"/><path d="M441 393.5C441 381.074 451.297 371 464 371 476.703 371 487 381.074 487 393.5 487 405.926 476.703 416 464 416 451.297 416 441 405.926 441 393.5Z" stroke="#C65F10" stroke-width="4" stroke-miterlimit="8" fill="#FFF2CA" fill-rule="evenodd"/><path d="M442 478C442 465.297 452.074 455 464.5 455 476.926 455 487 465.297 487 478 487 490.703 476.926 501 464.5 501 452.074 501 442 490.703 442 478Z" stroke="#C65F10" stroke-width="4" stroke-miterlimit="8" fill="#FFF2CA" fill-rule="evenodd"/><path d="M319 224.5C319 212.074 329.074 202 341.5 202 353.926 202 364 212.074 364 224.5 364 236.926 353.926 247 341.5 247 329.074 247 319 236.926 319 224.5Z" stroke="#C65F10" stroke-width="4" stroke-miterlimit="8" fill="#FFF2CA" fill-rule="evenodd"/><path d="M319 309C319 296.297 329.074 286 341.5 286 353.926 286 364 296.297 364 309 364 321.703 353.926 332 341.5 332 329.074 332 319 321.703 319 309Z" stroke="#C65F10" stroke-width="4" stroke-miterlimit="8" fill="#FFF2CA" fill-rule="evenodd"/><path d="M319 393.5C319 381.074 329.074 371 341.5 371 353.926 371 364 381.074 364 393.5 364 405.926 353.926 416 341.5 416 329.074 416 319 405.926 319 393.5Z" stroke="#C65F10" stroke-width="4" stroke-miterlimit="8" fill="#FFF2CA" fill-rule="evenodd"/><path d="M320 478C320 465.297 330.074 455 342.5 455 354.926 455 365 465.297 365 478 365 490.703 354.926 501 342.5 501 330.074 501 320 490.703 320 478Z" stroke="#C65F10" stroke-width="4" stroke-miterlimit="8" fill="#FFF2CA" fill-rule="evenodd"/><path d="M364 224 440.931 308.474" stroke="#000000" stroke-width="4" stroke-miterlimit="8" fill="none" fill-rule="evenodd"/><path d="M364 224 440.931 224" stroke="#000000" stroke-width="4" stroke-miterlimit="8" fill="none" fill-rule="evenodd"/><path d="M364 224 440.931 392.948" stroke="#000000" stroke-width="4" stroke-miterlimit="8" fill="none" fill-rule="evenodd"/><path d="M364 224 441.37 477.423" stroke="#000000" stroke-width="4" stroke-miterlimit="8" fill="none" fill-rule="evenodd"/><path d="M0 0 76.9307 84.4742" stroke="#000000" stroke-width="4" stroke-miterlimit="8" fill="none" fill-rule="evenodd" transform="matrix(1 0 0 -1 364 308.474)"/><path d="M364 309 440.931 309" stroke="#000000" stroke-width="4" stroke-miterlimit="8" fill="none" fill-rule="evenodd"/><path d="M364 309 440.931 393.474" stroke="#000000" stroke-width="4" stroke-miterlimit="8" fill="none" fill-rule="evenodd"/><path d="M364 309 441.37 477.948" stroke="#000000" stroke-width="4" stroke-miterlimit="8" fill="none" fill-rule="evenodd"/><path d="M0 0 76.9307 168.948" stroke="#000000" stroke-width="4" stroke-miterlimit="8" fill="none" fill-rule="evenodd" transform="matrix(1 0 0 -1 364 392.948)"/><path d="M0 0 76.9307 84.4742" stroke="#000000" stroke-width="4" stroke-miterlimit="8" fill="none" fill-rule="evenodd" transform="matrix(1 0 0 -1 364 393.474)"/><path d="M364 393 440.931 393" stroke="#000000" stroke-width="4" stroke-miterlimit="8" fill="none" fill-rule="evenodd"/><path d="M364 393 441.37 477.474" stroke="#000000" stroke-width="4" stroke-miterlimit="8" fill="none" fill-rule="evenodd"/><path d="M0 0 76.491 253.423" stroke="#000000" stroke-width="4" stroke-miterlimit="8" fill="none" fill-rule="evenodd" transform="matrix(1 0 0 -1 365 477.423)"/><path d="M0 0 76.491 168.948" stroke="#000000" stroke-width="4" stroke-miterlimit="8" fill="none" fill-rule="evenodd" transform="matrix(1 0 0 -1 365 477.948)"/><path d="M0 0 69.1749 84.4742" stroke="#000000" stroke-width="4" stroke-miterlimit="8" fill="none" fill-rule="evenodd" transform="matrix(1 0 0 -1 372 477.474)"/><path d="M365 478 441.931 478" stroke="#000000" stroke-width="4" stroke-miterlimit="8" fill="none" fill-rule="evenodd"/><path d="M547-48.4991C547-72.524 566.476-92 590.501-92L836.499-92C860.524-92 880-72.524 880-48.4991L880 125.499C880 149.524 860.524 169 836.499 169L590.501 169C566.476 169 547 149.524 547 125.499Z" stroke="#588E31" stroke-width="4" stroke-miterlimit="8" stroke-dasharray="16 12" fill="#E3F2D9" fill-rule="evenodd"/><path d="M880 350 923.443 350 923.443 354 880 354ZM921.443 346 933.443 352 921.443 358Z"/><path d="M241 348 281.269 348 281.269 352 241 352ZM279.269 344 291.269 350 279.269 356Z"/><path d="M583-9.99955C583-20.4932 591.507-29 602-29L678-29C688.493-29 697-20.4932 697-9.99955L697 119C697 129.493 688.493 138 678 138L602 138C591.507 138 583 129.493 583 119Z" stroke="#588E31" stroke-width="4" stroke-miterlimit="8" stroke-dasharray="16 12" fill="#ACD78E" fill-rule="evenodd"/><path d="M732-10.1663C732-20.5679 740.432-29 750.834-29L826.166-29C836.568-29 845-20.5679 845-10.1663L845 119.166C845 129.568 836.568 138 826.166 138L750.834 138C740.432 138 732 129.568 732 119.166Z" stroke="#588E31" stroke-width="4" stroke-miterlimit="8" stroke-dasharray="16 12" fill="#ACD78E" fill-rule="evenodd"/><path d="M584 302C584 291.507 592.507 283 603 283L679 283C689.493 283 698 291.507 698 302L698 431C698 441.493 689.493 450 679 450L603 450C592.507 450 584 441.493 584 431Z" stroke="#588E31" stroke-width="4" stroke-miterlimit="8" fill="#ACD78E" fill-rule="evenodd"/><path d="M735 301.834C735 291.432 743.432 283 753.834 283L829.166 283C839.568 283 848 291.432 848 301.834L848 431.166C848 441.568 839.568 450 829.166 450L753.834 450C743.432 450 735 441.568 735 431.166Z" stroke="#588E31" stroke-width="4" stroke-miterlimit="8" fill="#ACD78E" fill-rule="evenodd"/><path d="M880 37 896 37 896 41 880 41ZM903.554 45.4464 903.554 61.4464 899.554 61.4464 899.554 45.4464ZM903.554 73.4464 903.554 89.4464 899.554 89.4464 899.554 73.4464ZM903.554 101.446 903.554 117.446 899.554 117.446 899.554 101.446ZM903.554 129.446 903.554 145.446 899.554 145.446 899.554 129.446ZM903.554 157.446 903.554 173.446 899.554 173.446 899.554 157.446ZM903.554 185.446 903.554 201.446 899.554 201.446 899.554 185.446ZM903.554 213.446 903.554 229.446 899.554 229.446 899.554 213.446ZM903.554 241.446 903.554 257.446 899.554 257.446 899.554 241.446ZM903.554 269.446 903.554 285.446 899.554 285.446 899.554 269.446ZM903.554 297.446 903.554 313.446 899.554 313.446 899.554 297.446ZM903.554 325.446 903.554 340.187 899.554 340.187 899.554 325.446ZM907.554 338.187 901.554 350.187 895.554 338.187Z"/><path d="M510 351.328 510 335.328 514 335.328 514 351.328ZM510 323.328 510 307.328 514 307.328 514 323.328ZM510 295.328 510 279.328 514 279.328 514 295.328ZM510 267.328 510 251.328 514 251.328 514 267.328ZM510 239.328 510 223.328 514 223.328 514 239.328ZM510 211.328 510 195.328 514 195.328 514 211.328ZM510 183.328 510 167.328 514 167.328 514 183.328ZM510 155.328 510 139.328 514 139.328 514 155.328ZM510 127.328 510 111.328 514 111.328 514 127.328ZM510 99.3276 510 83.3275 514 83.3275 514 99.3276ZM510 71.3275 510 55.3275 514 55.3275 514 71.3275ZM510 43.3275 510 37 523.672 37 523.672 41 512 41 514 39 514 43.3275ZM535.672 37 537.244 37 537.244 41 535.672 41ZM535.244 33 547.244 39 535.244 45Z"/><text font-family="Microsoft YaHei,Microsoft YaHei_MSFontService,sans-serif" font-weight="700" font-size="32" transform="translate(110.15 345)">卷积主</text><text font-family="Microsoft YaHei,Microsoft YaHei_MSFontService,sans-serif" font-weight="700" font-size="32" transform="translate(110.15 383)">干网络</text><text font-family="Microsoft YaHei,Microsoft YaHei_MSFontService,sans-serif" font-weight="700" font-size="32" transform="translate(322.938 555)">序列映射层</text><text font-family="Microsoft YaHei,Microsoft YaHei_MSFontService,sans-serif" font-weight="700" font-size="32" transform="translate(875.679 554)">分类头</text><text font-family="Microsoft YaHei,Microsoft YaHei_MSFontService,sans-serif" font-weight="700" font-size="32" transform="translate(971.679 554)">多层感知机</text><text font-family="Microsoft YaHei,Microsoft YaHei_MSFontService,sans-serif" font-weight="700" font-size="32" transform="matrix(6.12323e-17 -1 1 6.12323e-17 652.529 115)">BiLSTM</text><text font-family="Microsoft YaHei,Microsoft YaHei_MSFontService,sans-serif" font-weight="700" font-size="32" transform="matrix(6.12323e-17 -1 1 6.12323e-17 802.824 115)">BiLSTM</text><text font-family="Microsoft YaHei,Microsoft YaHei_MSFontService,sans-serif" font-weight="700" font-size="32" transform="matrix(6.12323e-17 -1 1 6.12323e-17 802.824 431)">BiLSTM</text><text font-family="Microsoft YaHei,Microsoft YaHei_MSFontService,sans-serif" font-weight="700" font-size="32" transform="matrix(6.12323e-17 -1 1 6.12323e-17 651.519 430)">BiLSTM</text><text font-family="Microsoft YaHei,Microsoft YaHei_MSFontService,sans-serif" font-weight="700" font-size="32" transform="translate(621.066 -52)">旁路</text><text font-family="Microsoft YaHei,Microsoft YaHei_MSFontService,sans-serif" font-weight="700" font-size="32" transform="translate(685.066 -52)">BiLSTM</text><text font-family="Microsoft YaHei,Microsoft YaHei_MSFontService,sans-serif" font-weight="700" font-size="32" transform="translate(591.432 258)">BiLSTM</text><text font-family="Microsoft YaHei,Microsoft YaHei_MSFontService,sans-serif" font-weight="700" font-size="32" transform="translate(712.432 258)">主干网络</text><text fill="#B6C7EA" font-family="Segoe UI Symbol,Segoe UI Symbol_MSFontService,sans-serif" font-weight="700" font-size="53" transform="translate(813.905 488)">❄</text><text fill="#B6C7EA" font-family="Segoe UI Symbol,Segoe UI Symbol_MSFontService,sans-serif" font-weight="700" font-size="53" transform="translate(134.484 654)">❄</text><text font-family="SimSun,SimSun_MSFontService,sans-serif" font-weight="700" font-size="32" transform="translate(218.378 650)">在训练时冻结梯度</text></g></svg>