<svg width="4207" height="1255" xmlns="http://www.w3.org/2000/svg" xmlns:xlink="http://www.w3.org/1999/xlink" xml:space="preserve" overflow="hidden"><g transform="translate(-100 -430)"><path d="M107 691.169C107 637.504 150.504 594 204.169 594L592.831 594C646.496 594 690 637.504 690 691.169L690 1401.83C690 1455.5 646.496 1499 592.831 1499L204.169 1499C150.504 1499 107 1455.5 107 1401.83Z" stroke="#2E54A1" stroke-width="13.75" stroke-miterlimit="8" fill="#DAE3F5" fill-rule="evenodd"/><path d="M212 744.834C212 719.52 232.521 699 257.834 699L543.166 699C568.479 699 589 719.52 589 744.834L589 928.166C589 953.479 568.479 974 543.166 974L257.834 974C232.521 974 212 953.479 212 928.166Z" stroke="#2E54A1" stroke-width="13.75" stroke-miterlimit="8" fill="#91ACE0" fill-rule="evenodd"/><path d="M212 1160.83C212 1135.52 232.521 1115 257.834 1115L543.166 1115C568.479 1115 589 1135.52 589 1160.83L589 1344.17C589 1369.48 568.479 1390 543.166 1390L257.834 1390C232.521 1390 212 1369.48 212 1344.17Z" stroke="#2E54A1" stroke-width="13.75" stroke-miterlimit="8" fill="#91ACE0" fill-rule="evenodd"/><text font-family="Microsoft YaHei,Microsoft YaHei_MSFontService,sans-serif" font-weight="700" font-size="110" transform="matrix(1 0 0 1 285.828 875)">STN</text><text font-family="Microsoft YaHei,Microsoft YaHei_MSFontService,sans-serif" font-weight="700" font-size="110" transform="matrix(1 0 0 1 296.427 1292)">TP</text><text font-family="Microsoft YaHei,Microsoft YaHei_MSFontService,sans-serif" font-weight="700" font-size="110" transform="matrix(1 0 0 1 437.365 1292)">S</text><path d="M1317 625.004C1317 521.172 1401.17 437 1505 437L3137 437C3240.83 437 3325 521.172 3325 625.004L3325 1377C3325 1480.83 3240.83 1565 3137 1565L1505 1565C1401.17 1565 1317 1480.83 1317 1377Z" stroke="#7F7F7F" stroke-width="13.75" stroke-miterlimit="8" stroke-dasharray="55 41.25" fill="none" fill-rule="evenodd"/><path d="M837 653.831C837 620.787 863.787 594 896.831 594L1136.14 594C1169.19 594 1195.97 620.787 1195.97 653.831L1195.97 1439.17C1195.97 1472.21 1169.19 1499 1136.14 1499L896.831 1499C863.787 1499 837 1472.21 837 1439.17Z" stroke="#B58B02" stroke-width="13.75" stroke-miterlimit="8" fill="#FFF2CA" fill-rule="evenodd"/><path d="M1533 737.5C1533 716.789 1549.79 700 1570.5 700L1720.5 700C1741.21 700 1758 716.789 1758 737.5L1758 1355.5C1758 1376.21 1741.21 1393 1720.5 1393L1570.5 1393C1549.79 1393 1533 1376.21 1533 1355.5Z" stroke="#588E31" stroke-width="13.75" stroke-miterlimit="8" fill="#E3F2D9" fill-rule="evenodd"/><path d="M1892 738.5C1892 717.789 1908.79 701 1929.5 701L2079.5 701C2100.21 701 2117 717.789 2117 738.5L2117 1356.5C2117 1377.21 2100.21 1394 2079.5 1394L1929.5 1394C1908.79 1394 1892 1377.21 1892 1356.5Z" stroke="#588E31" stroke-width="13.75" stroke-miterlimit="8" fill="#E3F2D9" fill-rule="evenodd"/><path d="M2423 736.501C2423 715.79 2439.79 699 2460.5 699L2610.5 699C2631.21 699 2648 715.79 2648 736.501L2648 1352.5C2648 1373.21 2631.21 1390 2610.5 1390L2460.5 1390C2439.79 1390 2423 1373.21 2423 1352.5Z" stroke="#588E31" stroke-width="13.75" stroke-miterlimit="8" fill="#ACD78E" fill-rule="evenodd"/><path d="M2910 736.334C2910 715.715 2926.72 699 2947.33 699L3096.67 699C3117.29 699 3134 715.715 3134 736.334L3134 1355.67C3134 1376.28 3117.29 1393 3096.67 1393L2947.33 1393C2926.72 1393 2910 1376.28 2910 1355.67Z" stroke="#588E31" stroke-width="13.75" stroke-miterlimit="8" fill="#ACD78E" fill-rule="evenodd"/><text font-family="Microsoft YaHei,Microsoft YaHei_MSFontService,sans-serif" font-weight="700" font-size="128" transform="matrix(6.12323e-17 -1 1 6.12323e-17 1060.66 1213)">Conv</text><path d="M690 1039.12 802.062 1039.13 802.062 1052.88 690 1052.88ZM795.187 1025.38 836.437 1046 795.187 1066.63Z"/><path d="M1196 1039.12 1499.19 1039.13 1499.19 1052.88 1196 1052.88ZM1492.31 1025.38 1533.56 1046 1492.31 1066.63Z"/><text font-family="Microsoft YaHei,Microsoft YaHei_MSFontService,sans-serif" font-weight="700" font-size="110" transform="matrix(6.12323e-17 -1 1 6.12323e-17 1685.99 1187)">Conv</text><text font-family="Microsoft YaHei,Microsoft YaHei_MSFontService,sans-serif" font-weight="700" font-size="110" transform="matrix(6.12323e-17 -1 1 6.12323e-17 2043.43 1349)">Batchnorm</text><path d="M1747.03 1039.13 1857.72 1039.66 1857.65 1053.41 1746.97 1052.87ZM1850.91 1025.88 1892.06 1046.7 1850.71 1067.13Z"/><path d="M0.0620208-6.87472 272.313-4.41858 272.189 9.33086-0.0620208 6.87472ZM265.563-18.23 306.625 2.76624 265.191 23.0183Z" transform="matrix(1 0 0 -1 2117 1046.77)"/><path d="M2648.04 1037.13 2874.91 1038.35 2874.84 1052.1 2647.96 1050.87ZM2868.11 1024.56 2909.25 1045.41 2867.89 1065.81Z"/><path d="M2252 1044 2252 1498.44" stroke="#000000" stroke-width="13.75" stroke-linecap="round" stroke-linejoin="round" stroke-miterlimit="10" fill="none" fill-rule="evenodd"/><path d="M0 0 547.25 2.76624" stroke="#000000" stroke-width="13.75" stroke-linecap="round" stroke-linejoin="round" stroke-miterlimit="10" fill="none" fill-rule="evenodd" transform="matrix(-1 0 0 1 2799.25 1496)"/><path d="M2792.13 1494.91 2792.13 1080.38C2792.13 1076.58 2795.2 1073.5 2799 1073.5 2802.8 1073.5 2805.88 1076.58 2805.88 1080.38L2805.88 1494.91C2805.88 1498.7 2802.8 1501.78 2799 1501.78 2795.2 1501.78 2792.13 1498.7 2792.13 1494.91ZM2778.38 1087.25 2799 1046 2819.63 1087.25Z"/><text font-family="Microsoft YaHei,Microsoft YaHei_MSFontService,sans-serif" font-weight="700" font-size="110" transform="matrix(6.12323e-17 -1 1 6.12323e-17 2574.87 1223)">BiGR</text><text font-family="Microsoft YaHei,Microsoft YaHei_MSFontService,sans-serif" font-weight="700" font-size="110" transform="matrix(6.12323e-17 -1 1 6.12323e-17 2574.87 955)">U</text><text font-family="Microsoft YaHei,Microsoft YaHei_MSFontService,sans-serif" font-weight="700" font-size="110" transform="matrix(6.12323e-17 -1 1 6.12323e-17 3060.93 1226)">BiGRU</text><path d="M3134 1039.12 3505.94 1039.13 3505.94 1052.88 3134 1052.88ZM3499.06 1025.38 3540.31 1046 3499.06 1066.63Z"/><path d="M1264 1053 1264 1677.77" stroke="#000000" stroke-width="13.75" stroke-linecap="round" stroke-linejoin="round" stroke-miterlimit="10" fill="none" fill-rule="evenodd"/><path d="M0 0 2205.5 3.80308" stroke="#000000" stroke-width="13.75" stroke-linecap="round" stroke-linejoin="round" stroke-miterlimit="10" fill="none" fill-rule="evenodd" transform="matrix(-1 0 0 1 3469.5 1674)"/><path d="M3462.13 1672.07 3462.12 1081.38C3462.12 1077.58 3465.2 1074.5 3469 1074.5 3472.8 1074.5 3475.88 1077.58 3475.88 1081.38L3475.88 1672.07C3475.88 1675.87 3472.8 1678.94 3469 1678.94 3465.2 1678.94 3462.13 1675.87 3462.13 1672.07ZM3448.38 1088.25 3469 1047 3489.62 1088.25Z"/><text font-family="Microsoft YaHei,Microsoft YaHei_MSFontService,sans-serif" font-weight="700" font-size="110" transform="matrix(1 0 0 1 1657.37 584)">Sequential Residual Block</text><text font-family="Microsoft YaHei,Microsoft YaHei_MSFontService,sans-serif" font-weight="700" font-size="128" transform="matrix(1 0 0 1 3036.75 1529)">×</text><text font-family="Microsoft YaHei,Microsoft YaHei_MSFontService,sans-serif" font-weight="700" font-size="128" transform="matrix(1 0 0 1 3134.72 1529)">2</text><text font-family="SimSun,SimSun_MSFontService,sans-serif" font-weight="700" font-size="92" transform="matrix(1 0 0 1 3586.06 1033)">输出浅层图像特</text><text font-family="SimSun,SimSun_MSFontService,sans-serif" font-weight="700" font-size="92" transform="matrix(1 0 0 1 3586.06 1143)">征和序列特征</text></g></svg>