<svg width="1280" height="720" xmlns="http://www.w3.org/2000/svg" xmlns:xlink="http://www.w3.org/1999/xlink" overflow="hidden"><defs><clipPath id="clip0"><rect x="271" y="324" width="76" height="76"/></clipPath><clipPath id="clip1"><rect x="271" y="324" width="76" height="76"/></clipPath><clipPath id="clip2"><rect x="271" y="324" width="76" height="76"/></clipPath></defs><g><rect x="0" y="0" width="1280" height="720" fill="#FFFFFF"/><path d="M413.5 479.667C413.5 471.291 420.291 464.5 428.667 464.5L489.333 464.5C497.71 464.5 504.5 471.291 504.5 479.667L504.5 548.333C504.5 556.71 497.71 563.5 489.333 563.5L428.667 563.5C420.291 563.5 413.5 556.71 413.5 548.333Z" stroke="#000000" stroke-width="3" stroke-miterlimit="8" fill="#E3F2D9" fill-rule="evenodd"/><path d="M411.5 172.834C411.5 164.365 418.365 157.5 426.834 157.5L488.166 157.5C496.635 157.5 503.5 164.365 503.5 172.834L503.5 241.166C503.5 249.635 496.635 256.5 488.166 256.5L426.834 256.5C418.365 256.5 411.5 249.635 411.5 241.166Z" stroke="#000000" stroke-width="3" stroke-miterlimit="8" fill="#DAE3F5" fill-rule="evenodd"/><text font-family="Calibri,Calibri_MSFontService,sans-serif" font-weight="700" font-size="32" transform="translate(421.444 524)">STISR</text><text font-family="Calibri,Calibri_MSFontService,sans-serif" font-weight="700" font-size="32" transform="translate(432.61 217)">STR</text><path d="M406.5 497.5C396.283 497.5 388 475.332 388 447.986L388 411.015C388 383.668 379.717 361.5 369.5 361.5 379.717 361.5 388 339.332 388 311.986L388 275.015C388 247.668 396.283 225.5 406.5 225.5" stroke="#000000" stroke-width="3" stroke-miterlimit="8" fill="none" fill-rule="evenodd"/><path d="M565.5 325.5C565.5 317.216 572.216 310.5 580.5 310.5L762.5 310.5C770.784 310.5 777.5 317.216 777.5 325.5L777.5 385.5C777.5 393.784 770.784 400.5 762.5 400.5L580.5 400.5C572.216 400.5 565.5 393.784 565.5 385.5Z" stroke="#000000" stroke-width="3" stroke-miterlimit="8" fill="#FADBDF" fill-rule="evenodd"/><text font-family="Calibri,Calibri_MSFontService,sans-serif" font-weight="700" font-size="32" transform="translate(630.697 347)">Image</text><text font-family="Calibri,Calibri_MSFontService,sans-serif" font-weight="700" font-size="32" transform="translate(596.69 385)">Generation</text><path d="M0.233353-1.48174 3.31966-0.995687 6.51388 0.482196 9.55198 2.78603 12.4435 5.82568 15.1954 9.53694 17.8041 13.8647 20.2586 18.7557 22.543 24.1562 24.6388 30.0117 26.5309 36.2832 29.5906 49.7525 31.5608 64.1644 32.2548 78.9749 32.9456 93.7187 32.9334 93.5857 34.8857 107.866 34.8623 107.737 37.8958 121.092 37.8691 120.991 39.7351 127.176 39.7113 127.103 41.78 132.883 41.7492 132.804 43.9981 138.121 43.9573 138.033 46.3638 142.828 46.3078 142.727 48.8496 146.943 48.7698 146.824 51.4242 150.404 51.3061 150.264 54.0506 153.149 53.6404 152.844 55.3375 153.701 53.9842 156.379 52.0557 155.404 49.0692 152.265 46.3173 148.553 43.7086 144.226 41.2541 139.335 38.9697 133.934 36.8739 128.079 34.9819 121.807 31.9222 108.338 29.952 93.9259 29.2581 79.1153 28.5672 64.3716 28.5794 64.5045 26.6271 50.2239 26.6505 50.353 23.617 36.9987 23.6436 37.0997 21.7777 30.9146 21.8015 30.9869 19.7328 25.2071 19.7635 25.286 17.5146 19.9693 17.5555 20.0578 15.1489 15.2622 15.2049 15.3638 12.6631 11.1471 12.7429 11.2662 10.0885 7.68637 10.2066 7.8268 7.46206 4.94172 7.64252 5.10308 4.83044 2.97064 5.10693 3.13678 2.2498 1.81486 2.64631 1.93524-0.233353 1.48174ZM55.1206 150.319 61.5126 158.09 51.4605 158.541Z" transform="matrix(1 0 0 -1 504.5 513.59)"/><path d="M819.5 424.334C819.5 416.141 826.141 409.5 834.334 409.5L1016.67 409.5C1024.86 409.5 1031.5 416.141 1031.5 424.334L1031.5 483.667C1031.5 491.859 1024.86 498.5 1016.67 498.5L834.334 498.5C826.141 498.5 819.5 491.859 819.5 483.667Z" stroke="#000000" stroke-width="3" stroke-miterlimit="8" fill="#FADBDF" fill-rule="evenodd"/><text font-family="Calibri,Calibri_MSFontService,sans-serif" font-weight="700" font-size="32" transform="translate(864.13 464)">SR Image</text><path d="M819.5 232.334C819.5 224.141 826.141 217.5 834.334 217.5L1016.67 217.5C1024.86 217.5 1031.5 224.141 1031.5 232.334L1031.5 291.667C1031.5 299.859 1024.86 306.5 1016.67 306.5L834.334 306.5C826.141 306.5 819.5 299.859 819.5 291.667Z" stroke="#000000" stroke-width="3" stroke-miterlimit="8" fill="#FADBDF" fill-rule="evenodd"/><text font-family="Calibri,Calibri_MSFontService,sans-serif" font-weight="700" font-size="32" transform="translate(884.297 253)">Image</text><text font-family="Calibri,Calibri_MSFontService,sans-serif" font-weight="700" font-size="32" transform="translate(891.256 291)">Text</text><text font-family="Calibri,Calibri_MSFontService,sans-serif" font-weight="700" font-size="32" transform="translate(945.823 291)">s</text><path d="M777.715 354.016 779.856 354.326 782.111 355.286 784.239 356.772 786.247 358.716 788.147 361.075 789.954 363.835 793.182 370.29 795.899 377.896 797.986 386.353 799.327 395.386 799.798 404.639 800.265 413.818 800.251 413.674 801.571 422.566 801.544 422.427 803.595 430.741 803.552 430.596 806.213 438.045 806.142 437.879 809.29 444.175 809.203 444.024 810.922 446.65 810.696 446.379 813.612 449.124 811.555 451.309 808.51 448.442 806.646 445.595 803.418 439.14 800.701 431.534 798.614 423.076 797.273 414.043 796.802 404.791 796.335 395.611 796.349 395.755 795.029 386.864 795.056 387.003 793.005 378.689 793.048 378.834 790.388 371.384 790.458 371.551 787.31 365.255 787.397 365.405 785.678 362.78 785.764 362.899 783.969 360.67 784.094 360.807 782.238 359.011 782.423 359.163 780.521 357.835 780.792 357.986 778.86 357.162 779.232 357.267 777.285 356.985ZM813.508 445.564 819.1 453.93 809.053 453.384Z"/><path d="M503.529 205 535.152 205.618 550.677 206.362 565.823 207.367 580.473 208.615 594.505 210.085 607.794 211.757 620.219 213.612 631.657 215.631 641.989 217.793 651.094 220.083 658.845 222.48 662.203 223.725 665.177 224.993 667.768 226.292 669.969 227.632 671.774 229.032 673.169 230.531 674.104 232.186 674.399 233.735 674.615 235.042 674.482 234.626 675.113 235.912 674.933 235.63 675.967 236.911 675.8 236.735 677.224 238.008 677.086 237.899 678.887 239.162 678.776 239.091 680.941 240.342 680.815 240.277 686.181 242.73 686.061 242.682 692.719 245.055 692.633 245.027 700.476 247.299 700.41 247.282 709.33 249.433 709.277 249.422 719.166 251.432 719.121 251.424 729.872 253.273 729.833 253.267 741.337 254.936 741.301 254.931 753.452 256.398 753.418 256.394 766.107 257.639 766.075 257.637 779.194 258.64 779.163 258.638 792.605 259.38 792.556 259.378 812.482 259.827 812.414 262.826 792.464 262.377 778.982 261.633 765.83 260.627 753.109 259.378 740.924 257.907 729.383 256.233 718.59 254.377 708.653 252.356 699.674 250.19 691.754 247.896 684.992 245.486 679.502 242.975 677.219 241.656 675.291 240.304 673.709 238.89 672.493 237.384 671.691 235.749 671.442 234.243 671.449 234.279 671.203 232.99 671.371 233.447 670.644 232.161 670.852 232.445 669.66 231.164 669.839 231.327 668.197 230.054 668.337 230.15 666.261 228.887 666.369 228.946 663.874 227.696 663.958 227.734 661.06 226.499 661.127 226.525 657.841 225.307 657.919 225.334 650.246 222.961 650.324 222.982 641.286 220.71 641.344 220.723 631.066 218.572 631.113 218.581 619.717 216.57 619.756 216.577 607.368 214.727 607.402 214.732 594.145 213.064 594.176 213.067 580.175 211.6 580.204 211.603 565.582 210.358 565.61 210.36 550.492 209.356 550.52 209.358 535.029 208.616 535.072 208.617 503.471 208ZM811.05 256.794 819.946 261.495 810.847 265.791Z"/><path d="M249.5 296.192C249.5 282.003 261.003 270.5 275.192 270.5L343.808 270.5C357.997 270.5 369.5 282.003 369.5 296.192L369.5 425.808C369.5 439.997 357.997 451.5 343.808 451.5L275.192 451.5C261.003 451.5 249.5 439.997 249.5 425.808Z" stroke="#000000" stroke-width="3" stroke-miterlimit="8" fill="#FCE6D5" fill-rule="evenodd"/><g clip-path="url(#clip0)"><g clip-path="url(#clip1)"><g clip-path="url(#clip2)"><path d="M9.85495-13.5297C9.96627-13.5297 10.1333-13.5854 10.356-13.6967 10.5788-13.808 10.885-13.8915 11.2747-13.9473 11.6645-14.003 11.9986-14.0308 12.2769-14.0308 13.0008-14.0308 13.6689-13.6689 14.2813-12.9451 14.8937-12.2212 15.3392-11.4139 15.6176-10.5231 16.1744-9.01978 17.1209-4.76044 18.4571 2.25495 19.7934 9.27033 21.074 15.9516 22.2989 22.2989 23.5238 28.6462 24.1363 31.8476 24.1363 31.9033L24.1363 32.1538 20.211 32.1538C17.5942 32.1538 16.2022 32.2096 16.0352 32.3209 15.8124 32.4879 15.7011 32.7663 15.7011 33.156L16.2857 35.4945C16.397 35.7729 16.6198 35.9121 16.9538 35.9121 17.2879 35.9121 18.5964 35.9399 20.8791 35.9956 23.5516 35.9956 24.8879 36.0234 24.8879 36.0791 24.8879 36.1904 25.1385 37.5824 25.6396 40.2549 26.1407 42.9275 26.4747 44.5421 26.6418 45.0989 28.7019 54.2857 32.7663 58.8791 38.8352 58.8791 40.8953 58.7678 42.5934 58.1553 43.9297 57.0418 45.2659 55.9282 45.9341 54.4527 45.9341 52.6154 45.9341 50.611 45.3495 49.1634 44.1802 48.2725 43.011 47.3817 41.8418 46.9085 40.6725 46.8527 38.2227 46.8527 36.9978 48.022 36.9978 50.3604 36.9978 51.4183 37.3041 52.337 37.9165 53.1165 38.5289 53.8959 39.197 54.4806 39.9209 54.8703L40.6725 55.2879C39.7817 55.622 38.9465 55.789 38.167 55.789 37.4989 55.789 36.8586 55.5107 36.2462 54.9538 35.6337 54.397 35.2161 53.6176 34.9934 52.6154 34.6036 51.0008 34.1582 48.8293 33.6571 46.1011 33.156 43.3729 32.7107 41.0623 32.3209 39.1692 31.9311 37.2762 31.7363 36.274 31.7363 36.1626 31.7363 36.0513 33.2674 35.9956 36.3297 35.9956 38.8352 35.9956 40.2828 35.9678 40.6725 35.9121 41.0623 35.8564 41.3685 35.6894 41.5912 35.411 41.6469 35.1883 41.5912 34.715 41.4242 33.9912 41.2571 33.2674 41.1179 32.822 41.0066 32.6549 40.8953 32.3766 40.6447 32.2374 40.2549 32.2374 39.8652 32.2374 38.3619 32.2096 35.7451 32.1538L31.0681 32.1538 29.1473 21.9648C26.4747 8.15678 24.6096-0.47326 23.5516-3.92527 22.0484-8.6579 20.0997-12.1656 17.7055-14.4484 15.6454-16.23 13.6132-17.1209 11.6088-17.1209 9.82713-17.1209 8.21245-16.592 6.76484-15.5341 5.31722-14.4762 4.59341-12.9729 4.59341-11.0242 4.59341-8.96408 5.17802-7.4608 6.34725-6.51429 7.51648-5.56777 8.68571-5.09451 9.85495-5.09451 12.3047-5.09451 13.5297-6.26374 13.5297-8.6022 13.5297-9.6601 13.2234-10.5788 12.611-11.3582 11.9986-12.1377 11.3304-12.7223 10.6066-13.1121L9.85495-13.5297Z" transform="matrix(1 0 0 -1 272.604 382.879)"/><path d="M2.06662 11.8092C2.06662 15.8244 2.83422 20.056 4.36942 24.5042 5.90462 28.9523 7.99089 32.7903 10.6283 36.0182 13.2657 39.246 16.0015 41.0961 18.8357 41.5685 18.8751 41.5685 19.0325 41.5685 19.3081 41.5685 19.5837 41.5685 19.8198 41.5882 20.0166 41.6275 22.1423 41.4701 23.7956 40.5057 24.9765 38.7343 26.5117 36.3724 27.2793 33.2036 27.2793 29.2278 27.2793 24.701 26.3936 20.0954 24.6222 15.411 22.8509 10.7267 20.5874 6.88874 17.8319 3.89705 15.0764 0.905372 12.4391-0.590462 9.91975-0.590462L9.50643-0.590462C8.08932-0.590462 6.86902-0.19682 5.84557 0.590462 4.8221 1.37774 4.0545 2.42089 3.54277 3.71991 3.03103 5.01892 2.65708 6.3376 2.42089 7.676 2.18471 9.0144 2.06662 10.3921 2.06662 11.8092ZM22.6147 33.4201C22.6147 37.4353 21.5715 39.4428 19.4852 39.4428 18.0681 39.4428 16.6904 38.5571 15.352 36.7858 14.0136 35.0144 12.9114 33.0068 12.0454 30.763 11.1794 28.5193 10.5102 26.5511 10.0378 24.8584 9.56548 23.1658 9.30963 22.1817 9.27025 21.9061 11.1991 21.8667 13.1082 21.8471 14.9977 21.8471L20.7252 21.9061C20.7646 21.9455 20.922 22.595 21.1976 23.8546 21.4731 25.1143 21.788 26.6889 22.1423 28.5783 22.4966 30.4678 22.6541 32.0817 22.6147 33.4201ZM6.67222 7.79409C6.67222 3.6215 7.71538 1.5352 9.80166 1.5352 10.3921 1.5352 11.022 1.73202 11.6911 2.12566 12.3603 2.5193 13.1673 3.26722 14.112 4.36942 15.0568 5.47161 16.0015 7.18397 16.9462 9.50643 17.891 11.8289 18.8357 14.7025 19.7805 18.1272L20.0757 19.131 8.56169 19.131C8.56169 19.0129 8.38455 18.2649 8.03028 16.8872 7.676 15.5095 7.36111 13.9743 7.08554 12.2816 6.80997 10.5889 6.67222 9.09311 6.67222 7.79409Z" transform="matrix(1 0 0 -1 313.527 395.407)"/></g></g></g><path d="M0.0931719-1.4971 5.6337-1.15229 11.2453-0.117256 16.819 1.57592 22.3421 3.90076 27.8044 6.83139 33.1963 10.343 38.5094 14.4117 43.7351 19.0145 48.8648 24.1293 53.8895 29.7341 58.8003 35.8075 63.5877 42.328 68.2421 49.2744 72.7538 56.6256 77.1127 64.3603 81.3144 72.4681 89.1722 89.6535 96.2607 108.046 102.491 127.465 107.78 147.74 112.041 168.701 115.191 190.179 117.144 212.003 117.814 233.971 118.022 255.896 118.021 255.869 118.629 277.606 118.628 277.58 119.607 298.975 119.606 298.948 120.931 319.829 120.929 319.802 122.574 339.997 122.571 339.97 124.508 359.308 124.505 359.278 126.708 377.588 126.704 377.555 129.146 394.665 129.142 394.638 130.445 402.69 130.441 402.669 131.794 410.357 131.79 410.334 133.189 417.636 133.184 417.611 134.626 424.506 134.62 424.478 136.102 430.944 136.095 430.912 137.613 436.929 137.603 436.892 139.155 442.437 139.142 442.393 140.724 447.445 140.707 447.392 142.315 451.931 142.29 451.865 143.922 455.868 143.886 455.786 145.538 459.231 145.377 458.97 147.982 462.383 145.598 464.203 142.899 460.667 141.161 457.042 139.499 452.966 137.87 448.368 136.273 443.267 134.709 437.682 133.182 431.631 131.693 425.134 130.245 418.213 128.841 410.888 127.485 403.179 126.178 395.103 123.732 377.963 121.525 359.622 119.585 340.255 117.938 320.032 116.611 299.125 115.63 277.703 115.022 255.939 114.814 234.016 114.814 234.047 114.147 212.138 114.152 212.226 112.207 190.488 112.217 190.572 109.079 169.177 109.093 169.259 104.848 148.378 104.867 148.458 99.5989 128.262 99.6221 128.342 93.4173 109.004 93.446 109.085 86.3893 90.7751 86.4248 90.8594 78.6014 73.7492 78.6338 73.8156 74.4612 65.764 74.4863 65.8102 70.1539 58.1228 70.1823 58.171 65.7009 50.8691 65.7332 50.9195 61.1134 44.0247 61.1504 44.0775 56.4028 37.6111 56.4455 37.6665 51.5807 31.6501 51.6303 31.7083 46.659 26.1632 46.7168 26.2241 41.6497 21.1717 41.7174 21.2351 36.5651 16.6969 36.6446 16.7622 31.4178 12.7596 31.5112 12.8256 26.2205 9.38001 26.3299 9.44484 20.986 6.57766 21.1132 6.63841 15.7267 4.37109 15.8726 4.42381 10.4542 2.77777 10.6181 2.81766 5.17833 1.81432 5.35724 1.83631-0.0931719 1.4971ZM148.449 458.849 152.627 468.003 142.797 465.853Z" transform="matrix(-1.83697e-16 -1 -1 1.83697e-16 925.503 409.127)"/></g></svg>