<svg width="1280" height="720" xmlns="http://www.w3.org/2000/svg" xmlns:xlink="http://www.w3.org/1999/xlink" overflow="hidden"><defs><clipPath id="clip0"><rect x="271" y="324" width="76" height="76"/></clipPath><clipPath id="clip1"><rect x="271" y="324" width="76" height="76"/></clipPath><clipPath id="clip2"><rect x="271" y="324" width="76" height="76"/></clipPath></defs><g><rect x="0" y="0" width="1280" height="720" fill="#FFFFFF"/><path d="M413.5 479.667C413.5 471.291 420.291 464.5 428.667 464.5L489.333 464.5C497.71 464.5 504.5 471.291 504.5 479.667L504.5 548.333C504.5 556.71 497.71 563.5 489.333 563.5L428.667 563.5C420.291 563.5 413.5 556.71 413.5 548.333Z" stroke="#000000" stroke-width="3" stroke-miterlimit="8" fill="#E3F2D9" fill-rule="evenodd"/><path d="M411.5 172.834C411.5 164.365 418.365 157.5 426.834 157.5L488.166 157.5C496.635 157.5 503.5 164.365 503.5 172.834L503.5 241.166C503.5 249.635 496.635 256.5 488.166 256.5L426.834 256.5C418.365 256.5 411.5 249.635 411.5 241.166Z" stroke="#000000" stroke-width="3" stroke-miterlimit="8" fill="#DAE3F5" fill-rule="evenodd"/><text font-family="Calibri,Calibri_MSFontService,sans-serif" font-weight="700" font-size="32" transform="translate(421.444 524)">STISR</text><text font-family="Calibri,Calibri_MSFontService,sans-serif" font-weight="700" font-size="32" transform="translate(432.61 217)">STR</text><path d="M406.5 497.5C396.283 497.5 388 475.332 388 447.986L388 411.015C388 383.668 379.717 361.5 369.5 361.5 379.717 361.5 388 339.332 388 311.986L388 275.015C388 247.668 396.283 225.5 406.5 225.5" stroke="#000000" stroke-width="3" stroke-miterlimit="8" fill="none" fill-rule="evenodd"/><path d="M565.5 325.5C565.5 317.216 572.216 310.5 580.5 310.5L762.5 310.5C770.784 310.5 777.5 317.216 777.5 325.5L777.5 385.5C777.5 393.784 770.784 400.5 762.5 400.5L580.5 400.5C572.216 400.5 565.5 393.784 565.5 385.5Z" stroke="#000000" stroke-width="3" stroke-miterlimit="8" fill="#FADBDF" fill-rule="evenodd"/><text font-family="Calibri,Calibri_MSFontService,sans-serif" font-weight="700" font-size="32" transform="translate(630.697 347)">Image</text><text font-family="Calibri,Calibri_MSFontService,sans-serif" font-weight="700" font-size="32" transform="translate(596.69 385)">Generation</text><path d="M0.233353-1.48174 3.31966-0.995687 6.51388 0.482196 9.55198 2.78603 12.4435 5.82568 15.1954 9.53694 17.8041 13.8647 20.2586 18.7557 22.543 24.1562 24.6388 30.0117 26.5309 36.2832 29.5906 49.7525 31.5608 64.1644 32.2548 78.9749 32.9456 93.7187 32.9334 93.5857 34.8857 107.866 34.8623 107.737 37.8958 121.092 37.8691 120.991 39.7351 127.176 39.7113 127.103 41.78 132.883 41.7492 132.804 43.9981 138.121 43.9573 138.033 46.3638 142.828 46.3078 142.727 48.8496 146.943 48.7698 146.824 51.4242 150.404 51.3061 150.264 54.0506 153.149 53.6404 152.844 55.3375 153.701 53.9842 156.379 52.0557 155.404 49.0692 152.265 46.3173 148.553 43.7086 144.226 41.2541 139.335 38.9697 133.934 36.8739 128.079 34.9819 121.807 31.9222 108.338 29.952 93.9259 29.2581 79.1153 28.5672 64.3716 28.5794 64.5045 26.6271 50.2239 26.6505 50.353 23.617 36.9987 23.6436 37.0997 21.7777 30.9146 21.8015 30.9869 19.7328 25.2071 19.7635 25.286 17.5146 19.9693 17.5555 20.0578 15.1489 15.2622 15.2049 15.3638 12.6631 11.1471 12.7429 11.2662 10.0885 7.68637 10.2066 7.8268 7.46206 4.94172 7.64252 5.10308 4.83044 2.97064 5.10693 3.13678 2.2498 1.81486 2.64631 1.93524-0.233353 1.48174ZM55.1206 150.319 61.5126 158.09 51.4605 158.541Z" transform="matrix(1 0 0 -1 504.5 513.59)"/><path d="M819.5 424.334C819.5 416.141 826.141 409.5 834.334 409.5L1016.67 409.5C1024.86 409.5 1031.5 416.141 1031.5 424.334L1031.5 483.667C1031.5 491.859 1024.86 498.5 1016.67 498.5L834.334 498.5C826.141 498.5 819.5 491.859 819.5 483.667Z" stroke="#000000" stroke-width="3" stroke-miterlimit="8" fill="#FADBDF" fill-rule="evenodd"/><text font-family="Calibri,Calibri_MSFontService,sans-serif" font-weight="700" font-size="32" transform="translate(864.13 464)">SR Image</text><path d="M819.5 232.334C819.5 224.141 826.141 217.5 834.334 217.5L1016.67 217.5C1024.86 217.5 1031.5 224.141 1031.5 232.334L1031.5 291.667C1031.5 299.859 1024.86 306.5 1016.67 306.5L834.334 306.5C826.141 306.5 819.5 299.859 819.5 291.667Z" stroke="#000000" stroke-width="3" stroke-miterlimit="8" fill="#FADBDF" fill-rule="evenodd"/><text font-family="Calibri,Calibri_MSFontService,sans-serif" font-weight="700" font-size="32" transform="translate(884.297 253)">Image</text><text font-family="Calibri,Calibri_MSFontService,sans-serif" font-weight="700" font-size="32" transform="translate(891.256 291)">Text</text><text font-family="Calibri,Calibri_MSFontService,sans-serif" font-weight="700" font-size="32" transform="translate(945.823 291)">s</text><path d="M777.715 354.016 779.856 354.326 782.111 355.286 784.239 356.772 786.247 358.716 788.147 361.075 789.954 363.835 793.182 370.29 795.899 377.896 797.986 386.353 799.327 395.386 799.798 404.639 800.265 413.818 800.251 413.674 801.571 422.566 801.544 422.427 803.595 430.741 803.552 430.596 806.213 438.045 806.142 437.879 809.29 444.175 809.203 444.024 810.922 446.65 810.696 446.379 813.612 449.124 811.555 451.309 808.51 448.442 806.646 445.595 803.418 439.14 800.701 431.534 798.614 423.076 797.273 414.043 796.802 404.791 796.335 395.611 796.349 395.755 795.029 386.864 795.056 387.003 793.005 378.689 793.048 378.834 790.388 371.384 790.458 371.551 787.31 365.255 787.397 365.405 785.678 362.78 785.764 362.899 783.969 360.67 784.094 360.807 782.238 359.011 782.423 359.163 780.521 357.835 780.792 357.986 778.86 357.162 779.232 357.267 777.285 356.985ZM813.508 445.564 819.1 453.93 809.053 453.384Z"/><path d="M0.204878-1.48594 2.33744-1.19191 4.5832-0.28223 6.70995 1.12971 8.7219 2.98137 10.6257 5.22917 12.4377 7.86093 15.6713 14.0101 18.393 21.2561 20.4831 29.3114 21.8266 37.9153 22.2979 46.7208 22.7651 55.4503 22.7493 55.299 24.0696 63.7542 24.0395 63.6089 26.091 71.5157 26.0433 71.365 28.7042 78.4491 28.6276 78.2785 31.7761 84.2657 31.6839 84.1132 33.4029 86.6098 33.164 86.3394 36.0189 88.8776 34.0256 91.1196 31.0349 88.4607 29.1623 85.741 25.9288 79.5918 23.207 72.3458 21.117 64.2905 19.7734 55.6866 19.3022 46.8811 18.835 38.1516 18.8508 38.3029 17.5305 29.8477 17.5606 29.993 15.5091 22.0862 15.5568 22.2369 12.8958 15.1527 12.9724 15.3234 9.82396 9.33621 9.91611 9.48872 8.19717 6.99213 8.28801 7.11092 6.49289 4.9914 6.62174 5.12567 4.76568 3.41748 4.95181 3.56344 3.05004 2.30086 3.31654 2.44147 1.38431 1.65878 1.74259 1.75445-0.204878 1.48594ZM35.8687 85.3313 41.6 93.6019 31.5448 93.2246Z" transform="matrix(1 0 0 -1 777.5 355.102)"/><path d="M503.715 205.016 506.85 205.47 510.092 206.85 513.191 209.012 516.148 211.871 518.964 215.366 521.635 219.442 524.147 224.048 526.485 229.133 528.63 234.645 530.566 240.551 533.696 253.226 535.712 266.791 536.421 280.722 537.127 294.581 537.113 294.437 539.107 307.86 539.08 307.721 542.179 320.273 542.148 320.165 544.055 325.979 544.027 325.902 546.141 331.335 546.106 331.252 548.403 336.25 548.357 336.158 550.816 340.666 550.754 340.562 553.351 344.525 553.264 344.406 555.976 347.771 555.851 347.634 558.655 350.346 558.252 350.067 560.04 350.912 558.76 353.625 556.747 352.674 553.698 349.726 550.882 346.231 548.211 342.155 545.699 337.549 543.361 332.465 541.217 326.952 539.28 321.047 536.15 308.371 534.135 294.806 533.425 280.875 532.719 267.016 532.734 267.161 530.739 253.738 530.766 253.877 527.667 241.324 527.698 241.432 525.792 235.618 525.819 235.695 523.705 230.262 523.74 230.345 521.443 225.348 521.489 225.439 519.03 220.932 519.092 221.035 516.495 217.072 516.582 217.191 513.87 213.826 513.995 213.963 511.191 211.251 511.376 211.403 508.503 209.399 508.774 209.549 505.855 208.306 506.227 208.411 503.285 207.985ZM559.708 347.535 566.346 355.097 556.313 355.87Z"/><path d="M249.5 296.192C249.5 282.003 261.003 270.5 275.192 270.5L343.808 270.5C357.997 270.5 369.5 282.003 369.5 296.192L369.5 425.808C369.5 439.997 357.997 451.5 343.808 451.5L275.192 451.5C261.003 451.5 249.5 439.997 249.5 425.808Z" stroke="#000000" stroke-width="3" stroke-miterlimit="8" fill="#FCE6D5" fill-rule="evenodd"/><g clip-path="url(#clip0)"><g clip-path="url(#clip1)"><g clip-path="url(#clip2)"><path d="M9.85495-13.5297C9.96627-13.5297 10.1333-13.5854 10.356-13.6967 10.5788-13.808 10.885-13.8915 11.2747-13.9473 11.6645-14.003 11.9986-14.0308 12.2769-14.0308 13.0008-14.0308 13.6689-13.6689 14.2813-12.9451 14.8937-12.2212 15.3392-11.4139 15.6176-10.5231 16.1744-9.01978 17.1209-4.76044 18.4571 2.25495 19.7934 9.27033 21.074 15.9516 22.2989 22.2989 23.5238 28.6462 24.1363 31.8476 24.1363 31.9033L24.1363 32.1538 20.211 32.1538C17.5942 32.1538 16.2022 32.2096 16.0352 32.3209 15.8124 32.4879 15.7011 32.7663 15.7011 33.156L16.2857 35.4945C16.397 35.7729 16.6198 35.9121 16.9538 35.9121 17.2879 35.9121 18.5964 35.9399 20.8791 35.9956 23.5516 35.9956 24.8879 36.0234 24.8879 36.0791 24.8879 36.1904 25.1385 37.5824 25.6396 40.2549 26.1407 42.9275 26.4747 44.5421 26.6418 45.0989 28.7019 54.2857 32.7663 58.8791 38.8352 58.8791 40.8953 58.7678 42.5934 58.1553 43.9297 57.0418 45.2659 55.9282 45.9341 54.4527 45.9341 52.6154 45.9341 50.611 45.3495 49.1634 44.1802 48.2725 43.011 47.3817 41.8418 46.9085 40.6725 46.8527 38.2227 46.8527 36.9978 48.022 36.9978 50.3604 36.9978 51.4183 37.3041 52.337 37.9165 53.1165 38.5289 53.8959 39.197 54.4806 39.9209 54.8703L40.6725 55.2879C39.7817 55.622 38.9465 55.789 38.167 55.789 37.4989 55.789 36.8586 55.5107 36.2462 54.9538 35.6337 54.397 35.2161 53.6176 34.9934 52.6154 34.6036 51.0008 34.1582 48.8293 33.6571 46.1011 33.156 43.3729 32.7107 41.0623 32.3209 39.1692 31.9311 37.2762 31.7363 36.274 31.7363 36.1626 31.7363 36.0513 33.2674 35.9956 36.3297 35.9956 38.8352 35.9956 40.2828 35.9678 40.6725 35.9121 41.0623 35.8564 41.3685 35.6894 41.5912 35.411 41.6469 35.1883 41.5912 34.715 41.4242 33.9912 41.2571 33.2674 41.1179 32.822 41.0066 32.6549 40.8953 32.3766 40.6447 32.2374 40.2549 32.2374 39.8652 32.2374 38.3619 32.2096 35.7451 32.1538L31.0681 32.1538 29.1473 21.9648C26.4747 8.15678 24.6096-0.47326 23.5516-3.92527 22.0484-8.6579 20.0997-12.1656 17.7055-14.4484 15.6454-16.23 13.6132-17.1209 11.6088-17.1209 9.82713-17.1209 8.21245-16.592 6.76484-15.5341 5.31722-14.4762 4.59341-12.9729 4.59341-11.0242 4.59341-8.96408 5.17802-7.4608 6.34725-6.51429 7.51648-5.56777 8.68571-5.09451 9.85495-5.09451 12.3047-5.09451 13.5297-6.26374 13.5297-8.6022 13.5297-9.6601 13.2234-10.5788 12.611-11.3582 11.9986-12.1377 11.3304-12.7223 10.6066-13.1121L9.85495-13.5297Z" transform="matrix(1 0 0 -1 272.604 382.879)"/><path d="M2.06662 11.8092C2.06662 15.8244 2.83422 20.056 4.36942 24.5042 5.90462 28.9523 7.99089 32.7903 10.6283 36.0182 13.2657 39.246 16.0015 41.0961 18.8357 41.5685 18.8751 41.5685 19.0325 41.5685 19.3081 41.5685 19.5837 41.5685 19.8198 41.5882 20.0166 41.6275 22.1423 41.4701 23.7956 40.5057 24.9765 38.7343 26.5117 36.3724 27.2793 33.2036 27.2793 29.2278 27.2793 24.701 26.3936 20.0954 24.6222 15.411 22.8509 10.7267 20.5874 6.88874 17.8319 3.89705 15.0764 0.905372 12.4391-0.590462 9.91975-0.590462L9.50643-0.590462C8.08932-0.590462 6.86902-0.19682 5.84557 0.590462 4.8221 1.37774 4.0545 2.42089 3.54277 3.71991 3.03103 5.01892 2.65708 6.3376 2.42089 7.676 2.18471 9.0144 2.06662 10.3921 2.06662 11.8092ZM22.6147 33.4201C22.6147 37.4353 21.5715 39.4428 19.4852 39.4428 18.0681 39.4428 16.6904 38.5571 15.352 36.7858 14.0136 35.0144 12.9114 33.0068 12.0454 30.763 11.1794 28.5193 10.5102 26.5511 10.0378 24.8584 9.56548 23.1658 9.30963 22.1817 9.27025 21.9061 11.1991 21.8667 13.1082 21.8471 14.9977 21.8471L20.7252 21.9061C20.7646 21.9455 20.922 22.595 21.1976 23.8546 21.4731 25.1143 21.788 26.6889 22.1423 28.5783 22.4966 30.4678 22.6541 32.0817 22.6147 33.4201ZM6.67222 7.79409C6.67222 3.6215 7.71538 1.5352 9.80166 1.5352 10.3921 1.5352 11.022 1.73202 11.6911 2.12566 12.3603 2.5193 13.1673 3.26722 14.112 4.36942 15.0568 5.47161 16.0015 7.18397 16.9462 9.50643 17.891 11.8289 18.8357 14.7025 19.7805 18.1272L20.0757 19.131 8.56169 19.131C8.56169 19.0129 8.38455 18.2649 8.03028 16.8872 7.676 15.5095 7.36111 13.9743 7.08554 12.2816 6.80997 10.5889 6.67222 9.09311 6.67222 7.79409Z" transform="matrix(1 0 0 -1 313.527 395.407)"/></g></g></g></g></svg>