<svg width="1280" height="720" xmlns="http://www.w3.org/2000/svg" xmlns:xlink="http://www.w3.org/1999/xlink" overflow="hidden"><defs><clipPath id="clip0"><rect x="77" y="299" width="116" height="129"/></clipPath><clipPath id="clip1"><rect x="77" y="299" width="116" height="129"/></clipPath><clipPath id="clip2"><rect x="77" y="299" width="116" height="129"/></clipPath></defs><g><rect x="0" y="0" width="1280" height="720" fill="#FFFFFF"/><path d="M293 560.167C293 547.372 303.372 537 316.167 537L408.833 537C421.628 537 432 547.372 432 560.167L432 682.833C432 695.628 421.628 706 408.833 706L316.167 706C303.372 706 293 695.628 293 682.833Z" stroke="#000000" stroke-width="4" stroke-miterlimit="8" fill="#E3F2D9" fill-rule="evenodd"/><path d="M291 37.1671C291 24.3723 301.372 14 314.167 14L406.833 14C419.628 14 430 24.3723 430 37.1671L430 159.833C430 172.628 419.628 183 406.833 183L314.167 183C301.372 183 291 172.628 291 159.833Z" stroke="#000000" stroke-width="4" stroke-miterlimit="8" fill="#DAE3F5" fill-rule="evenodd"/><text font-family="Calibri,Calibri_MSFontService,sans-serif" font-weight="700" font-size="53" transform="translate(301.681 634)">STISR</text><text font-family="Calibri,Calibri_MSFontService,sans-serif" font-weight="700" font-size="53" transform="translate(320.332 112)">STR</text><path d="M283 593C267.536 593 255 559.448 255 518.06L255 435.94C255 394.552 242.464 361 227 361 242.464 361 255 327.448 255 286.06L255 203.94C255 162.552 267.536 129 283 129" stroke="#000000" stroke-width="4" stroke-miterlimit="8" fill="none" fill-rule="evenodd"/><path d="M526 300.501C526 286.417 537.417 275 551.501 275L823.499 275C837.583 275 849 286.417 849 300.501L849 402.499C849 416.583 837.583 428 823.499 428L551.501 428C537.417 428 526 416.583 526 402.499Z" stroke="#000000" stroke-width="4" stroke-miterlimit="8" fill="#FADBDF" fill-rule="evenodd"/><text font-family="Calibri,Calibri_MSFontService,sans-serif" font-weight="700" font-size="53" transform="translate(620.111 338)">Image</text><text font-family="Calibri,Calibri_MSFontService,sans-serif" font-weight="700" font-size="53" transform="translate(563.324 402)">Generation</text><path d="M0.174105-1.99241 2.53969-1.78569 5.10722-1.12076 9.86278 1.29763 14.4527 5.12329 18.8265 10.1769 22.9961 16.3576 26.9548 23.5758 30.6835 31.7424 34.1565 40.7668 37.3445 50.5568 40.2161 61.0189 42.7389 72.0589 44.8794 83.5819 46.6041 95.4926 47.8788 107.696 48.669 120.095 48.9392 132.552 49.2085 144.967 49.2049 144.883 49.9899 157.2 49.9832 157.12 51.2495 169.243 51.2397 169.164 52.9529 180.996 52.9399 180.917 55.0657 192.361 55.0491 192.281 57.5531 203.238 57.532 203.155 60.3798 213.53 60.3528 213.44 63.51 223.135 63.4749 223.036 66.9071 231.955 66.8599 231.842 70.5328 239.887 70.4671 239.756 74.3462 246.829 74.2506 246.672 78.3017 252.677 78.156 252.487 82.3446 257.326 81.9207 256.957 85.8153 259.484 83.6386 262.84 79.5058 260.159 75.0529 255.014 70.8832 248.833 66.9246 241.615 63.1959 233.448 59.7229 224.424 56.5349 214.634 53.6632 204.172 51.1405 193.132 48.9999 181.609 47.2753 169.698 46.0006 157.495 45.2104 145.095 44.9402 132.639 44.6709 120.224 44.6744 120.308 43.8894 107.99 43.8962 108.071 42.6299 95.9477 42.6397 96.0265 40.9264 84.1946 40.9394 84.2733 38.8136 72.8298 38.8303 72.91 36.3263 61.9522 36.3473 62.036 33.4996 51.6608 33.5265 51.7507 30.3693 42.0553 30.4045 42.1544 26.9723 33.2359 27.0195 33.3482 23.3466 25.3038 23.4123 25.4349 19.5331 18.3616 19.6287 18.5184 15.5777 12.5134 15.7234 12.7037 11.5348 7.86415 11.7666 8.09164 7.47484 4.51454 7.84877 4.76094 3.48828 2.54346 3.89345 2.69687 1.69817 2.12833 2.02548 2.18462-0.174105 1.99241ZM85.3139 254.864 93.8794 265.191 80.479 265.847Z" transform="matrix(1 0 0 -1 432 617.191)"/><path d="M913 468.501C913 454.417 924.417 443 938.501 443L1210.5 443C1224.58 443 1236 454.417 1236 468.501L1236 570.499C1236 584.583 1224.58 596 1210.5 596L938.501 596C924.417 596 913 584.583 913 570.499Z" stroke="#000000" stroke-width="4" stroke-miterlimit="8" fill="#FADBDF" fill-rule="evenodd"/><text font-family="Calibri,Calibri_MSFontService,sans-serif" font-weight="700" font-size="53" transform="translate(973.313 537)">SR Image</text><path d="M913 141.501C913 127.417 924.417 116 938.501 116L1210.5 116C1224.58 116 1236 127.417 1236 141.501L1236 243.499C1236 257.583 1224.58 269 1210.5 269L938.501 269C924.417 269 913 257.583 913 243.499Z" stroke="#000000" stroke-width="4" stroke-miterlimit="8" fill="#FADBDF" fill-rule="evenodd"/><text font-family="Calibri,Calibri_MSFontService,sans-serif" font-weight="700" font-size="53" transform="translate(1006.9 178)">Image</text><text font-family="Calibri,Calibri_MSFontService,sans-serif" font-weight="700" font-size="53" transform="translate(1018.58 242)">Text</text><text font-family="Calibri,Calibri_MSFontService,sans-serif" font-weight="700" font-size="53" transform="translate(1109.31 242)">s</text><path d="M849.32 350.026 852.572 350.552 855.974 352.171 859.176 354.668 862.199 357.936 865.064 361.909 867.772 366.529 870.316 371.741 872.681 377.49 874.849 383.72 876.807 390.393 879.969 404.707 882.005 420.024 882.722 435.749 883.434 451.387 883.419 451.215 885.433 466.362 885.403 466.194 888.532 480.358 888.498 480.227 890.423 486.787 890.393 486.693 892.526 492.823 892.487 492.72 894.807 498.359 894.754 498.242 897.237 503.329 897.165 503.195 899.786 507.667 899.683 507.509 902.421 511.306 902.025 510.895 904.968 513.179 902.516 516.339 899.345 513.879 896.383 509.771 893.675 505.152 891.132 499.939 888.767 494.19 886.599 487.961 884.641 481.287 881.479 466.973 879.442 451.656 878.726 435.931 878.013 420.293 878.029 420.466 876.015 405.319 876.045 405.487 872.916 391.322 872.949 391.454 871.025 384.893 871.055 384.988 868.921 378.858 868.96 378.961 866.641 373.322 866.693 373.438 864.211 368.352 864.283 368.486 861.661 364.013 861.764 364.172 859.026 360.375 859.18 360.563 856.35 357.503 856.588 357.722 853.687 355.46 854.058 355.689 851.111 354.287 851.651 354.455 848.68 353.974ZM904.954 508.552 912.447 519.68 899.048 518.998Z"/><path d="M430.32 96.0257 435.088 96.7974 439.996 99.1307 444.679 102.78 449.148 107.608 453.411 113.516 457.458 120.415 461.27 128.22 464.82 136.844 468.078 146.198 471.012 156.193 473.59 166.74 475.777 177.748 477.539 189.127 478.842 200.784 479.649 212.63 479.925 224.526 480.2 236.376 480.196 236.287 480.998 248.045 480.99 247.959 482.283 259.531 482.272 259.447 484.021 270.742 484.006 270.658 486.177 281.581 486.158 281.496 488.714 291.956 488.69 291.868 491.598 301.772 491.568 301.677 494.791 310.932 494.752 310.829 498.256 319.342 498.204 319.226 501.954 326.905 501.882 326.771 505.843 333.522 505.739 333.364 509.876 339.096 509.721 338.908 513.998 343.528 513.572 343.179 517.635 345.658 515.551 349.072 511.251 346.449 506.703 341.536 502.44 335.628 498.393 328.729 494.582 320.924 491.032 312.3 487.774 302.946 484.84 292.951 482.262 282.404 480.074 271.396 478.312 260.017 477.01 248.36 476.202 236.514 475.926 224.618 475.651 212.768 475.656 212.857 474.854 201.099 474.862 201.185 473.569 189.613 473.58 189.697 471.831 178.402 471.846 178.486 469.675 167.562 469.694 167.648 467.137 157.187 467.161 157.276 464.254 147.372 464.284 147.467 461.06 138.212 461.1 138.315 457.595 129.802 457.648 129.918 453.897 122.239 453.97 122.373 450.009 115.621 450.112 115.78 445.976 110.048 446.13 110.236 441.854 105.616 442.092 105.835 437.71 102.421 438.081 102.649 433.628 100.532 434.168 100.7 429.68 99.9743ZM517.008 341.054 525.851 351.144 512.474 352.164Z"/><path d="M44 246.18C44 224.542 61.5416 207 83.1803 207L187.82 207C209.458 207 227 224.542 227 246.18L227 476.82C227 498.458 209.458 516 187.82 516L83.1803 516C61.5416 516 44 498.458 44 476.82Z" stroke="#000000" stroke-width="4" stroke-miterlimit="8" fill="#FCE6D5" fill-rule="evenodd"/><g clip-path="url(#clip0)"><g clip-path="url(#clip1)"><g clip-path="url(#clip2)"><path d="M15.0418-20.6506C15.2117-20.6506 15.4666-20.7356 15.8066-20.9055 16.1466-21.0754 16.6139-21.2029 17.2088-21.2879 17.8037-21.3729 18.3136-21.4154 18.7385-21.4154 19.8433-21.4154 20.863-20.863 21.7978-19.7582 22.7326-18.6534 23.4125-17.4213 23.8374-16.0615 24.6872-13.767 26.1319-7.26593 28.1714 3.44176 30.211 14.1495 32.1655 24.3473 34.0352 34.0352 35.9048 43.7231 36.8396 48.6095 36.8396 48.6945L36.8396 49.0769 30.8484 49.0769C26.8543 49.0769 24.7297 49.1619 24.4747 49.3319 24.1348 49.5868 23.9648 50.0117 23.9648 50.6066L24.8571 54.1758C25.0271 54.6007 25.367 54.8132 25.8769 54.8132 26.3868 54.8132 28.3839 54.8556 31.8681 54.9407 35.9473 54.9407 37.9868 54.9831 37.9868 55.0681 37.9868 55.2381 38.3692 57.3626 39.1341 61.4418 39.8989 65.5209 40.4088 67.9853 40.6637 68.8352 43.8081 82.8571 50.0117 89.8681 59.2747 89.8681 62.4191 89.6982 65.011 88.7633 67.0506 87.0637 69.0901 85.3642 70.1099 83.1121 70.1099 80.3077 70.1099 77.2484 69.2176 75.0389 67.433 73.6791 65.6484 72.3194 63.8637 71.5971 62.0791 71.5121 58.34 71.5121 56.4703 73.2967 56.4703 76.8659 56.4703 78.4806 56.9378 79.8828 57.8725 81.0725 58.8073 82.2622 59.8271 83.1545 60.9319 83.7495L62.0791 84.3868C60.7194 84.8967 59.4446 85.1516 58.2549 85.1516 57.2352 85.1516 56.2578 84.7268 55.3231 83.8769 54.3883 83.0271 53.751 81.8374 53.411 80.3077 52.8161 77.8433 52.1363 74.529 51.3714 70.3648 50.6066 66.2007 49.9268 62.674 49.3319 59.7846 48.737 56.8952 48.4396 55.3655 48.4396 55.1956 48.4396 55.0257 50.7765 54.9407 55.4506 54.9407 59.2747 54.9407 61.4842 54.8982 62.0791 54.8132 62.674 54.7282 63.1414 54.4732 63.4813 54.0484 63.5663 53.7084 63.4813 52.9861 63.2264 51.8813 62.9714 50.7765 62.7589 50.0967 62.589 49.8418 62.4191 49.4169 62.0367 49.2044 61.4418 49.2044 60.8468 49.2044 58.5523 49.1619 54.5582 49.0769L47.4198 49.0769 44.4879 33.5253C40.4088 12.4498 37.5619-0.722345 35.9473-5.99121 33.6527-13.2147 30.6784-18.5685 27.0242-22.0527 23.8798-24.7721 20.778-26.1319 17.7187-26.1319 14.9993-26.1319 12.5348-25.3246 10.3253-23.7099 8.11576-22.0952 7.01099-19.8007 7.01099-16.8264 7.01099-13.682 7.9033-11.3875 9.68791-9.94286 11.4725-8.49817 13.2571-7.77582 15.0418-7.77582 18.7809-7.77582 20.6506-9.56044 20.6506-13.1297 20.6506-14.7444 20.1831-16.1466 19.2484-17.3363 18.3136-18.526 17.2938-19.4183 16.189-20.0132L15.0418-20.6506Z" transform="matrix(1 0 0 -1.11207 79.4475 398.94)"/><path d="M3.15431 18.0246C3.15431 24.153 4.32591 30.6118 6.66911 37.4011 9.01231 44.1903 12.1966 50.0483 16.2222 54.9751 20.2477 59.9018 24.4234 62.7257 28.7493 63.4466 28.8094 63.4466 29.0496 63.4466 29.4702 63.4466 29.8909 63.4466 30.2513 63.4767 30.5517 63.5368 33.7962 63.2964 36.3196 61.8244 38.1221 59.1207 40.4653 55.5158 41.6369 50.6792 41.6369 44.6109 41.6369 37.7015 40.285 30.6719 37.5813 23.5221 34.8776 16.3724 31.4229 10.5144 27.2172 5.94812 23.0114 1.38188 18.986-0.901231 15.1407-0.901231L14.5098-0.901231C12.3469-0.901231 10.4843-0.30041 8.92218 0.901231 7.36005 2.10287 6.18845 3.69505 5.40738 5.67775 4.62632 7.66046 4.05554 9.67318 3.69505 11.716 3.33455 13.7588 3.15431 15.8617 3.15431 18.0246ZM34.5171 51.0097C34.5171 57.138 32.9249 60.2022 29.7406 60.2022 27.5777 60.2022 25.4748 58.8504 23.432 56.1467 21.3892 53.443 19.7069 50.3788 18.3851 46.9541 17.0633 43.5294 16.0419 40.5254 15.3209 37.9418 14.5999 35.3583 14.2094 33.8563 14.1493 33.4357 17.0934 33.3755 20.0073 33.3455 22.8913 33.3455L31.6332 33.4357C31.6933 33.4958 31.9336 34.4871 32.3542 36.4097 32.7748 38.3323 33.2554 40.7356 33.7962 43.6196 34.3369 46.5035 34.5773 48.9668 34.5171 51.0097ZM10.1839 11.8962C10.1839 5.52755 11.7761 2.3432 14.9604 2.3432 15.8617 2.3432 16.823 2.64361 17.8444 3.24443 18.8657 3.84525 20.0974 4.98681 21.5394 6.66911 22.9814 8.35141 24.4234 10.965 25.8653 14.5098 27.3073 18.0546 28.7493 22.4406 30.1912 27.6678L30.6418 29.1999 13.0678 29.1999C13.0678 29.0196 12.7975 27.878 12.2567 25.7752 11.716 23.6724 11.2354 21.3292 10.8148 18.7456 10.3942 16.162 10.1839 13.879 10.1839 11.8962Z" transform="matrix(1 0 0 -1.11207 141.909 420.203)"/></g></g></g><path d="M0.304416-1.9767 3.54524-1.4776 6.93664 0.0568061 10.1388 2.43132 13.1679 5.54522 16.0384 9.3308 18.7518 13.7326 21.2999 18.698 23.6685 24.1737 25.8397 30.1058 27.8005 36.4615 30.9658 50.0875 33.0045 64.6703 33.7214 79.6324 34.434 94.5036 34.417 94.3224 36.4307 108.726 36.3981 108.551 39.5271 122.02 39.4901 121.883 41.4148 128.122 41.3818 128.024 43.5156 133.854 43.473 133.747 45.7927 139.11 45.7364 138.991 48.2187 143.828 48.1419 143.691 50.7636 147.944 50.6547 147.785 53.3926 151.396 52.9774 150.989 55.8354 153.073 53.4786 156.305 50.3829 154.047 47.4091 150.125 44.6957 145.724 42.1476 140.758 39.779 135.283 37.6078 129.35 35.647 122.995 32.4816 109.369 30.4429 94.786 29.726 79.8239 29.0135 64.9527 29.0304 65.1339 27.0167 50.7299 27.0494 50.9055 23.9204 37.4358 23.9574 37.5729 22.0327 31.3344 22.0657 31.4322 19.9319 25.6025 19.9745 25.7091 17.6548 20.3465 17.7111 20.4656 15.2288 15.6286 15.3056 15.7649 12.6839 11.5119 12.7928 11.6708 10.0549 8.06005 10.215 8.24621 7.38419 5.33621 7.62649 5.54813 4.72596 3.39727 5.09282 3.61294 2.14582 2.2796 2.66583 2.43412-0.304416 1.9767ZM55.7594 148.461 63.4475 159.456 50.0385 159.01Z" transform="matrix(1 0 0 -1 849 351.456)"/></g></svg>