<svg width="1280" height="720" xmlns="http://www.w3.org/2000/svg" xmlns:xlink="http://www.w3.org/1999/xlink" overflow="hidden"><defs><clipPath id="clip0"><rect x="77" y="299" width="116" height="129"/></clipPath><clipPath id="clip1"><rect x="77" y="299" width="116" height="129"/></clipPath><clipPath id="clip2"><rect x="77" y="299" width="116" height="129"/></clipPath></defs><g><rect x="0" y="0" width="1280" height="720" fill="#FFFFFF"/><path d="M293 560.167C293 547.372 303.372 537 316.167 537L408.833 537C421.628 537 432 547.372 432 560.167L432 682.833C432 695.628 421.628 706 408.833 706L316.167 706C303.372 706 293 695.628 293 682.833Z" stroke="#000000" stroke-width="4" stroke-miterlimit="8" fill="#E3F2D9" fill-rule="evenodd"/><path d="M291 37.1671C291 24.3723 301.372 14 314.167 14L406.833 14C419.628 14 430 24.3723 430 37.1671L430 159.833C430 172.628 419.628 183 406.833 183L314.167 183C301.372 183 291 172.628 291 159.833Z" stroke="#000000" stroke-width="4" stroke-miterlimit="8" fill="#DAE3F5" fill-rule="evenodd"/><text font-family="Calibri,Calibri_MSFontService,sans-serif" font-weight="700" font-size="53" transform="translate(301.681 634)">STISR</text><text font-family="Calibri,Calibri_MSFontService,sans-serif" font-weight="700" font-size="53" transform="translate(320.332 112)">STR</text><path d="M283 593C267.536 593 255 559.448 255 518.06L255 435.94C255 394.552 242.464 361 227 361 242.464 361 255 327.448 255 286.06L255 203.94C255 162.552 267.536 129 283 129" stroke="#000000" stroke-width="4" stroke-miterlimit="8" fill="none" fill-rule="evenodd"/><path d="M526 300.501C526 286.417 537.417 275 551.501 275L823.499 275C837.583 275 849 286.417 849 300.501L849 402.499C849 416.583 837.583 428 823.499 428L551.501 428C537.417 428 526 416.583 526 402.499Z" stroke="#000000" stroke-width="4" stroke-miterlimit="8" fill="#FADBDF" fill-rule="evenodd"/><text font-family="Calibri,Calibri_MSFontService,sans-serif" font-weight="700" font-size="53" transform="translate(620.111 338)">Image</text><text font-family="Calibri,Calibri_MSFontService,sans-serif" font-weight="700" font-size="53" transform="translate(563.324 402)">Generation</text><path d="M0.174105-1.99241 2.53969-1.78569 5.10722-1.12076 9.86278 1.29763 14.4527 5.12329 18.8265 10.1769 22.9961 16.3576 26.9548 23.5758 30.6835 31.7424 34.1565 40.7668 37.3445 50.5568 40.2161 61.0189 42.7389 72.0589 44.8794 83.5819 46.6041 95.4926 47.8788 107.696 48.669 120.095 48.9392 132.552 49.2085 144.967 49.2049 144.883 49.9899 157.2 49.9832 157.12 51.2495 169.243 51.2397 169.164 52.9529 180.996 52.9399 180.917 55.0657 192.361 55.0491 192.281 57.5531 203.238 57.532 203.155 60.3798 213.53 60.3528 213.44 63.51 223.135 63.4749 223.036 66.9071 231.955 66.8599 231.842 70.5328 239.887 70.4671 239.756 74.3462 246.829 74.2506 246.672 78.3017 252.677 78.156 252.487 82.3446 257.326 81.9207 256.957 85.8153 259.484 83.6386 262.84 79.5058 260.159 75.0529 255.014 70.8832 248.833 66.9246 241.615 63.1959 233.448 59.7229 224.424 56.5349 214.634 53.6632 204.172 51.1405 193.132 48.9999 181.609 47.2753 169.698 46.0006 157.495 45.2104 145.095 44.9402 132.639 44.6709 120.224 44.6744 120.308 43.8894 107.99 43.8962 108.071 42.6299 95.9477 42.6397 96.0265 40.9264 84.1946 40.9394 84.2733 38.8136 72.8298 38.8303 72.91 36.3263 61.9522 36.3473 62.036 33.4996 51.6608 33.5265 51.7507 30.3693 42.0553 30.4045 42.1544 26.9723 33.2359 27.0195 33.3482 23.3466 25.3038 23.4123 25.4349 19.5331 18.3616 19.6287 18.5184 15.5777 12.5134 15.7234 12.7037 11.5348 7.86415 11.7666 8.09164 7.47484 4.51454 7.84877 4.76094 3.48828 2.54346 3.89345 2.69687 1.69817 2.12833 2.02548 2.18462-0.174105 1.99241ZM85.3139 254.864 93.8794 265.191 80.479 265.847Z" transform="matrix(1 0 0 -1 432 617.191)"/><path d="M913 468.501C913 454.417 924.417 443 938.501 443L1210.5 443C1224.58 443 1236 454.417 1236 468.501L1236 570.499C1236 584.583 1224.58 596 1210.5 596L938.501 596C924.417 596 913 584.583 913 570.499Z" stroke="#000000" stroke-width="4" stroke-miterlimit="8" fill="#FADBDF" fill-rule="evenodd"/><text font-family="Calibri,Calibri_MSFontService,sans-serif" font-weight="700" font-size="53" transform="translate(973.313 537)">SR Image</text><path d="M913 141.501C913 127.417 924.417 116 938.501 116L1210.5 116C1224.58 116 1236 127.417 1236 141.501L1236 243.499C1236 257.583 1224.58 269 1210.5 269L938.501 269C924.417 269 913 257.583 913 243.499Z" stroke="#000000" stroke-width="4" stroke-miterlimit="8" fill="#FADBDF" fill-rule="evenodd"/><text font-family="Calibri,Calibri_MSFontService,sans-serif" font-weight="700" font-size="53" transform="translate(1006.9 178)">Image</text><text font-family="Calibri,Calibri_MSFontService,sans-serif" font-weight="700" font-size="53" transform="translate(1018.58 242)">Text</text><text font-family="Calibri,Calibri_MSFontService,sans-serif" font-weight="700" font-size="53" transform="translate(1109.31 242)">s</text><path d="M849.32 350.026 852.572 350.552 855.974 352.171 859.176 354.668 862.199 357.936 865.064 361.909 867.772 366.529 870.316 371.741 872.681 377.49 874.849 383.72 876.807 390.393 879.969 404.707 882.005 420.024 882.722 435.749 883.434 451.387 883.419 451.215 885.433 466.362 885.403 466.194 888.532 480.358 888.498 480.227 890.423 486.787 890.393 486.693 892.526 492.823 892.487 492.72 894.807 498.359 894.754 498.242 897.237 503.329 897.165 503.195 899.786 507.667 899.683 507.509 902.421 511.306 902.025 510.895 904.968 513.179 902.516 516.339 899.345 513.879 896.383 509.771 893.675 505.152 891.132 499.939 888.767 494.19 886.599 487.961 884.641 481.287 881.479 466.973 879.442 451.656 878.726 435.931 878.013 420.293 878.029 420.466 876.015 405.319 876.045 405.487 872.916 391.322 872.949 391.454 871.025 384.893 871.055 384.988 868.921 378.858 868.96 378.961 866.641 373.322 866.693 373.438 864.211 368.352 864.283 368.486 861.661 364.013 861.764 364.172 859.026 360.375 859.18 360.563 856.35 357.503 856.588 357.722 853.687 355.46 854.058 355.689 851.111 354.287 851.651 354.455 848.68 353.974ZM904.954 508.552 912.447 519.68 899.048 518.998Z"/><path d="M430.024 96.0001 452.641 96.2692 475.104 97.0542 497.212 98.3204 518.789 100.034 539.661 102.16 559.652 104.665 578.586 107.514 596.28 110.674 604.623 112.362 612.586 114.115 620.154 115.929 627.307 117.8 634.023 119.726 640.283 121.703 646.065 123.727 651.35 125.797 656.12 127.912 660.357 130.073 664.046 132.285 667.171 134.559 669.715 136.92 671.648 139.404 672.898 142.053 673.293 144.529 673.643 146.724 673.476 146.185 674.511 148.376 674.281 148.002 675.979 150.184 675.76 149.946 678.099 152.115 677.915 151.964 680.872 154.116 680.724 154.018 684.277 156.149 684.157 156.083 688.285 158.188 688.187 158.141 692.867 160.216 692.786 160.182 697.996 162.223 697.928 162.197 703.646 164.199 703.588 164.18 709.792 166.139 709.741 166.124 716.41 168.036 716.365 168.023 723.475 169.884 723.435 169.874 730.965 171.679 730.929 171.67 738.857 173.415 738.823 173.408 747.127 175.089 747.082 175.08 764.727 178.231 764.673 178.222 783.555 181.064 783.506 181.057 803.449 183.556 803.403 183.551 824.23 185.672 824.186 185.668 845.719 187.378 845.675 187.375 867.739 188.639 867.695 188.637 890.112 189.42 890.066 189.419 902.661 189.569 902.613 193.568 889.995 193.418 867.533 192.633 845.425 191.367 823.847 189.654 802.975 187.528 782.984 185.023 764.051 182.173 746.356 179.014 738.013 177.325 730.051 175.573 722.482 173.759 715.329 171.887 708.613 169.961 702.354 167.985 696.571 165.96 691.286 163.89 686.516 161.776 682.279 159.615 678.59 157.403 675.465 155.128 672.921 152.768 670.989 150.284 669.738 147.635 669.343 145.159 668.993 142.964 669.16 143.503 668.125 141.312 668.355 141.686 666.657 139.504 666.876 139.742 664.538 137.573 664.721 137.723 661.764 135.571 661.912 135.67 658.359 133.539 658.479 133.605 654.351 131.5 654.449 131.547 649.769 129.472 649.85 129.506 644.64 127.465 644.709 127.49 638.99 125.488 639.049 125.508 632.844 123.549 632.895 123.564 626.227 121.652 626.272 121.664 619.161 119.804 619.201 119.814 611.671 118.009 611.708 118.017 603.78 116.272 603.813 116.279 595.51 114.599 595.555 114.608 577.909 111.457 577.963 111.466 559.081 108.624 559.13 108.63 539.187 106.132 539.233 106.137 518.406 104.015 518.451 104.019 496.917 102.31 496.961 102.313 474.897 101.049 474.942 101.051 452.524 100.268 452.57 100.269 429.976 99.9999ZM900.708 185.545 912.636 191.687 900.566 197.544Z"/><path d="M44 246.18C44 224.542 61.5416 207 83.1803 207L187.82 207C209.458 207 227 224.542 227 246.18L227 476.82C227 498.458 209.458 516 187.82 516L83.1803 516C61.5416 516 44 498.458 44 476.82Z" stroke="#000000" stroke-width="4" stroke-miterlimit="8" fill="#FCE6D5" fill-rule="evenodd"/><g clip-path="url(#clip0)"><g clip-path="url(#clip1)"><g clip-path="url(#clip2)"><path d="M15.0418-20.6506C15.2117-20.6506 15.4666-20.7356 15.8066-20.9055 16.1466-21.0754 16.6139-21.2029 17.2088-21.2879 17.8037-21.3729 18.3136-21.4154 18.7385-21.4154 19.8433-21.4154 20.863-20.863 21.7978-19.7582 22.7326-18.6534 23.4125-17.4213 23.8374-16.0615 24.6872-13.767 26.1319-7.26593 28.1714 3.44176 30.211 14.1495 32.1655 24.3473 34.0352 34.0352 35.9048 43.7231 36.8396 48.6095 36.8396 48.6945L36.8396 49.0769 30.8484 49.0769C26.8543 49.0769 24.7297 49.1619 24.4747 49.3319 24.1348 49.5868 23.9648 50.0117 23.9648 50.6066L24.8571 54.1758C25.0271 54.6007 25.367 54.8132 25.8769 54.8132 26.3868 54.8132 28.3839 54.8556 31.8681 54.9407 35.9473 54.9407 37.9868 54.9831 37.9868 55.0681 37.9868 55.2381 38.3692 57.3626 39.1341 61.4418 39.8989 65.5209 40.4088 67.9853 40.6637 68.8352 43.8081 82.8571 50.0117 89.8681 59.2747 89.8681 62.4191 89.6982 65.011 88.7633 67.0506 87.0637 69.0901 85.3642 70.1099 83.1121 70.1099 80.3077 70.1099 77.2484 69.2176 75.0389 67.433 73.6791 65.6484 72.3194 63.8637 71.5971 62.0791 71.5121 58.34 71.5121 56.4703 73.2967 56.4703 76.8659 56.4703 78.4806 56.9378 79.8828 57.8725 81.0725 58.8073 82.2622 59.8271 83.1545 60.9319 83.7495L62.0791 84.3868C60.7194 84.8967 59.4446 85.1516 58.2549 85.1516 57.2352 85.1516 56.2578 84.7268 55.3231 83.8769 54.3883 83.0271 53.751 81.8374 53.411 80.3077 52.8161 77.8433 52.1363 74.529 51.3714 70.3648 50.6066 66.2007 49.9268 62.674 49.3319 59.7846 48.737 56.8952 48.4396 55.3655 48.4396 55.1956 48.4396 55.0257 50.7765 54.9407 55.4506 54.9407 59.2747 54.9407 61.4842 54.8982 62.0791 54.8132 62.674 54.7282 63.1414 54.4732 63.4813 54.0484 63.5663 53.7084 63.4813 52.9861 63.2264 51.8813 62.9714 50.7765 62.7589 50.0967 62.589 49.8418 62.4191 49.4169 62.0367 49.2044 61.4418 49.2044 60.8468 49.2044 58.5523 49.1619 54.5582 49.0769L47.4198 49.0769 44.4879 33.5253C40.4088 12.4498 37.5619-0.722345 35.9473-5.99121 33.6527-13.2147 30.6784-18.5685 27.0242-22.0527 23.8798-24.7721 20.778-26.1319 17.7187-26.1319 14.9993-26.1319 12.5348-25.3246 10.3253-23.7099 8.11576-22.0952 7.01099-19.8007 7.01099-16.8264 7.01099-13.682 7.9033-11.3875 9.68791-9.94286 11.4725-8.49817 13.2571-7.77582 15.0418-7.77582 18.7809-7.77582 20.6506-9.56044 20.6506-13.1297 20.6506-14.7444 20.1831-16.1466 19.2484-17.3363 18.3136-18.526 17.2938-19.4183 16.189-20.0132L15.0418-20.6506Z" transform="matrix(1 0 0 -1.11207 79.4475 398.94)"/><path d="M3.15431 18.0246C3.15431 24.153 4.32591 30.6118 6.66911 37.4011 9.01231 44.1903 12.1966 50.0483 16.2222 54.9751 20.2477 59.9018 24.4234 62.7257 28.7493 63.4466 28.8094 63.4466 29.0496 63.4466 29.4702 63.4466 29.8909 63.4466 30.2513 63.4767 30.5517 63.5368 33.7962 63.2964 36.3196 61.8244 38.1221 59.1207 40.4653 55.5158 41.6369 50.6792 41.6369 44.6109 41.6369 37.7015 40.285 30.6719 37.5813 23.5221 34.8776 16.3724 31.4229 10.5144 27.2172 5.94812 23.0114 1.38188 18.986-0.901231 15.1407-0.901231L14.5098-0.901231C12.3469-0.901231 10.4843-0.30041 8.92218 0.901231 7.36005 2.10287 6.18845 3.69505 5.40738 5.67775 4.62632 7.66046 4.05554 9.67318 3.69505 11.716 3.33455 13.7588 3.15431 15.8617 3.15431 18.0246ZM34.5171 51.0097C34.5171 57.138 32.9249 60.2022 29.7406 60.2022 27.5777 60.2022 25.4748 58.8504 23.432 56.1467 21.3892 53.443 19.7069 50.3788 18.3851 46.9541 17.0633 43.5294 16.0419 40.5254 15.3209 37.9418 14.5999 35.3583 14.2094 33.8563 14.1493 33.4357 17.0934 33.3755 20.0073 33.3455 22.8913 33.3455L31.6332 33.4357C31.6933 33.4958 31.9336 34.4871 32.3542 36.4097 32.7748 38.3323 33.2554 40.7356 33.7962 43.6196 34.3369 46.5035 34.5773 48.9668 34.5171 51.0097ZM10.1839 11.8962C10.1839 5.52755 11.7761 2.3432 14.9604 2.3432 15.8617 2.3432 16.823 2.64361 17.8444 3.24443 18.8657 3.84525 20.0974 4.98681 21.5394 6.66911 22.9814 8.35141 24.4234 10.965 25.8653 14.5098 27.3073 18.0546 28.7493 22.4406 30.1912 27.6678L30.6418 29.1999 13.0678 29.1999C13.0678 29.0196 12.7975 27.878 12.2567 25.7752 11.716 23.6724 11.2354 21.3292 10.8148 18.7456 10.3942 16.162 10.1839 13.879 10.1839 11.8962Z" transform="matrix(1 0 0 -1.11207 141.909 420.203)"/></g></g></g><path d="M0.109146-1.99702 9.68087-1.47388 19.3318 0.0893627 28.9292 2.64978 38.4526 6.17016 47.8833 10.6137 57.2034 15.9442 66.3961 22.1264 75.4447 29.1258 84.3325 36.9085 93.0429 45.441 101.559 54.6902 109.863 64.6234 117.939 75.2079 125.768 86.4111 133.334 98.2005 140.617 110.544 147.602 123.408 154.268 136.762 160.599 150.572 166.575 164.806 172.18 179.432 177.394 194.417 182.199 209.73 186.577 225.336 190.509 241.205 193.978 257.303 196.963 273.598 199.448 290.058 201.413 306.65 202.839 323.342 203.709 340.101 204.003 356.866 204.335 390.289 204.335 390.251 205.305 423.404 205.303 423.367 206.868 455.998 206.866 455.961 208.983 487.808 208.98 487.771 211.607 518.572 211.605 518.543 213.096 533.47 213.094 533.45 214.697 548.018 214.694 547.997 216.404 562.172 216.401 562.151 218.211 575.901 218.208 575.879 220.113 589.172 220.11 589.147 222.106 601.95 222.101 601.924 224.182 614.205 224.177 614.176 226.338 625.901 226.332 625.87 228.567 637.007 228.559 636.972 230.863 647.488 230.854 647.449 233.222 657.311 233.211 657.267 235.637 666.443 235.622 666.392 238.102 674.849 238.083 674.788 240.61 682.494 240.584 682.421 243.154 689.343 243.118 689.254 245.725 695.358 245.673 695.246 248.311 700.501 248.232 700.358 250.897 704.731 250.532 704.29 253.117 706.632 250.431 709.596 247.631 707.06 244.773 702.37 242.07 696.986 239.42 690.78 236.821 683.777 234.272 676.005 231.776 667.491 229.338 658.267 226.96 648.363 224.648 637.811 222.407 626.641 220.241 614.887 218.155 602.58 216.156 589.751 214.247 576.435 212.434 562.662 210.722 548.466 209.117 533.878 207.623 518.927 204.993 488.092 202.874 456.208 201.307 423.54 200.336 390.348 200.003 356.914 200.003 356.929 199.71 340.205 199.713 340.274 198.846 323.582 198.851 323.649 197.43 307.023 197.437 307.088 195.479 290.56 195.488 290.623 193.013 274.226 193.023 274.288 190.049 258.054 190.061 258.115 186.606 242.077 186.619 242.137 182.702 226.328 182.717 226.387 178.356 210.839 178.373 210.898 173.587 195.645 173.606 195.703 168.412 180.776 168.434 180.834 162.851 166.267 162.875 166.326 156.923 152.15 156.949 152.209 150.646 138.459 150.674 138.519 144.038 125.226 144.07 125.287 137.119 112.484 137.154 112.546 129.908 100.266 129.947 100.329 122.423 88.6045 122.467 88.6701 114.684 77.5335 114.734 77.601 106.71 67.0852 106.766 67.1548 98.5207 57.2925 98.5837 57.3644 90.1351 48.1883 90.2069 48.2623 81.5733 39.805 81.6553 39.881 72.8553 32.1752 72.9492 32.2525 64.0012 25.3309 64.1088 25.4086 55.0314 19.3039 55.1545 19.3804 45.9662 14.1252 46.1066 14.1983 36.8258 9.82539 36.9848 9.8921 27.63 6.43404 27.8079 6.49052 18.3976 3.98002 18.5933 4.02188 9.14601 2.49162 9.35665 2.51437-0.109146 1.99702ZM253.531 702.039 260.008 713.788 246.722 711.92Z" transform="matrix(-1.83697e-16 -1 -1 1.83697e-16 1074.79 443.008)"/></g></svg>