<svg width="864" height="509" xmlns="http://www.w3.org/2000/svg" xmlns:xlink="http://www.w3.org/1999/xlink" overflow="hidden"><defs><clipPath id="clip0"><rect x="29" y="283" width="75" height="38"/></clipPath><clipPath id="clip1"><rect x="29" y="283" width="75" height="38"/></clipPath><clipPath id="clip2"><rect x="29" y="283" width="75" height="38"/></clipPath><clipPath id="clip3"><rect x="751" y="145" width="32" height="38"/></clipPath><clipPath id="clip4"><rect x="751" y="145" width="32" height="38"/></clipPath><clipPath id="clip5"><rect x="751" y="145" width="32" height="38"/></clipPath><clipPath id="clip6"><rect x="318" y="368" width="25" height="19"/></clipPath><clipPath id="clip7"><rect x="318" y="368" width="25" height="19"/></clipPath><clipPath id="clip8"><rect x="318" y="368" width="25" height="19"/></clipPath><clipPath id="clip9"><rect x="468" y="296" width="25" height="19"/></clipPath><clipPath id="clip10"><rect x="468" y="296" width="25" height="19"/></clipPath><clipPath id="clip11"><rect x="468" y="296" width="25" height="19"/></clipPath><clipPath id="clip12"><rect x="617" y="376" width="25" height="19"/></clipPath><clipPath id="clip13"><rect x="617" y="376" width="25" height="19"/></clipPath><clipPath id="clip14"><rect x="617" y="376" width="25" height="19"/></clipPath><clipPath id="clip15"><rect x="618" y="296" width="23" height="19"/></clipPath><clipPath id="clip16"><rect x="618" y="296" width="23" height="19"/></clipPath><clipPath id="clip17"><rect x="618" y="296" width="23" height="19"/></clipPath><clipPath id="clip18"><rect x="318" y="437" width="25" height="19"/></clipPath><clipPath id="clip19"><rect x="318" y="437" width="25" height="19"/></clipPath><clipPath id="clip20"><rect x="318" y="437" width="25" height="19"/></clipPath><clipPath id="clip21"><rect x="467" y="437" width="25" height="19"/></clipPath><clipPath id="clip22"><rect x="467" y="437" width="25" height="19"/></clipPath><clipPath id="clip23"><rect x="467" y="437" width="25" height="19"/></clipPath></defs><g transform="translate(-28 -144)"><path d="M159 279.168C159 251.461 181.461 229 209.168 229L666.832 229C694.539 229 717 251.461 717 279.168L717 479.832C717 507.539 694.539 530 666.832 530L209.168 530C181.461 530 159 507.539 159 479.832Z" stroke="#588E31" stroke-width="6" stroke-miterlimit="8" fill="#E3F2D9" fill-rule="evenodd"/><path d="M277 432.167C277 428.209 280.209 425 284.167 425L378.833 425C382.791 425 386 428.209 386 432.167L386 460.833C386 464.791 382.791 468 378.833 468L284.167 468C280.209 468 277 464.791 277 460.833Z" stroke="#588E31" stroke-width="2" stroke-miterlimit="8" fill="#ACD78E" fill-rule="evenodd"/><path d="M426 433C426 429.134 429.134 426 433 426L528 426C531.866 426 535 429.134 535 433L535 461C535 464.866 531.866 468 528 468L433 468C429.134 468 426 464.866 426 461Z" stroke="#588E31" stroke-width="2" stroke-miterlimit="8" fill="#ACD78E" fill-rule="evenodd"/><path d="M574 433C574 429.134 577.134 426 581 426L676 426C679.866 426 683 429.134 683 433L683 461C683 464.866 679.866 468 676 468L581 468C577.134 468 574 464.866 574 461Z" stroke="#588E31" stroke-width="2" stroke-miterlimit="8" fill="#ACD78E" fill-rule="evenodd"/><path d="M312 377C312 366.507 320.507 358 331 358 341.493 358 350 366.507 350 377 350 387.493 341.493 396 331 396 320.507 396 312 387.493 312 377Z" stroke="#B58B02" stroke-width="2" stroke-miterlimit="8" fill="#FEE695" fill-rule="evenodd"/><path d="M461 365.5C461 355.283 469.507 347 480 347 490.493 347 499 355.283 499 365.5 499 375.717 490.493 384 480 384 469.507 384 461 375.717 461 365.5Z" stroke="#B58B02" stroke-width="2" stroke-miterlimit="8" fill="#FEE695" fill-rule="evenodd"/><path d="M610 386C610 375.507 618.507 367 629 367 639.493 367 648 375.507 648 386 648 396.493 639.493 405 629 405 618.507 405 610 396.493 610 386Z" stroke="#B58B02" stroke-width="2" stroke-miterlimit="8" fill="#FEE695" fill-rule="evenodd"/><path d="M610 304.5C610 294.283 618.507 286 629 286 639.493 286 648 294.283 648 304.5 648 314.717 639.493 323 629 323 618.507 323 610 314.717 610 304.5Z" stroke="#B58B02" stroke-width="2" stroke-miterlimit="8" fill="#FEE695" fill-rule="evenodd"/><path d="M461 304.5C461 294.283 469.507 286 480 286 490.493 286 499 294.283 499 304.5 499 314.717 490.493 323 480 323 469.507 323 461 314.717 461 304.5Z" stroke="#B58B02" stroke-width="2" stroke-miterlimit="8" fill="#FEE695" fill-rule="evenodd"/><path d="M100 302 451.056 302 451.056 306 100 306ZM449.055 298 461.055 304 449.055 310Z"/><path d="M2-8.97775e-06 2.00006 13.3882-1.99994 13.3883-2 8.97775e-06ZM6.00005 11.3882 0.000104987 23.3882-5.99995 11.3883Z" transform="matrix(1 0 0 -1 480 346.388)"/><path d="M2-4.75368e-06 2.00008 34.1708-1.99992 34.1708-2 4.75368e-06ZM6.00008 32.1708 0.000104987 44.1708-5.99992 32.1708Z" transform="matrix(1 0 0 -1 629 367.171)"/><path d="M499 302 599.6 302 599.6 306 499 306ZM597.6 298 609.6 304 597.6 310Z"/><path d="M648 302 831.558 302 831.558 306 648 306ZM829.558 298 841.558 304 829.558 310Z"/><path d="M2-7.14298e-07 2.0001 283.958-1.9999 283.958-2 7.14298e-07ZM6.0001 281.958 0.000104987 293.958-5.9999 281.958Z" transform="matrix(1 0 0 -1 221 597.958)"/><path d="M1.99972-0.0336303 2.73466 43.6675-1.26477 43.7348-1.99972 0.0336303ZM6.70047 41.6005 0.903097 53.6997-5.29784 41.8023Z" transform="matrix(1 0 0 -1 331 357.7)"/><path d="M0-2 113.004-2 113.004 30.4183 109.004 30.4183 109.004 0 111.004 2 0 2ZM117.004 28.4183 111.004 40.4183 105.004 28.4183Z" transform="matrix(1 0 0 -1 221 508.418)"/><path d="M0-2 151.298-2 151.298 29.6183 147.298 29.6183 147.298 0 149.298 2 0 2ZM155.298 27.6183 149.298 39.6183 143.298 27.6183Z" transform="matrix(1 0 0 -1 331 507.618)"/><path d="M0-2 169.293-2 169.293 29.6183 165.293 29.6183 165.293 0 167.293 2 0 2ZM173.293 27.6183 167.293 39.6183 161.293 27.6183Z" transform="matrix(1 0 0 -1 461 507.618)"/><path d="M627 425.783 627 415 631 415 631 425.783ZM623 417 629 405 635 417Z"/><path d="M478 425.565 478 394 482 394 482 425.565ZM474 396 480 384 486 396Z"/><path d="M0-2 66.7488-2 66.7488 21.5033 64.7488 19.5033 119.498 19.5033 119.498 23.5033 62.7488 23.5033 62.7488 0 64.7488 2 0 2ZM117.498 15.5033 129.498 21.5033 117.498 27.5033Z" transform="matrix(1 0 0 -1 480 407.503)"/><path d="M329.904 425.413 329.309 406.057 333.307 405.934 333.902 425.29ZM325.372 408.179 331 396 337.366 407.81Z"/><path d="M260 507.953 260 375 302.317 375 302.317 379 262 379 264 377 264 507.953ZM300.317 371 312.317 377 300.317 383Z"/><path d="M2-1.99574e-06 2.00009 95.2108-1.9999 95.2108-2 1.99574e-06ZM6.00009 93.2108 0.000104987 105.211-5.99991 93.2108Z" transform="matrix(1 0 0 -1 767 304.211)"/><text font-family="Microsoft YaHei,Microsoft YaHei_MSFontService,sans-serif" font-weight="700" font-size="27" transform="translate(598.271 456)">tanh</text><g clip-path="url(#clip0)"><g clip-path="url(#clip1)"><g clip-path="url(#clip2)"><path d="M5.69568 28.3952C5.72339 28.3952 6.72118 28.4645 8.68902 28.6031 10.6569 28.7417 11.6685 28.8248 11.7239 28.8526 12.0565 28.8526 12.2228 28.7278 12.2228 28.4784 12.2228 28.1735 11.7239 26.0809 10.7262 22.2007 9.67295 18.0987 9.14634 16.0061 9.14634 15.9229 9.14634 15.8675 9.24335 15.9368 9.43736 16.1308 11.128 17.6275 12.9296 18.3758 14.842 18.3758 16.3387 18.3758 17.5443 18.0017 18.459 17.2533 19.3736 16.505 19.8448 15.4102 19.8725 13.969 19.8725 12.5554 19.3459 10.3659 18.2927 7.40022 17.2395 4.43459 16.7129 2.66075 16.7129 2.07871 16.7406 1.69069 16.8099 1.42738 16.9207 1.2888 17.0316 1.15022 17.2395 1.08093 17.5443 1.08093 18.3204 1.08093 19.041 1.49667 19.7062 2.32816 20.3714 3.15965 20.9119 4.29601 21.3276 5.73725 21.4108 6.04213 21.4939 6.22228 21.5771 6.27772 21.6602 6.33315 21.8819 6.36087 22.2422 6.36087 22.7966 6.36087 23.0737 6.25 23.0737 6.02827 23.0737 6.00055 23.0183 5.79268 22.9074 5.40466 22.464 3.7694 21.7572 2.42517 20.7871 1.37195 19.8448 0.180155 18.7223-0.415743 17.4196-0.415743L17.2118-0.415743C15.9091-0.415743 14.9667-0.0415743 14.3847 0.706763 13.8027 1.4551 13.5116 2.24501 13.5116 3.0765 13.5116 3.51996 14.0105 5.15521 15.0083 7.98226 16.0061 10.8093 16.5188 12.9296 16.5466 14.3431 16.5466 15.9784 15.9368 16.796 14.7173 16.796L14.5094 16.796C12.209 16.796 10.2134 15.4379 8.52273 12.7217L8.23171 12.1813 6.81818 6.56874C5.93126 2.96563 5.41851 0.997783 5.27993 0.665188 4.91962-0.0831486 4.30987-0.457317 3.45067-0.457317 3.06264-0.457317 2.73004-0.332594 2.45288-0.0831486 2.17572 0.166297 2.02328 0.415743 1.99557 0.665188 1.99557 1.05322 3.00721 5.26608 5.03049 13.3038L8.10699 25.6098C8.10699 25.9701 8.00998 26.1918 7.81596 26.2749 7.62195 26.3581 7.08149 26.4274 6.19457 26.4828L5.32151 26.4828C5.15521 26.6491 5.07206 26.76 5.07206 26.8154 5.07206 26.8708 5.09978 27.1341 5.15521 27.6053 5.29379 28.1319 5.47395 28.3952 5.69568 28.3952Z" transform="matrix(1 0 0 -1.01333 29.397 312.237)"/><path d="M0.764218 11.3163C0.627051 11.4535 0.558467 11.5515 0.558467 11.6102 0.558467 11.6886 0.58786 11.8454 0.646646 12.0805 0.705432 12.3157 0.754421 12.4528 0.793611 12.492 0.832802 12.59 0.920981 12.639 1.05815 12.639 1.19532 12.639 1.695 12.6488 2.55719 12.6684L4.11502 12.6684 4.67349 15.0198C4.73228 15.2354 4.80086 15.5195 4.87924 15.8722 4.95762 16.2249 5.02621 16.4797 5.08499 16.6364 5.14378 16.7932 5.20256 16.9892 5.26135 17.2243 5.32014 17.4595 5.39852 17.626 5.49649 17.724 5.59447 17.822 5.69245 17.9395 5.79042 18.0767 5.8884 18.2139 6.02557 18.3021 6.20193 18.3412 6.37828 18.3804 6.55464 18.4 6.731 18.4 7.08372 18.3804 7.32866 18.2727 7.46583 18.0767 7.60299 17.8808 7.67158 17.6946 7.67158 17.5182 7.67158 17.3811 7.5834 16.9206 7.40704 16.1368 7.23068 15.353 7.03473 14.5789 6.81918 13.8147L6.52525 12.7272C6.52525 12.688 7.01513 12.6684 7.9949 12.6684L9.49394 12.6684C9.63111 12.5312 9.69969 12.4234 9.69969 12.3451 9.69969 11.914 9.57232 11.571 9.31759 11.3163L6.17253 11.3163 5.11438 7.05432C4.35017 3.91907 3.96806 2.23387 3.96806 1.99873 3.96806 1.17572 4.23259 0.764218 4.76167 0.764218 5.44751 0.764218 6.11375 1.09734 6.76039 1.76358 7.40704 2.42982 7.92632 3.25283 8.31822 4.23259 8.35741 4.35017 8.4064 4.41875 8.46519 4.43835 8.52397 4.45794 8.67094 4.47754 8.90608 4.49713L9.02366 4.49713C9.31759 4.49713 9.46455 4.41875 9.46455 4.26199 9.46455 4.2032 9.43516 4.08563 9.37637 3.90927 9.27839 3.59575 9.10204 3.22343 8.8473 2.79234 8.59256 2.36124 8.25944 1.90075 7.84794 1.41086 7.43643 0.920981 6.93675 0.509479 6.34889 0.176358 5.76103-0.156763 5.16337-0.323323 4.55592-0.323323 3.96806-0.323323 3.40959-0.176358 2.88052 0.117572 2.35144 0.411502 1.96933 0.920981 1.73419 1.64601 1.695 1.80277 1.6754 2.06731 1.6754 2.43962L1.6754 2.96869 2.70416 7.08372C3.38999 9.84666 3.74271 11.2379 3.76231 11.2575 3.76231 11.2967 3.26262 11.3163 2.26326 11.3163L0.764218 11.3163Z" transform="matrix(1 0 0 -1.01333 53.3438 318.557)"/><path d="M2.46901 6.96614C2.46901 6.96614 2.46901 7.09351 2.46901 7.34825 2.46901 7.60299 2.60618 7.79895 2.88052 7.93611L19.9579 7.93611C20.2518 7.77935 20.3988 7.5834 20.3988 7.34825 20.3988 7.11311 20.2518 6.91716 19.9579 6.76039L2.88052 6.76039C2.60618 6.89756 2.46901 7.09351 2.46901 7.34825Z" transform="matrix(1 0 0 -1.01333 63.9547 318.557)"/><path d="M6.26071 16.9892 5.8786 16.8422C5.60427 16.7442 5.21236 16.6462 4.70288 16.5483 4.1934 16.4503 3.62514 16.3817 2.99809 16.3425L2.43962 16.3425 2.43962 17.6946 2.99809 17.6946C3.91907 17.7338 4.77147 17.8808 5.55528 18.1355 6.33909 18.3902 6.88776 18.6254 7.20129 18.8409 7.51481 19.0565 7.78915 19.272 8.02429 19.4876 8.06348 19.5464 8.18106 19.5757 8.37701 19.5757 8.55337 19.5757 8.71993 19.517 8.87669 19.3994L8.87669 10.6109 8.90608 1.79297C9.04325 1.65581 9.16082 1.56763 9.2588 1.52844 9.35678 1.48925 9.59192 1.45006 9.96423 1.41086 10.3365 1.37167 10.944 1.35208 11.7866 1.35208L12.5508 1.35208 12.5508 0 12.2275 0C11.816 0.058786 10.2582 0.088179 7.55401 0.088179 4.88904 0.088179 3.3508 0.058786 2.9393 0L2.58659 0 2.58659 1.35208 3.3508 1.35208C3.7819 1.35208 4.15421 1.35208 4.46774 1.35208 4.78126 1.35208 5.02621 1.36188 5.20256 1.38147 5.37892 1.40107 5.53568 1.43046 5.67285 1.46965 5.81002 1.50884 5.8884 1.52844 5.908 1.52844 5.92759 1.52844 5.98638 1.57743 6.08435 1.6754 6.18233 1.77338 6.24112 1.81257 6.26071 1.79297L6.26071 16.9892Z" transform="matrix(1 0 0 -1.01333 86.8225 318.557)"/></g></g></g><g><g><g><path d="M5.75173 28.6747C5.77972 28.6747 6.78732 28.7447 8.77454 28.8846 10.7618 29.0245 11.7833 29.1085 11.8393 29.1365 12.1752 29.1365 12.3431 29.0106 12.3431 28.7587 12.3431 28.4508 11.8393 26.3376 10.8317 22.4192 9.76815 18.2768 9.23635 16.1636 9.23635 16.0797 9.23635 16.0237 9.33432 16.0936 9.53024 16.2896 11.2376 17.801 13.0568 18.5567 14.9881 18.5567 16.4995 18.5567 17.717 18.1788 18.6406 17.4231 19.5643 16.6674 20.0401 15.5619 20.0681 14.1064 20.0681 12.679 19.5363 10.4679 18.4727 7.47305 17.4091 4.47823 16.8773 2.68694 16.8773 2.09917 16.9053 1.70733 16.9753 1.44143 17.0873 1.30149 17.1992 1.16154 17.4091 1.09157 17.717 1.09157 18.5007 1.09157 19.2284 1.5114 19.9001 2.35107 20.5719 3.19074 21.1177 4.33829 21.5375 5.79371 21.6215 6.10159 21.7054 6.28352 21.7894 6.3395 21.8734 6.39548 22.0973 6.42347 22.4611 6.42347 23.0209 6.42347 23.3008 6.31151 23.3008 6.0876 23.3008 6.05961 23.2448 5.84969 23.1329 5.45785 22.685 3.8065 21.9713 2.44903 20.9917 1.38545 20.0401 0.181928 18.9065-0.419834 17.5911-0.419834L17.3811-0.419834C16.0657-0.419834 15.114-0.0419834 14.5263 0.713718 13.9385 1.46942 13.6446 2.26711 13.6446 3.10677 13.6446 3.5546 14.1484 5.20595 15.156 8.06082 16.1636 10.9157 16.6814 13.0568 16.7094 14.4843 16.7094 16.1356 16.0936 16.9613 14.8621 16.9613L14.6522 16.9613C12.3291 16.9613 10.3139 15.5898 8.6066 12.8469L8.31272 12.3011 6.88528 6.63338C5.98964 2.99482 5.47184 1.0076 5.3319 0.671735 4.96804-0.0839669 4.35228-0.461818 3.48462-0.461818 3.09278-0.461818 2.75691-0.335867 2.47702-0.0839669 2.19713 0.167934 2.04319 0.419834 2.0152 0.671735 2.0152 1.06358 3.0368 5.3179 5.08 13.4347L8.18677 25.8618C8.18677 26.2257 8.08881 26.4496 7.89289 26.5335 7.69696 26.6175 7.15118 26.6875 6.25553 26.7434L5.37388 26.7434C5.20595 26.9114 5.12198 27.0233 5.12198 27.0793 5.12198 27.1353 5.14997 27.4012 5.20595 27.877 5.34589 28.4088 5.52782 28.6747 5.75173 28.6747Z" transform="matrix(1 0 0 -1.02703 854 313.56)"/><path d="M0.771739 11.4277C0.633222 11.5662 0.563963 11.6651 0.563963 11.7245 0.563963 11.8037 0.593646 11.962 0.65301 12.1994 0.712375 12.4369 0.761845 12.5754 0.801422 12.615 0.840998 12.7139 0.930045 12.7634 1.06856 12.7634 1.20708 12.7634 1.71168 12.7733 2.58236 12.7931L4.15552 12.7931 4.71948 15.1676C4.77885 15.3853 4.84811 15.6722 4.92726 16.0284 5.00641 16.3846 5.07567 16.6419 5.13504 16.8002 5.1944 16.9585 5.25377 17.1564 5.31313 17.3938 5.37249 17.6313 5.45165 17.7995 5.55059 17.8984 5.64953 17.9974 5.74847 18.1161 5.84741 18.2546 5.94635 18.3931 6.08487 18.4822 6.26296 18.5217 6.44106 18.5613 6.61915 18.5811 6.79724 18.5811 7.15343 18.5613 7.40078 18.4525 7.5393 18.2546 7.67782 18.0567 7.74708 17.8687 7.74708 17.6906 7.74708 17.5521 7.65803 17.0871 7.47994 16.2956 7.30184 15.504 7.10396 14.7224 6.88629 13.9507L6.58947 12.8524C6.58947 12.8129 7.08417 12.7931 8.07358 12.7931L9.58738 12.7931C9.7259 12.6545 9.79515 12.5457 9.79515 12.4666 9.79515 12.0312 9.66653 11.6849 9.40929 11.4277L6.23328 11.4277 5.16472 7.12375C4.39298 3.95764 4.00711 2.25585 4.00711 2.0184 4.00711 1.18729 4.27425 0.771739 4.80853 0.771739 5.50112 0.771739 6.17392 1.10814 6.82693 1.78094 7.47994 2.45374 8.00432 3.28484 8.40009 4.27425 8.43966 4.39298 8.48913 4.46224 8.5485 4.48203 8.60786 4.50181 8.75628 4.5216 8.99373 4.54139L9.11246 4.54139C9.40929 4.54139 9.5577 4.46224 9.5577 4.30393 9.5577 4.24457 9.52801 4.12584 9.46865 3.94774 9.36971 3.63113 9.19162 3.25516 8.93437 2.81982 8.67712 2.38448 8.34072 1.91945 7.92517 1.42475 7.50962 0.930045 7.00502 0.514493 6.41137 0.178094 5.81773-0.158306 5.21419-0.326505 4.60075-0.326505 4.00711-0.326505 3.44315-0.178094 2.90886 0.118729 2.37458 0.415552 1.98871 0.930045 1.75126 1.66221 1.71168 1.82051 1.69189 2.08765 1.69189 2.46363L1.69189 2.99791 2.73077 7.15343C3.42336 9.94357 3.77954 11.3485 3.79933 11.3683 3.79933 11.4079 3.29473 11.4277 2.28554 11.4277L0.771739 11.4277Z" transform="matrix(1 0 0 -1.02703 878.182 320.028)"/></g></g></g><g clip-path="url(#clip3)"><g clip-path="url(#clip4)"><g clip-path="url(#clip5)"><path d="M0.773862 10.5761C0.773862 10.9201 0.958115 11.5097 1.32662 12.3449 1.69513 13.1802 2.28474 14.0524 3.09545 14.9613 3.90616 15.8703 4.81514 16.3125 5.82239 16.288 6.82964 16.288 7.64036 16.0054 8.25453 15.4404 8.86871 14.8754 9.18808 14.0892 9.21265 13.082 9.16351 12.6152 9.12666 12.3572 9.1021 12.3081 9.1021 12.2344 8.90556 11.6694 8.51249 10.613 8.11941 9.55659 7.71406 8.36508 7.29642 7.03846 6.87878 5.71184 6.68224 4.65546 6.70681 3.86931 6.70681 2.81293 6.87878 2.07592 7.22272 1.65828 7.56665 1.24064 8.08256 1.01953 8.77044 0.994966 9.33548 0.994966 9.86367 1.13008 10.355 1.40032 10.8464 1.67056 11.2271 1.95308 11.4974 2.24789 11.7676 2.54269 12.0993 2.94805 12.4923 3.46396 12.4923 3.48852 12.5538 3.73419 12.6766 4.20097 12.7994 4.66774 12.9714 5.39247 13.1925 6.37515 13.4136 7.35783 13.647 8.26682 13.8927 9.1021 14.8262 12.7872 15.3421 14.7157 15.4404 14.8876 15.7598 15.5509 16.288 15.8826 17.025 15.8826 17.3443 15.8826 17.6023 15.7966 17.7988 15.6247 17.9954 15.4527 18.1305 15.3053 18.2042 15.1824 18.2779 15.0596 18.3025 14.9491 18.2779 14.8508 18.2779 14.5314 17.676 11.9519 16.4722 7.11216 15.2684 2.27245 14.5806-0.380789 14.4086-0.847564 13.7207-2.88663 12.5292-4.50806 10.8341-5.71184 9.13895-6.91563 7.44382-7.5298 5.74869-7.55437 4.64317-7.55437 3.67278-7.28413 2.8375-6.74366 2.00222-6.20318 1.58458-5.39247 1.58458-4.31152 1.58458-3.77104 1.67056-3.31655 1.84253-2.94805 2.0145-2.57954 2.24789-2.3093 2.54269-2.13733 2.8375-1.96536 3.08317-1.84253 3.2797-1.76883 3.47624-1.69513 3.68506-1.65828 3.90616-1.65828 4.98711-1.65828 5.52759-2.17418 5.52759-3.206 5.52759-3.69734 5.38019-4.12727 5.08538-4.49577 4.79058-4.86428 4.50806-5.10995 4.23782-5.23278 3.96758-5.35562 3.80789-5.41704 3.75876-5.41704L3.64821-5.45389C3.69734-5.57672 3.93073-5.72412 4.34837-5.89609 4.76601-6.06806 5.18365-6.15405 5.60129-6.15405L5.89609-6.15405C6.31373-6.15405 6.63311-6.12948 6.85421-6.08035 7.66492-5.85924 8.41422-5.39247 9.1021-4.68003 9.78997-3.96758 10.3182-3.206 10.6867-2.39529 11.0552-1.58458 11.3377-0.896698 11.5342-0.331655 11.7308 0.233387 11.829 0.601893 11.829 0.773862L11.6079 0.62646C11.4605 0.528192 11.2271 0.393073 10.9078 0.221104 10.5884 0.0491341 10.269-0.0982682 9.94966-0.221104 9.45832-0.343939 8.97926-0.405356 8.51249-0.405356 7.3824-0.405356 6.38744-0.135119 5.52759 0.405356 4.66774 0.945832 4.1027 1.81796 3.83246 3.02175 3.80789 3.19372 3.79561 3.57451 3.79561 4.16412 3.79561 5.56444 4.22553 7.39469 5.08538 9.65485 5.94523 11.915 6.37515 13.3522 6.37515 13.9664 6.37515 13.9909 6.37515 14.0155 6.37515 14.0401 6.37515 14.2612 6.37515 14.4086 6.37515 14.4823 6.37515 14.556 6.32602 14.642 6.22775 14.7402 6.12948 14.8385 5.99436 14.8876 5.82239 14.8876L5.67499 14.8876C5.10995 14.8876 4.59404 14.6543 4.12727 14.1875 3.66049 13.7207 3.29199 13.2171 3.02175 12.6766 2.75151 12.1361 2.54269 11.6202 2.39529 11.1289 2.24789 10.6375 2.14962 10.3673 2.10048 10.3182 2.05135 10.269 1.85481 10.2445 1.51087 10.2445L0.994966 10.2445C0.847564 10.3919 0.773862 10.5024 0.773862 10.5761Z" transform="matrix(1 0 0 -1.01786 751.322 173.694)"/><path d="M4.12727 20.6363 9.1758 25.5743 9.4706 25.2795C12.6643 22.2332 14.2612 20.6855 14.2612 20.6363L13.3031 19.5677C13.2539 19.5922 12.5415 20.2064 11.1657 21.4102L9.21265 23.1053 7.18586 21.3733C6.86649 21.1031 6.54712 20.8206 6.22775 20.5258 5.90838 20.231 5.65042 19.9976 5.45389 19.8256L5.15908 19.6045C5.10995 19.5554 4.9257 19.7273 4.60632 20.1204L4.12727 20.6363Z" transform="matrix(1 0 0 -1.01786 753.187 174.782)"/><path d="M0.677388 10.0305C0.555805 10.1521 0.495014 10.239 0.495014 10.2911 0.495014 10.3606 0.521067 10.4995 0.573174 10.7079 0.625281 10.9164 0.668703 11.0379 0.703441 11.0727 0.738179 11.1595 0.816339 11.2029 0.937921 11.2029 1.0595 11.2029 1.50241 11.2116 2.26664 11.229L3.64747 11.229 4.14249 13.3133C4.19459 13.5043 4.25538 13.7562 4.32486 14.0688 4.39433 14.3815 4.45513 14.6073 4.50723 14.7462 4.55934 14.8852 4.61145 15.0588 4.66355 15.2673 4.71566 15.4757 4.78514 15.6233 4.87198 15.7102 4.95882 15.797 5.04567 15.9012 5.13251 16.0228 5.21936 16.1444 5.34094 16.2226 5.49726 16.2573 5.65358 16.292 5.8099 16.3094 5.96622 16.3094 6.27886 16.292 6.49597 16.1965 6.61756 16.0228 6.73914 15.8491 6.79993 15.6841 6.79993 15.5278 6.79993 15.4062 6.72177 14.9981 6.56545 14.3033 6.40913 13.6085 6.23544 12.9225 6.04438 12.2451L5.78385 11.2811C5.78385 11.2464 6.21807 11.229 7.08652 11.229L8.41524 11.229C8.53682 11.1074 8.59761 11.0119 8.59761 10.9424 8.59761 10.5603 8.48471 10.2563 8.25892 10.0305L5.47121 10.0305 4.53329 6.25281C3.8559 3.47378 3.5172 1.98006 3.5172 1.77163 3.5172 1.04213 3.75168 0.677388 4.22065 0.677388 4.82856 0.677388 5.4191 0.972659 5.99227 1.5632 6.56545 2.15374 7.02572 2.88324 7.3731 3.75168 7.40784 3.8559 7.45126 3.91669 7.50337 3.93406 7.55548 3.95143 7.68574 3.9688 7.89417 3.98617L7.99838 3.98617C8.25892 3.98617 8.38918 3.91669 8.38918 3.77774 8.38918 3.72563 8.36313 3.62142 8.31102 3.4651 8.22418 3.1872 8.06786 2.85719 7.84206 2.47507 7.61627 2.09295 7.321 1.68478 6.95625 1.25056 6.5915 0.816339 6.14859 0.451592 5.62753 0.15632 5.10646-0.138951 4.57671-0.286587 4.03827-0.286587 3.5172-0.286587 3.02219-0.15632 2.55323 0.104213 2.08427 0.364747 1.74558 0.816339 1.53715 1.45899 1.50241 1.59794 1.48504 1.83242 1.48504 2.16243L1.48504 2.63139 2.39691 6.27886C3.00482 8.72788 3.31746 9.96107 3.33483 9.97844 3.33483 10.0132 2.89192 10.0305 2.00611 10.0305L0.677388 10.0305Z" transform="matrix(1 0 0 -1.01786 771.612 182.711)"/></g></g></g><g><g><g><path d="M3.23663 17.9882C3.5271 19.731 4.64747 21.7435 6.59775 24.0258 8.54803 26.308 10.9548 27.4699 13.8179 27.5114 15.2703 27.5114 16.5981 27.1379 17.8015 26.391 19.0049 25.6441 19.897 24.7105 20.4779 23.5901 22.2207 26.2043 24.3163 27.5114 26.7645 27.5114 28.2998 27.5114 29.6277 27.0549 30.748 26.142 31.8684 25.2292 32.4493 24.005 32.4908 22.4697 32.4908 21.2663 32.2004 20.2912 31.6194 19.5443 31.0385 18.7974 30.4783 18.3409 29.9389 18.1749 29.3994 18.009 28.9222 17.926 28.5073 17.926 27.7189 17.926 27.0757 18.1542 26.5777 18.6106 26.0798 19.0671 25.8308 19.6688 25.8308 20.4157 25.8308 22.3245 26.8682 23.6316 28.943 24.337 28.4865 24.8764 27.6566 25.1462 26.4533 25.1462 25.9138 25.1462 25.5196 25.1047 25.2706 25.0217 23.6938 24.3577 22.532 22.9884 21.785 20.9136 19.2953 11.7432 18.0505 6.39028 18.0505 4.85495 18.0505 3.69308 18.3824 2.86318 19.0463 2.36523 19.7103 1.86729 20.4364 1.61832 21.2249 1.61832 22.7602 1.61832 24.2748 2.30299 25.7686 3.67234 27.2624 5.04168 28.2791 6.72224 28.8185 8.71402 28.943 9.12897 29.0675 9.35719 29.192 9.39869 29.3164 9.44018 29.6484 9.48168 30.1878 9.52317L30.4368 9.52317C31.0592 9.52317 31.3705 9.35719 31.3705 9.02523 31.3705 8.98374 31.329 8.75551 31.246 8.34056 30.582 5.97533 29.2957 3.87981 27.3869 2.05402 25.4781 0.228224 23.2581-0.684673 20.7269-0.684673 17.8222-0.684673 15.623 0.62243 14.1292 3.23663 12.4278 0.663925 10.4776-0.62243 8.27831-0.62243L7.90486-0.62243C5.87159-0.62243 4.41925-0.0829906 3.54785 0.995888 2.67645 2.07477 2.22 3.21589 2.1785 4.41925 2.1785 5.7471 2.57271 6.82598 3.36112 7.65589 4.14953 8.48579 5.08318 8.90074 6.16205 8.90074 7.94635 8.90074 8.8385 8.02934 8.8385 6.28654 8.8385 5.45663 8.58953 4.73047 8.09159 4.10804 7.59364 3.48561 7.11645 3.07065 6.66 2.86318 6.20355 2.6557 5.93383 2.55196 5.85084 2.55196L5.66411 2.48972C5.66411 2.44822 5.7886 2.36523 6.03757 2.24075 6.28654 2.11626 6.6185 1.97103 7.03346 1.80505 7.44841 1.63906 7.84261 1.57682 8.21607 1.61832 9.7099 1.61832 10.9963 2.55196 12.0751 4.41925 12.4486 5.08318 12.9258 6.49402 13.5067 8.65177 14.0877 10.8095 14.6686 13.0503 15.2495 15.374 15.8305 17.6978 16.1624 19.0671 16.2454 19.482 16.4529 20.6024 16.5566 21.4116 16.5566 21.9095 16.5566 23.0714 16.2454 23.9013 15.623 24.3992 15.0006 24.8972 14.2951 25.1462 13.5067 25.1462 11.8469 25.1462 10.2908 24.4822 8.8385 23.1544 7.38617 21.8265 6.36953 20.1252 5.7886 18.0505 5.70561 17.677 5.60187 17.4695 5.47738 17.428 5.3529 17.3865 5.02093 17.345 4.48149 17.3035L3.61009 17.3035C3.36112 17.5525 3.23663 17.7807 3.23663 17.9882Z" transform="matrix(1 0 0 -1.01786 193.697 642.003)"/><path d="M1.14415 16.9422C0.93879 17.1476 0.83611 17.2943 0.83611 17.3823 0.83611 17.4996 0.880116 17.7343 0.968127 18.0864 1.05614 18.4384 1.12948 18.6438 1.18816 18.7025 1.24683 18.8491 1.37885 18.9225 1.58421 18.9225 1.78957 18.9225 2.53767 18.9372 3.8285 18.9665L6.16081 18.9665 6.99692 22.487C7.08493 22.8097 7.18761 23.2351 7.30496 23.7631 7.42231 24.2912 7.52499 24.6726 7.613 24.9073 7.70101 25.142 7.78902 25.4353 7.87703 25.7874 7.96505 26.1394 8.0824 26.3888 8.22908 26.5355 8.37577 26.6822 8.52245 26.8582 8.66914 27.0636 8.81582 27.2689 9.02118 27.4009 9.28522 27.4596 9.54925 27.5183 9.81329 27.5476 10.0773 27.5476 10.6054 27.5183 10.9721 27.3569 11.1775 27.0636 11.3828 26.7702 11.4855 26.4915 11.4855 26.2274 11.4855 26.0221 11.3535 25.3327 11.0895 24.1592 10.8254 22.9857 10.5321 21.8269 10.2093 20.6827L9.76928 19.0545C9.76928 18.9958 10.5027 18.9665 11.9696 18.9665L14.2139 18.9665C14.4192 18.7611 14.5219 18.5998 14.5219 18.4824 14.5219 17.837 14.3312 17.3236 13.9498 16.9422L9.24121 16.9422 7.65701 10.5614C6.51286 5.86744 5.94078 3.34444 5.94078 2.99239 5.94078 1.76023 6.33683 1.14415 7.12894 1.14415 8.15574 1.14415 9.1532 1.64288 10.1213 2.64035 11.0895 3.63781 11.8669 4.86997 12.4536 6.33683 12.5123 6.51286 12.5857 6.61554 12.6737 6.64487 12.7617 6.67421 12.9817 6.70355 13.3338 6.73288L13.5098 6.73288C13.9498 6.73288 14.1699 6.61554 14.1699 6.38084 14.1699 6.29283 14.1259 6.1168 14.0378 5.85277 13.8912 5.38337 13.6271 4.82597 13.2457 4.18055 12.8644 3.53513 12.3656 2.84571 11.7495 2.11228 11.1335 1.37885 10.3854 0.762767 9.50525 0.264035 8.62513-0.234698 7.73035-0.484064 6.8209-0.484064 5.94078-0.484064 5.10467-0.264035 4.31257 0.176023 3.52046 0.616081 2.94839 1.37885 2.59634 2.46432 2.53767 2.69902 2.50833 3.09507 2.50833 3.65248L2.50833 4.44458 4.04853 10.6054C5.07533 14.7419 5.6034 16.8249 5.63274 16.8542 5.63274 16.9129 4.88464 16.9422 3.38845 16.9422L1.14415 16.9422Z" transform="matrix(1 0 0 -1.01786 229.3 651.506)"/></g></g></g><g><g><g><path d="M0.624752 8.53828C0.644585 8.59778 0.664419 8.67711 0.684252 8.77628 0.704086 8.87545 0.753669 9.09361 0.833003 9.43078 0.912336 9.76795 1.0115 10.0754 1.1305 10.353 1.2495 10.6307 1.39825 10.958 1.57676 11.3348 1.75526 11.7116 1.95359 12.0091 2.17176 12.2273 2.38992 12.4455 2.64776 12.6636 2.94526 12.8818 3.24276 13.1 3.57001 13.1892 3.92701 13.1495 4.50218 13.1495 5.00793 13.0305 5.44427 12.7925 5.8806 12.5545 6.18802 12.3364 6.36652 12.138 6.54502 11.9397 6.65411 11.7414 6.69377 11.543 6.73344 11.424 6.76319 11.3645 6.78302 11.3645 6.80286 11.3645 6.88219 11.434 7.02102 11.5728 7.97303 12.6041 9.07378 13.1198 10.3233 13.1198L10.4125 13.1198C11.3645 13.1198 12.0785 12.7132 12.5545 11.9 12.7132 11.5232 12.7925 11.1563 12.7925 10.7993 12.7925 10.2043 12.6636 9.72828 12.4058 9.37128 12.148 9.01428 11.8901 8.7862 11.6323 8.68703 11.3745 8.58786 11.1265 8.5482 10.8885 8.56803 10.4919 8.56803 10.1745 8.67711 9.93653 8.89528 9.69853 9.11345 9.57953 9.40103 9.57953 9.75803 9.57953 10.71 10.1349 11.3447 11.2455 11.662 10.8092 11.9199 10.4522 12.0488 10.1745 12.0488 9.06386 12.0488 8.04244 11.315 7.11027 9.84728 6.91194 9.52995 6.76319 9.2027 6.66402 8.86553 6.56486 8.52836 6.22769 7.20944 5.65252 4.90877 4.97818 2.13209 4.59143 0.654502 4.49227 0.476002 4.23443-0.0595002 3.80801-0.327251 3.21301-0.327251 2.95518-0.327251 2.74693-0.267751 2.58826-0.14875 2.42959-0.0297501 2.32051 0.0892503 2.26101 0.208251 2.20151 0.327251 2.18167 0.426418 2.20151 0.505752 2.20151 0.763586 2.59818 2.46926 3.39151 5.62277 4.18485 8.77628 4.58152 10.5315 4.58152 10.8885 4.58152 11.662 4.32368 12.0488 3.80801 12.0488 3.39151 12.0488 3.03451 11.7711 2.73701 11.2158 2.43951 10.6605 2.20151 10.0555 2.02301 9.40103 1.84451 8.74653 1.73542 8.38953 1.69576 8.33003 1.65609 8.29036 1.49742 8.27053 1.21975 8.27053L0.803253 8.27053C0.684252 8.38953 0.624752 8.47878 0.624752 8.53828Z" transform="matrix(1.06667 0 0 -1 287 413.227)"/><path d="M0.546866 8.09783C0.448711 8.19598 0.399633 8.2661 0.399633 8.30816 0.399633 8.36425 0.420666 8.47643 0.462733 8.64469 0.5048 8.81296 0.539855 8.91112 0.5679 8.93916 0.595944 9.00927 0.659044 9.04433 0.7572 9.04433 0.855355 9.04433 1.21292 9.05134 1.8299 9.06536L2.94466 9.06536 3.3443 10.748C3.38636 10.9023 3.43544 11.1056 3.49153 11.358 3.54762 11.6104 3.5967 11.7927 3.63876 11.9049 3.68083 12.017 3.7229 12.1573 3.76496 12.3255 3.80703 12.4938 3.86312 12.613 3.93323 12.6831 4.00334 12.7532 4.07345 12.8373 4.14356 12.9355 4.21368 13.0336 4.31183 13.0967 4.43803 13.1248 4.56423 13.1528 4.69043 13.1669 4.81663 13.1669 5.06903 13.1528 5.24431 13.0757 5.34246 12.9355 5.44062 12.7953 5.4897 12.6621 5.4897 12.5359 5.4897 12.4377 5.4266 12.1082 5.3004 11.5473 5.1742 10.9864 5.03397 10.4325 4.87973 9.88566L4.6694 9.10743C4.6694 9.07938 5.01995 9.06536 5.72106 9.06536L6.79376 9.06536C6.89192 8.96721 6.941 8.89008 6.941 8.83399 6.941 8.52551 6.84985 8.28012 6.66756 8.09783L4.417 8.09783 3.6598 5.048C3.11293 2.80444 2.8395 1.59853 2.8395 1.43027 2.8395 0.841333 3.0288 0.546866 3.4074 0.546866 3.89818 0.546866 4.37493 0.785244 4.83766 1.262 5.3004 1.73875 5.67199 2.32769 5.95243 3.0288 5.98047 3.11293 6.01553 3.16201 6.0576 3.17603 6.09966 3.19005 6.20483 3.20408 6.3731 3.2181L6.45723 3.2181C6.66756 3.2181 6.77273 3.16201 6.77273 3.04983 6.77273 3.00776 6.7517 2.92363 6.70963 2.79743 6.63952 2.57308 6.51332 2.30665 6.33103 1.99817 6.14874 1.68968 5.91036 1.36015 5.6159 1.0096 5.32143 0.659044 4.96386 0.364578 4.5432 0.1262 4.12253-0.112178 3.69485-0.231367 3.26016-0.231367 2.8395-0.231367 2.43987-0.1262 2.06127 0.0841333 1.68267 0.294466 1.40923 0.659044 1.24097 1.17787 1.21292 1.29004 1.1989 1.47934 1.1989 1.74577L1.1989 2.12437 1.93507 5.06903C2.42584 7.04616 2.67824 8.04174 2.69227 8.05576 2.69227 8.08381 2.3347 8.09783 1.61957 8.09783L0.546866 8.09783Z" transform="matrix(1.06667 0 0 -1 301.312 417.69)"/></g></g></g><g><g><g><path d="M10.1357 9.87278C9.94093 9.87278 9.4249 9.97988 8.58756 10.1941 7.75023 10.4083 7.13683 10.5154 6.74737 10.5154 6.35791 10.5154 6.02687 10.4764 5.75425 10.3985 5.48163 10.3207 5.25769 10.2233 5.08244 10.1065 4.90718 9.98961 4.79034 9.88251 4.73192 9.78515 4.6735 9.68778 4.60535 9.58068 4.52746 9.46385L4.46904 9.34701C4.41062 9.28859 4.26457 9.25938 4.0309 9.25938 3.62197 9.25938 3.4175 9.33727 3.4175 9.49306 3.4175 9.59042 3.44671 9.72673 3.50513 9.90199 3.75828 10.6614 4.17694 11.3138 4.76113 11.859 5.34532 12.4043 5.98793 12.7353 6.68895 12.8521 6.92263 12.8911 7.08815 12.9106 7.18551 12.9106 7.67234 12.9106 8.11048 12.745 8.49994 12.414 8.88939 12.083 9.25938 11.7617 9.60989 11.4501 9.96041 11.1385 10.3304 10.973 10.7198 10.9535 11.1483 10.9535 11.5767 11.2748 12.0051 11.9174 12.4335 12.56 12.6574 12.8813 12.6769 12.8813 12.6964 12.9008 12.8424 12.9106 13.115 12.9106L13.4947 12.9106C13.6116 12.7937 13.67 12.7158 13.67 12.6769 13.67 12.599 13.6213 12.4627 13.524 12.2679 13.4266 12.0732 13.2903 11.8688 13.115 11.6546 12.9398 11.4403 12.7742 11.2261 12.6185 11.0119 12.4627 10.7977 12.3264 10.6127 12.2095 10.457L12.0051 10.1941C11.1677 9.20096 9.84357 7.88654 8.03259 6.25081 6.2216 4.61509 5.10191 3.56355 4.6735 3.0962L4.32299 2.74568 4.76113 2.71647C5.18954 2.71647 5.81267 2.60937 6.63053 2.39517 7.4484 2.18097 8.06179 2.07387 8.47073 2.07387 9.2107 2.07387 9.89225 2.25886 10.5154 2.62885 11.1385 2.99883 11.5475 3.48566 11.7422 4.08932 11.8201 4.26457 11.8882 4.37167 11.9466 4.41062 12.0051 4.44956 12.1511 4.46904 12.3848 4.46904 12.7548 4.46904 12.9398 4.37167 12.9398 4.17694 12.9398 4.07958 12.93 3.99195 12.9106 3.91406 12.5795 2.70674 11.9369 1.70388 10.9827 0.905491 10.0286 0.107101 9.07439-0.30183 8.12021-0.321303 7.61392-0.321303 7.16604-0.155783 6.77658 0.175256 6.38712 0.506296 6.0074 0.837336 5.63741 1.16838 5.26743 1.49942 4.89744 1.66494 4.52746 1.66494 3.67065 1.66494 2.90147 1.08075 2.21991-0.0876282 2.10308-0.243412 1.93756-0.321303 1.72335-0.321303L1.57731-0.321303 1.19759-0.321303C1.08075-0.204466 1.02233-0.116838 1.02233-0.0584188 1.02233 0.233675 1.58704 1.07101 2.71647 2.45359 3.47592 3.32987 4.76113 4.59561 6.57211 6.25081 8.3831 7.90601 9.50279 8.95755 9.9312 9.40543 10.1649 9.71699 10.233 9.87278 10.1357 9.87278Z" transform="matrix(1.06667 0 0 -1 441 413.151)"/><path d="M0.536927 7.95065C0.440556 8.04702 0.39237 8.11586 0.39237 8.15716 0.39237 8.21223 0.413021 8.32237 0.454323 8.48758 0.495625 8.65279 0.530043 8.74916 0.557578 8.77669 0.585113 8.84553 0.647066 8.87995 0.743438 8.87995 0.839809 8.87995 1.19088 8.88683 1.79664 8.9006L2.89115 8.9006 3.28352 10.5527C3.32482 10.7041 3.373 10.9038 3.42807 11.1516 3.48314 11.3994 3.53133 11.5784 3.57263 11.6885 3.61393 11.7986 3.65523 11.9363 3.69654 12.1015 3.73784 12.2667 3.79291 12.3837 3.86175 12.4526 3.93058 12.5214 3.99942 12.604 4.06826 12.7004 4.13709 12.7968 4.23346 12.8587 4.35737 12.8863 4.48128 12.9138 4.60518 12.9276 4.72909 12.9276 4.9769 12.9138 5.14899 12.8381 5.24537 12.7004 5.34174 12.5627 5.38992 12.4319 5.38992 12.308 5.38992 12.2117 5.32797 11.8881 5.20406 11.3374 5.08016 10.7867 4.94248 10.2429 4.79104 9.70599L4.58453 8.9419C4.58453 8.91437 4.92872 8.9006 5.61708 8.9006L6.67029 8.9006C6.76666 8.80423 6.81484 8.72851 6.81484 8.67344 6.81484 8.37056 6.72536 8.12963 6.54638 7.95065L4.33672 7.95065 3.59328 4.95625C3.05635 2.75347 2.78789 1.56948 2.78789 1.40427 2.78789 0.826042 2.97375 0.536927 3.34547 0.536927 3.82733 0.536927 4.29542 0.770972 4.74974 1.23906 5.20406 1.70715 5.5689 2.28538 5.84425 2.97375 5.87178 3.05635 5.9062 3.10454 5.9475 3.11831 5.9888 3.13208 6.09206 3.14584 6.25727 3.15961L6.33987 3.15961C6.54638 3.15961 6.64964 3.10454 6.64964 2.9944 6.64964 2.9531 6.62899 2.8705 6.58768 2.74659 6.51885 2.52631 6.39494 2.26473 6.21596 1.96185 6.03699 1.65897 5.80294 1.33543 5.51383 0.99125 5.22471 0.647066 4.87365 0.357951 4.46063 0.123906 4.0476-0.110139 3.6277-0.227161 3.20091-0.227161 2.78789-0.227161 2.39552-0.123906 2.0238 0.0826042 1.65208 0.289115 1.38362 0.647066 1.21841 1.15646 1.19088 1.2666 1.17711 1.45246 1.17711 1.71404L1.17711 2.08576 1.8999 4.9769C2.38175 6.9181 2.62957 7.89558 2.64333 7.90935 2.64333 7.93688 2.29227 7.95065 1.59013 7.95065L0.536927 7.95065Z" transform="matrix(1.06667 0 0 -1 455.488 417.532)"/></g></g></g><g><g><g><path d="M3.5754 17.8248C3.5928 17.8248 4.21915 17.8683 5.45444 17.9553 6.68974 18.0423 7.32479 18.0945 7.35958 18.1119 7.56837 18.1119 7.67276 18.0336 7.67276 17.877 7.67276 17.6856 7.35958 16.372 6.73323 13.9362 6.07209 11.3612 5.74152 10.0477 5.74152 9.99546 5.74152 9.96066 5.80241 10.0042 5.9242 10.1259 6.98551 11.0655 8.11642 11.5352 9.31692 11.5352 10.2564 11.5352 11.0133 11.3004 11.5874 10.8306 12.1616 10.3608 12.4574 9.67359 12.4748 8.76886 12.4748 7.88154 12.1442 6.50705 11.483 4.64541 10.8219 2.78377 10.4913 1.67026 10.4913 1.30489 10.5087 1.06131 10.5522 0.896025 10.6218 0.809032 10.6914 0.722039 10.8219 0.678543 11.0133 0.678543 11.5004 0.678543 11.9528 0.939521 12.3704 1.46148 12.7879 1.98343 13.1272 2.69677 13.3882 3.6015 13.4404 3.79288 13.4926 3.90597 13.5448 3.94077 13.597 3.97557 13.7361 3.99296 13.9623 3.99296 14.3103 3.99296 14.4843 3.92337 14.4843 3.78418 14.4843 3.76678 14.4495 3.63629 14.3799 3.39272 14.1015 2.3662 13.6579 1.52237 13.0489 0.861228 12.4574 0.113091 11.7527-0.260978 10.935-0.260978L10.8045-0.260978C9.98676-0.260978 9.39521-0.0260978 9.02984 0.443663 8.66447 0.913423 8.48179 1.40928 8.48179 1.93124 8.48179 2.20961 8.79496 3.23613 9.42131 5.01078 10.0477 6.78543 10.3695 8.11642 10.3869 9.00374 10.3869 10.0303 10.0042 10.5435 9.23862 10.5435L9.10814 10.5435C7.66406 10.5435 6.41136 9.69099 5.35005 7.98593L5.16737 7.64666 4.28004 4.12345C3.72329 1.86164 3.40141 0.626347 3.31442 0.417565 3.08824-0.0521956 2.70547-0.287076 2.16612-0.287076 1.92254-0.287076 1.71376-0.208782 1.53977-0.0521956 1.36579 0.104391 1.27009 0.260978 1.25269 0.417565 1.25269 0.661145 1.88774 3.30572 3.15784 8.3513L5.08907 16.0763C5.08907 16.3024 5.02818 16.4416 4.90639 16.4938 4.7846 16.546 4.44533 16.5895 3.88857 16.6243L3.34052 16.6243C3.23613 16.7287 3.18393 16.7983 3.18393 16.8331 3.18393 16.8679 3.20133 17.0332 3.23613 17.3289 3.32312 17.6595 3.43621 17.8248 3.5754 17.8248Z" transform="matrix(1 0 0 -1.01087 653 412.833)"/><path d="M2.92295 14.6148 6.49835 18.1119 6.70714 17.9031C8.96895 15.7457 10.0999 14.6496 10.0999 14.6148L9.42131 13.8579C9.38651 13.8753 8.88196 14.3103 7.90764 15.1628L6.52445 16.3633 5.08907 15.1367C4.86289 14.9453 4.63671 14.7453 4.41053 14.5365 4.18435 14.3277 4.00166 14.1624 3.86248 14.0406L3.65369 13.884C3.6189 13.8492 3.48841 13.971 3.26223 14.2494L2.92295 14.6148Z" transform="matrix(1 0 0 -1.01087 653.266 406.95)"/><path d="M0.47973 7.10369C0.393625 7.1898 0.350572 7.2513 0.350572 7.28821 0.350572 7.33741 0.369023 7.43581 0.405925 7.58342 0.442828 7.73103 0.47358 7.81714 0.498181 7.84174 0.522783 7.90324 0.578136 7.934 0.664241 7.934 0.750347 7.934 1.06402 7.94015 1.60525 7.95245L2.58316 7.95245 2.93373 9.42854C2.97064 9.56385 3.01369 9.74221 3.06289 9.96362 3.11209 10.185 3.15515 10.3449 3.19205 10.4434 3.22895 10.5418 3.26585 10.6648 3.30276 10.8124 3.33966 10.96 3.38886 11.0645 3.45037 11.126 3.51187 11.1875 3.57337 11.2614 3.63488 11.3475 3.69638 11.4336 3.78249 11.4889 3.89319 11.5135 4.0039 11.5381 4.11461 11.5504 4.22531 11.5504 4.44673 11.5381 4.60049 11.4705 4.68659 11.3475 4.7727 11.2245 4.81575 11.1076 4.81575 10.9969 4.81575 10.9108 4.7604 10.6217 4.64969 10.1297 4.53898 9.63765 4.41598 9.15177 4.28067 8.67204L4.09616 7.98935C4.09616 7.96475 4.40368 7.95245 5.01871 7.95245L5.95972 7.95245C6.04583 7.86634 6.08888 7.79869 6.08888 7.74948 6.08888 7.47887 6.00892 7.2636 5.84902 7.10369L3.87474 7.10369 3.2105 4.42828C2.73077 2.46015 2.49091 1.40229 2.49091 1.25468 2.49091 0.738046 2.65697 0.47973 2.98909 0.47973 3.41961 0.47973 3.83784 0.688843 4.24376 1.10707 4.64969 1.5253 4.97566 2.04193 5.22168 2.65697 5.24628 2.73077 5.27703 2.77382 5.31393 2.78612 5.35083 2.79842 5.44309 2.81073 5.5907 2.82303L5.6645 2.82303C5.84902 2.82303 5.94127 2.77382 5.94127 2.67542 5.94127 2.63851 5.92282 2.56471 5.88592 2.454 5.82441 2.25719 5.71371 2.02348 5.5538 1.75286 5.39389 1.48224 5.18477 1.19317 4.92646 0.885655 4.66814 0.578136 4.35447 0.31982 3.98545 0.110707 3.61643-0.0984062 3.24125-0.202963 2.85993-0.202963 2.49091-0.202963 2.14033-0.110707 1.80821 0.0738046 1.47609 0.258316 1.23623 0.578136 1.08862 1.03326 1.06402 1.13167 1.05172 1.29773 1.05172 1.53145L1.05172 1.86357 1.69751 4.44673C2.12803 6.18114 2.34945 7.05449 2.36175 7.06679 2.36175 7.09139 2.04808 7.10369 1.42074 7.10369L0.47973 7.10369Z" transform="matrix(1 0 0 -1.01087 668.032 416.791)"/></g></g></g><g clip-path="url(#clip6)"><g clip-path="url(#clip7)"><g clip-path="url(#clip8)"><path d="M2.15232 11.9619C2.34547 13.1209 3.09051 14.4592 4.38742 15.9768 5.68433 17.4945 7.28477 18.2671 9.18874 18.2947 10.1545 18.2947 11.0375 18.0464 11.8377 17.5497 12.638 17.053 13.2312 16.4321 13.6175 15.6871 14.7765 17.4255 16.17 18.2947 17.798 18.2947 18.819 18.2947 19.702 17.9912 20.447 17.3841 21.1921 16.777 21.5784 15.963 21.606 14.9421 21.606 14.1418 21.4128 13.4934 21.0265 12.9967 20.6402 12.5 20.2677 12.1965 19.9089 12.0861 19.5502 11.9757 19.2329 11.9205 18.957 11.9205 18.4327 11.9205 18.005 12.0723 17.6738 12.3758 17.3427 12.6794 17.1772 13.0795 17.1772 13.5762 17.1772 14.8455 17.867 15.7147 19.2467 16.1838 18.9432 16.5425 18.3913 16.7219 17.5911 16.7219 17.2323 16.7219 16.9702 16.6943 16.8046 16.6391 15.7561 16.1976 14.9834 15.287 14.4868 13.9073 12.8311 7.80905 12.0033 4.24945 12.0033 3.22848 12.0033 2.45585 12.2241 1.90397 12.6656 1.57285 13.1071 1.24172 13.59 1.07616 14.1142 1.07616 15.1352 1.07616 16.1424 1.53146 17.1358 2.44205 18.1291 3.35265 18.8052 4.4702 19.1639 5.7947 19.2467 6.07064 19.3295 6.22241 19.4123 6.25 19.495 6.27759 19.7158 6.30519 20.0745 6.33278L20.2401 6.33278C20.654 6.33278 20.8609 6.22241 20.8609 6.00166 20.8609 5.97406 20.8333 5.8223 20.7781 5.54636 20.3366 3.97351 19.4812 2.58002 18.2119 1.36589 16.9426 0.151766 15.4663-0.455298 13.7831-0.455298 11.8515-0.455298 10.3891 0.413907 9.3957 2.15232 8.26435 0.441501 6.96744-0.413907 5.50497-0.413907L5.25662-0.413907C3.90453-0.413907 2.93874-0.0551876 2.35927 0.662252 1.7798 1.37969 1.47627 2.13852 1.44868 2.93874 1.44868 3.82174 1.71082 4.53918 2.2351 5.09106 2.75938 5.64294 3.38024 5.91887 4.09768 5.91887 5.28422 5.91887 5.87748 5.3394 5.87748 4.18046 5.87748 3.62859 5.71192 3.1457 5.38079 2.73179 5.04967 2.31788 4.73234 2.04194 4.42881 1.90397 4.12528 1.766 3.94592 1.69702 3.89073 1.69702L3.76656 1.65563C3.76656 1.62804 3.84934 1.57285 4.0149 1.49007 4.18046 1.40728 4.40121 1.31071 4.67715 1.20033 4.95309 1.08996 5.21523 1.04857 5.46358 1.07616 6.45695 1.07616 7.31236 1.69702 8.0298 2.93874 8.27815 3.38024 8.59548 4.31843 8.98179 5.75331 9.3681 7.18819 9.75442 8.67826 10.1407 10.2235 10.527 11.7688 10.7478 12.6794 10.803 12.9553 10.9409 13.7003 11.0099 14.2384 11.0099 14.5695 11.0099 15.3422 10.803 15.894 10.3891 16.2252 9.97517 16.5563 9.50607 16.7219 8.98179 16.7219 7.87804 16.7219 6.84327 16.2804 5.87748 15.3974 4.9117 14.5143 4.23565 13.383 3.84934 12.0033 3.79415 11.755 3.72517 11.617 3.64238 11.5894 3.5596 11.5618 3.33885 11.5342 2.98013 11.5066L2.40066 11.5066C2.2351 11.6722 2.15232 11.824 2.15232 11.9619Z" transform="matrix(1 0 0 -1.01333 318.662 386.539)"/></g></g></g><g clip-path="url(#clip9)"><g clip-path="url(#clip10)"><g clip-path="url(#clip11)"><path d="M2.15232 11.9619C2.34547 13.1209 3.09051 14.4592 4.38742 15.9768 5.68433 17.4945 7.28477 18.2671 9.18874 18.2947 10.1545 18.2947 11.0375 18.0464 11.8377 17.5497 12.638 17.053 13.2312 16.4321 13.6175 15.6871 14.7765 17.4255 16.17 18.2947 17.798 18.2947 18.819 18.2947 19.702 17.9912 20.447 17.3841 21.1921 16.777 21.5784 15.963 21.606 14.9421 21.606 14.1418 21.4128 13.4934 21.0265 12.9967 20.6402 12.5 20.2677 12.1965 19.9089 12.0861 19.5502 11.9757 19.2329 11.9205 18.957 11.9205 18.4327 11.9205 18.005 12.0723 17.6738 12.3758 17.3427 12.6794 17.1772 13.0795 17.1772 13.5762 17.1772 14.8455 17.867 15.7147 19.2467 16.1838 18.9432 16.5425 18.3913 16.7219 17.5911 16.7219 17.2323 16.7219 16.9702 16.6943 16.8046 16.6391 15.7561 16.1976 14.9834 15.287 14.4868 13.9073 12.8311 7.80905 12.0033 4.24945 12.0033 3.22848 12.0033 2.45585 12.2241 1.90397 12.6656 1.57285 13.1071 1.24172 13.59 1.07616 14.1142 1.07616 15.1352 1.07616 16.1424 1.53146 17.1358 2.44205 18.1291 3.35265 18.8052 4.4702 19.1639 5.7947 19.2467 6.07064 19.3295 6.22241 19.4123 6.25 19.495 6.27759 19.7158 6.30519 20.0745 6.33278L20.2401 6.33278C20.654 6.33278 20.8609 6.22241 20.8609 6.00166 20.8609 5.97406 20.8333 5.8223 20.7781 5.54636 20.3366 3.97351 19.4812 2.58002 18.2119 1.36589 16.9426 0.151766 15.4663-0.455298 13.7831-0.455298 11.8515-0.455298 10.3891 0.413907 9.3957 2.15232 8.26435 0.441501 6.96744-0.413907 5.50497-0.413907L5.25662-0.413907C3.90453-0.413907 2.93874-0.0551876 2.35927 0.662252 1.7798 1.37969 1.47627 2.13852 1.44868 2.93874 1.44868 3.82174 1.71082 4.53918 2.2351 5.09106 2.75938 5.64294 3.38024 5.91887 4.09768 5.91887 5.28422 5.91887 5.87748 5.3394 5.87748 4.18046 5.87748 3.62859 5.71192 3.1457 5.38079 2.73179 5.04967 2.31788 4.73234 2.04194 4.42881 1.90397 4.12528 1.766 3.94592 1.69702 3.89073 1.69702L3.76656 1.65563C3.76656 1.62804 3.84934 1.57285 4.0149 1.49007 4.18046 1.40728 4.40121 1.31071 4.67715 1.20033 4.95309 1.08996 5.21523 1.04857 5.46358 1.07616 6.45695 1.07616 7.31236 1.69702 8.0298 2.93874 8.27815 3.38024 8.59548 4.31843 8.98179 5.75331 9.3681 7.18819 9.75442 8.67826 10.1407 10.2235 10.527 11.7688 10.7478 12.6794 10.803 12.9553 10.9409 13.7003 11.0099 14.2384 11.0099 14.5695 11.0099 15.3422 10.803 15.894 10.3891 16.2252 9.97517 16.5563 9.50607 16.7219 8.98179 16.7219 7.87804 16.7219 6.84327 16.2804 5.87748 15.3974 4.9117 14.5143 4.23565 13.383 3.84934 12.0033 3.79415 11.755 3.72517 11.617 3.64238 11.5894 3.5596 11.5618 3.33885 11.5342 2.98013 11.5066L2.40066 11.5066C2.2351 11.6722 2.15232 11.824 2.15232 11.9619Z" transform="matrix(1 0 0 -1.01333 468.662 314.539)"/></g></g></g><g clip-path="url(#clip12)"><g clip-path="url(#clip13)"><g clip-path="url(#clip14)"><path d="M2.15232 11.9619C2.34547 13.1209 3.09051 14.4592 4.38742 15.9768 5.68433 17.4945 7.28477 18.2671 9.18874 18.2947 10.1545 18.2947 11.0375 18.0464 11.8377 17.5497 12.638 17.053 13.2312 16.4321 13.6175 15.6871 14.7765 17.4255 16.17 18.2947 17.798 18.2947 18.819 18.2947 19.702 17.9912 20.447 17.3841 21.1921 16.777 21.5784 15.963 21.606 14.9421 21.606 14.1418 21.4128 13.4934 21.0265 12.9967 20.6402 12.5 20.2677 12.1965 19.9089 12.0861 19.5502 11.9757 19.2329 11.9205 18.957 11.9205 18.4327 11.9205 18.005 12.0723 17.6738 12.3758 17.3427 12.6794 17.1772 13.0795 17.1772 13.5762 17.1772 14.8455 17.867 15.7147 19.2467 16.1838 18.9432 16.5425 18.3913 16.7219 17.5911 16.7219 17.2323 16.7219 16.9702 16.6943 16.8046 16.6391 15.7561 16.1976 14.9834 15.287 14.4868 13.9073 12.8311 7.80905 12.0033 4.24945 12.0033 3.22848 12.0033 2.45585 12.2241 1.90397 12.6656 1.57285 13.1071 1.24172 13.59 1.07616 14.1142 1.07616 15.1352 1.07616 16.1424 1.53146 17.1358 2.44205 18.1291 3.35265 18.8052 4.4702 19.1639 5.7947 19.2467 6.07064 19.3295 6.22241 19.4123 6.25 19.495 6.27759 19.7158 6.30519 20.0745 6.33278L20.2401 6.33278C20.654 6.33278 20.8609 6.22241 20.8609 6.00166 20.8609 5.97406 20.8333 5.8223 20.7781 5.54636 20.3366 3.97351 19.4812 2.58002 18.2119 1.36589 16.9426 0.151766 15.4663-0.455298 13.7831-0.455298 11.8515-0.455298 10.3891 0.413907 9.3957 2.15232 8.26435 0.441501 6.96744-0.413907 5.50497-0.413907L5.25662-0.413907C3.90453-0.413907 2.93874-0.0551876 2.35927 0.662252 1.7798 1.37969 1.47627 2.13852 1.44868 2.93874 1.44868 3.82174 1.71082 4.53918 2.2351 5.09106 2.75938 5.64294 3.38024 5.91887 4.09768 5.91887 5.28422 5.91887 5.87748 5.3394 5.87748 4.18046 5.87748 3.62859 5.71192 3.1457 5.38079 2.73179 5.04967 2.31788 4.73234 2.04194 4.42881 1.90397 4.12528 1.766 3.94592 1.69702 3.89073 1.69702L3.76656 1.65563C3.76656 1.62804 3.84934 1.57285 4.0149 1.49007 4.18046 1.40728 4.40121 1.31071 4.67715 1.20033 4.95309 1.08996 5.21523 1.04857 5.46358 1.07616 6.45695 1.07616 7.31236 1.69702 8.0298 2.93874 8.27815 3.38024 8.59548 4.31843 8.98179 5.75331 9.3681 7.18819 9.75442 8.67826 10.1407 10.2235 10.527 11.7688 10.7478 12.6794 10.803 12.9553 10.9409 13.7003 11.0099 14.2384 11.0099 14.5695 11.0099 15.3422 10.803 15.894 10.3891 16.2252 9.97517 16.5563 9.50607 16.7219 8.98179 16.7219 7.87804 16.7219 6.84327 16.2804 5.87748 15.3974 4.9117 14.5143 4.23565 13.383 3.84934 12.0033 3.79415 11.755 3.72517 11.617 3.64238 11.5894 3.5596 11.5618 3.33885 11.5342 2.98013 11.5066L2.40066 11.5066C2.2351 11.6722 2.15232 11.824 2.15232 11.9619Z" transform="matrix(1 0 0 -1.01333 617.662 394.539)"/></g></g></g><g><g><g><path d="M5.33333 14.4726 5.00782 14.3474C4.77413 14.264 4.44027 14.1805 4.00626 14.097 3.57225 14.0136 3.08816 13.9551 2.55399 13.9218L2.07825 13.9218 2.07825 15.0736 2.55399 15.0736C3.33855 15.1069 4.06468 15.2321 4.73239 15.4491 5.4001 15.6661 5.8675 15.8665 6.13459 16.0501 6.40167 16.2337 6.63537 16.4173 6.83568 16.6009 6.86907 16.651 6.96922 16.6761 7.13615 16.6761 7.28639 16.6761 7.42827 16.626 7.56182 16.5258L7.56182 9.03912 7.58685 1.52739C7.7037 1.41054 7.80386 1.33542 7.88732 1.30203 7.97079 1.26865 8.1711 1.23526 8.48826 1.20188 8.80542 1.16849 9.3229 1.1518 10.0407 1.1518L10.6917 1.1518 10.6917 0 10.4163 0C10.0657 0.0500782 8.73865 0.0751174 6.43505 0.0751174 4.16484 0.0751174 2.85446 0.0500782 2.50391 0L2.20344 0 2.20344 1.1518 2.85446 1.1518C3.2217 1.1518 3.53886 1.1518 3.80595 1.1518 4.07303 1.1518 4.28169 1.16015 4.43192 1.17684 4.58216 1.19353 4.7157 1.21857 4.83255 1.25196 4.9494 1.28534 5.01617 1.30203 5.03286 1.30203 5.04956 1.30203 5.09964 1.34377 5.1831 1.42723 5.26656 1.51069 5.31664 1.54408 5.33333 1.52739L5.33333 14.4726Z" transform="matrix(1 0 0 -1.00937 466 372.88)"/><path d="M2.10329 5.93427C2.10329 5.93427 2.10329 6.04278 2.10329 6.25978 2.10329 6.47679 2.22014 6.64371 2.45383 6.76056L17.0016 6.76056C17.252 6.62702 17.3772 6.46009 17.3772 6.25978 17.3772 6.05947 17.252 5.89254 17.0016 5.759L2.45383 5.759C2.22014 5.87585 2.10329 6.04278 2.10329 6.25978Z" transform="matrix(1 0 0 -1.00937 478.52 372.88)"/></g></g></g><g clip-path="url(#clip15)"><g clip-path="url(#clip16)"><g clip-path="url(#clip17)"><path d="M1.58469 6.70663C1.58469 6.70663 1.58469 6.82926 1.58469 7.0745 1.58469 7.31975 1.71675 7.50841 1.98086 7.64046L10.442 7.64046 10.442 11.8852 10.4703 16.1299C10.6589 16.3751 10.8381 16.4977 11.0079 16.4977 11.2532 16.4977 11.4418 16.3563 11.5739 16.0733L11.5739 7.64046 20.0067 7.64046C20.2897 7.48954 20.4312 7.30089 20.4312 7.0745 20.4312 6.84812 20.2897 6.65947 20.0067 6.50854L11.5739 6.50854 11.5739-1.92427C11.423-2.18838 11.2532-2.32044 11.0645-2.32044L11.0079-2.32044 10.9513-2.32044C10.7249-2.32044 10.5552-2.18838 10.442-1.92427L10.442 6.50854 1.98086 6.50854C1.71675 6.6406 1.58469 6.82926 1.58469 7.0745Z" transform="matrix(1 0 0 -1.00966 618.492 312.657)"/></g></g></g><g clip-path="url(#clip18)"><g clip-path="url(#clip19)"><g clip-path="url(#clip20)"><path d="M7.80543-0.466629C5.88235-0.466629 4.32692 0.169683 3.13914 1.44231 1.95136 2.71493 1.34333 4.31278 1.31505 6.23586 1.31505 9.06391 2.34729 11.694 4.41176 14.1261 6.47624 16.5583 8.88009 17.9299 11.6233 18.241 11.6516 18.2692 13.6312 18.2834 17.5622 18.2834L23.4163 18.2834C23.4446 18.2551 23.487 18.2268 23.5436 18.1985 23.6001 18.1702 23.6567 18.142 23.7132 18.1137 23.7698 18.0854 23.8122 18.0571 23.8405 18.0288 23.8688 18.0006 23.9112 17.9581 23.9678 17.9016 24.0243 17.845 24.0526 17.8167 24.0526 17.8167 24.0526 17.8167 24.0809 17.7602 24.1374 17.6471 24.194 17.5339 24.2081 17.4774 24.1799 17.4774 24.1516 17.4774 24.1657 17.4067 24.2223 17.2653 24.2788 17.1239 24.293 17.039 24.2647 17.0107 24.2647 15.7664 23.3456 15.1442 21.5074 15.1442 21.3094 15.1442 21.069 15.1442 20.7862 15.1442 20.5034 15.1442 20.3054 15.1584 20.1923 15.1867L17.6471 15.1867 17.8592 14.7624C18.3682 13.6878 18.6227 12.4859 18.6227 11.1567 18.6227 8.04581 17.4915 5.33088 15.2291 3.01188 12.9666 0.692873 10.4921-0.466629 7.80543-0.466629ZM15.3139 11.793C15.3139 14.0554 14.112 15.1867 11.7081 15.1867 8.20136 15.1867 5.92477 12.7262 4.87839 7.80543 4.85011 7.69231 4.83597 7.60747 4.83597 7.55091 4.60973 6.50452 4.49661 5.64197 4.49661 4.96324 4.49661 3.54921 4.85011 2.55939 5.55713 1.99378 6.26414 1.42817 7.07014 1.13122 7.97511 1.10294 9.50226 1.10294 10.9021 1.76753 12.1748 3.09672 12.9949 3.94514 13.6595 5.07636 14.1686 6.49038 14.6776 7.90441 14.9887 9.03563 15.1018 9.88405 15.2149 10.7325 15.2856 11.3688 15.3139 11.793Z" transform="matrix(1 0 0 -1.01333 318.389 455.527)"/></g></g></g><g clip-path="url(#clip21)"><g clip-path="url(#clip22)"><g clip-path="url(#clip23)"><path d="M7.80543-0.466629C5.88235-0.466629 4.32692 0.169683 3.13914 1.44231 1.95136 2.71493 1.34333 4.31278 1.31505 6.23586 1.31505 9.06391 2.34729 11.694 4.41176 14.1261 6.47624 16.5583 8.88009 17.9299 11.6233 18.241 11.6516 18.2692 13.6312 18.2834 17.5622 18.2834L23.4163 18.2834C23.4446 18.2551 23.487 18.2268 23.5436 18.1985 23.6001 18.1702 23.6567 18.142 23.7132 18.1137 23.7698 18.0854 23.8122 18.0571 23.8405 18.0288 23.8688 18.0006 23.9112 17.9581 23.9678 17.9016 24.0243 17.845 24.0526 17.8167 24.0526 17.8167 24.0526 17.8167 24.0809 17.7602 24.1374 17.6471 24.194 17.5339 24.2081 17.4774 24.1799 17.4774 24.1516 17.4774 24.1657 17.4067 24.2223 17.2653 24.2788 17.1239 24.293 17.039 24.2647 17.0107 24.2647 15.7664 23.3456 15.1442 21.5074 15.1442 21.3094 15.1442 21.069 15.1442 20.7862 15.1442 20.5034 15.1442 20.3054 15.1584 20.1923 15.1867L17.6471 15.1867 17.8592 14.7624C18.3682 13.6878 18.6227 12.4859 18.6227 11.1567 18.6227 8.04581 17.4915 5.33088 15.2291 3.01188 12.9666 0.692873 10.4921-0.466629 7.80543-0.466629ZM15.3139 11.793C15.3139 14.0554 14.112 15.1867 11.7081 15.1867 8.20136 15.1867 5.92477 12.7262 4.87839 7.80543 4.85011 7.69231 4.83597 7.60747 4.83597 7.55091 4.60973 6.50452 4.49661 5.64197 4.49661 4.96324 4.49661 3.54921 4.85011 2.55939 5.55713 1.99378 6.26414 1.42817 7.07014 1.13122 7.97511 1.10294 9.50226 1.10294 10.9021 1.76753 12.1748 3.09672 12.9949 3.94514 13.6595 5.07636 14.1686 6.49038 14.6776 7.90441 14.9887 9.03563 15.1018 9.88405 15.2149 10.7325 15.2856 11.3688 15.3139 11.793Z" transform="matrix(1 0 0 -1.01333 467.389 455.527)"/></g></g></g></g></svg>