<svg width="753" height="361" xmlns="http://www.w3.org/2000/svg" xmlns:xlink="http://www.w3.org/1999/xlink" overflow="hidden"><g transform="translate(-121 -164)"><path d="M157 285C157 269.536 169.536 257 185 257 200.464 257 213 269.536 213 285 213 300.464 200.464 313 185 313 169.536 313 157 300.464 157 285Z" stroke="#588E31" stroke-width="4" stroke-miterlimit="8" fill="#E3F2D9" fill-rule="evenodd"/><path d="M313 285C313 269.536 325.536 257 341 257 356.464 257 369 269.536 369 285 369 300.464 356.464 313 341 313 325.536 313 313 300.464 313 285Z" stroke="#B58B02" stroke-width="4" stroke-miterlimit="8" fill="#FFF2CA" fill-rule="evenodd"/><path d="M469 285C469 269.536 481.536 257 497 257 512.464 257 525 269.536 525 285 525 300.464 512.464 313 497 313 481.536 313 469 300.464 469 285Z" stroke="#B58B02" stroke-width="4" stroke-miterlimit="8" fill="#FFF2CA" fill-rule="evenodd"/><path d="M625 285C625 269.536 637.536 257 653 257 668.464 257 681 269.536 681 285 681 300.464 668.464 313 653 313 637.536 313 625 300.464 625 285Z" stroke="#B58B02" stroke-width="4" stroke-miterlimit="8" fill="#FFF2CA" fill-rule="evenodd"/><path d="M781 285C781 269.536 793.536 257 809 257 824.464 257 837 269.536 837 285 837 300.464 824.464 313 809 313 793.536 313 781 300.464 781 285Z" stroke="#C81D31" stroke-width="4" stroke-miterlimit="8" fill="#FADBDF" fill-rule="evenodd"/><path d="M238 388.5C238 372.76 250.76 360 266.5 360 282.24 360 295 372.76 295 388.5 295 404.24 282.24 417 266.5 417 250.76 417 238 404.24 238 388.5Z" stroke="#7F7F7F" stroke-width="4" stroke-miterlimit="8" fill="#F2F2F2" fill-rule="evenodd"/><path d="M393 388.5C393 372.76 405.76 360 421.5 360 437.24 360 450 372.76 450 388.5 450 404.24 437.24 417 421.5 417 405.76 417 393 404.24 393 388.5Z" stroke="#7F7F7F" stroke-width="4" stroke-miterlimit="8" fill="#F2F2F2" fill-rule="evenodd"/><path d="M548 388.5C548 372.76 560.76 360 576.5 360 592.24 360 605 372.76 605 388.5 605 404.24 592.24 417 576.5 417 560.76 417 548 404.24 548 388.5Z" stroke="#7F7F7F" stroke-width="4" stroke-miterlimit="8" fill="#F2F2F2" fill-rule="evenodd"/><path d="M703 388.5C703 372.76 715.76 360 731.5 360 747.24 360 760 372.76 760 388.5 760 404.24 747.24 417 731.5 417 715.76 417 703 404.24 703 388.5Z" stroke="#7F7F7F" stroke-width="4" stroke-miterlimit="8" fill="#F2F2F2" fill-rule="evenodd"/><path d="M213 283 302.307 283 302.307 287 213 287ZM300.307 279 312.307 285 300.307 291Z"/><path d="M369 283 458.307 283 458.307 287 369 287ZM456.307 279 468.307 285 456.307 291Z"/><path d="M525 283 614.307 283 614.307 287 525 287ZM612.307 279 624.307 285 612.307 291Z"/><path d="M681 283 770.307 283 770.307 287 681 287ZM768.307 279 780.307 285 768.307 291Z"/><path d="M0.0865421-1.99813 7.17817-1.69098 14.2928-0.785676 21.2884 0.673262 28.1116 2.64588 34.7093 5.09295 41.0283 7.97596 47.0156 11.2572 52.618 14.8996 57.7818 18.8674 62.4529 23.1255 66.5761 27.6405 70.0947 32.3797 72.9852 37.3746 74.6964 42.4852 70.9034 43.7552 69.2564 38.8364 69.4219 39.2031 66.6898 34.482 66.815 34.6725 63.425 30.1064 63.554 30.2629 59.561 25.8906 59.6904 26.0199 55.1491 21.8801 55.2779 21.988 50.2432 18.1194 50.3716 18.2102 44.8983 14.6517 45.0273 14.7288 39.1703 11.519 39.3013 11.5847 33.1153 8.76234 33.2499 8.81795 26.7898 6.42188 26.9298 6.46803 20.2504 4.53697 20.3975 4.57352 13.5536 3.14622 13.7095 3.17235 6.75593 2.28755 6.92184 2.30167-0.0865421 1.99813ZM78.2613 39.9307 74.8535 52.9071 66.5171 42.395Z" transform="matrix(1.83697e-16 1 1 -1.83697e-16 185 313)"/><path d="M0.19675-1.9903 4.72483-1.54268 9.36804-0.194188 13.8824 1.95463 18.2387 4.82913 22.413 8.36293 26.382 12.4959 30.1203 17.1718 33.6004 22.3361 36.7931 27.9354 39.6678 33.9165 42.1926 40.2266 44.3349 46.8125 46.0613 53.6215 47.3416 60.6215 47.7085 64.6976 43.7246 65.0562 43.3659 61.0709 43.3904 61.2514 42.1387 54.4075 42.1674 54.5392 40.4739 47.8598 40.5106 47.9869 38.4092 41.5268 38.4543 41.6511 35.9791 35.4651 36.0333 35.5885 33.2183 29.7314 33.2835 29.8557 30.1626 24.3824 30.2415 24.5094 26.8487 19.4747 26.9451 19.6059 23.3144 15.0646 23.434 15.201 19.5995 11.208 19.7498 11.3492 15.7453 7.95921 15.936 8.10206 11.7956 5.36998 12.0375 5.5065 7.79512 3.48714 8.0969 3.60192 3.78655 2.3501 4.14759 2.41976-0.19675 1.9903ZM51.5659 62.4715 46.4 74.8535 39.5939 63.2917Z" transform="matrix(1 0 0 -1 295 387.854)"/><path d="M-0.311518 1.97559-5.06121 1.22664-9.8504-0.976771-14.2278-4.3232-18.0924-8.60019-21.3341-13.6227-23.8282-19.2168-25.4367-25.2117-26.0092-31.4369-25.6698-34.7615-24.6922-38.0219-23.1444-41.1711-21.0864-44.1919-18.5684-47.0726-15.6342-49.8017-12.3231-52.3655-8.64359-54.767-0.504789-58.8966 8.58615-62.083 18.3029-64.1327 28.3118-64.8563 33.395-64.6653 38.4314-64.1094 48.1173-62.0229 57.2117-58.7677 65.3522-54.5495 69.0322-52.0969 72.3428-49.479 75.2758-46.6932 77.7915-43.754 79.8462-40.6741 81.39-37.4664 82.3639-34.1494 82.7017-30.7699 82.1306-24.4277 80.5252-18.3176 78.0351-12.614 74.7973-7.49119 70.8487-3.02852 66.964-0.734341 64.9299-4.17857 68.543-6.31228 68.0621-5.91548 71.6949-10.0212 71.5021-9.76439 74.5724-14.6223 74.4301-14.354 76.7973-19.776 76.6959-19.484 78.2193-25.2822 78.1617-24.9533 78.7008-30.9395 78.7026-30.5612 78.4023-33.566 78.4734-33.2015 77.598-36.1828 77.7148-35.879 76.3027-38.8133 76.4411-38.5707 74.5305-41.4345 74.6748-41.2439 72.3041-44.0137 72.4462-43.8641 69.6538-46.5163 69.7906-46.3977 66.6148-48.9089 66.7461-48.8135 63.2253-51.1601 63.4144-51.0486 55.4909-55.1543 55.737-55.047 46.8933-58.2125 47.1462-58.1404 37.6891-60.1775 37.8908-60.1448 33.0281-60.6815 33.1724-60.6708 28.2714-60.8549 28.4907-60.8587 18.7269-60.1529 18.9954-60.1907 9.53836-58.1959 9.78711-58.2654 0.943458-55.1657 1.18689-55.2695-6.73662-51.2491-6.54848-51.3578-10.0693-49.0599-9.93798-49.1534-13.1138-46.6943-12.9762-46.8112-15.7686-44.2141-15.6248-44.3623-17.9954-41.6501-17.8485-41.8402-19.759-39.0359-19.617-39.2798-21.0291-36.4065-20.9083-36.7142-21.7838-33.7948-21.7098-34.1661-22.0102-31.2237-22.0082-31.6099-21.4692-25.7481-21.5291-26.0833-20.0057-20.4056-20.1107-20.7017-17.7435-15.3923-17.8898-15.6624-14.8195-10.9054-15.0159-11.1617-11.3831-7.14131-11.6524-7.38933-7.59774-4.28962-7.97649-4.51766-3.64059-2.5228-4.165-2.68146 0.311518-1.97559ZM70.0716 2.33802 56.6929 1.33333 65.5239-8.76685Z" transform="matrix(1 -1.22465e-16 -1.22465e-16 -1 238 389.333)"/><path d="M0.192962-1.99067 4.80386-1.54372 9.5275-0.198531 14.1235 1.94662 18.5613 4.81803 22.8158 8.34966 26.8622 12.4814 30.6741 17.1567 34.2233 22.3211 37.4797 27.921 40.4118 33.9032 42.9873 40.2147 45.1726 46.8024 46.9338 53.6135 48.24 60.6162 48.6144 64.695 44.6312 65.0607 44.2652 61.0744 44.2907 61.2583 43.0142 54.4144 43.044 54.5484 41.3168 47.8689 41.3549 47.998 39.2119 41.5378 39.2584 41.6637 36.7341 35.4777 36.79 35.6023 33.9192 29.7453 33.9861 29.8704 30.8034 24.3971 30.884 24.5245 27.424 19.4898 27.5222 19.6208 23.8196 15.0796 23.9407 15.2151 20.0302 11.2221 20.1816 11.3616 16.0978 7.97162 16.2887 8.11189 12.0662 5.37981 12.3068 5.51296 7.98034 3.49359 8.27845 3.6048 3.88267 2.35298 4.23748 2.42013-0.192962 1.99067ZM52.4689 62.4646 47.3197 74.8535 40.498 63.3008Z" transform="matrix(1 0 0 -1 450 387.854)"/><path d="M0.0850404-1.99819 7.17525-1.69644 14.2873-0.807212 21.2805 0.625889 28.1018 2.56367 34.6979 4.96763 41.0158 7.80002 47.0024 11.0238 52.6045 14.6028 57.7685 18.5017 62.4404 22.6866 66.5652 27.1246 70.0858 31.7843 72.9813 36.7008 74.6284 41.5743 70.8389 42.855 69.2582 38.1776 69.4296 38.5522 66.6975 33.9132 66.8251 34.104 63.4351 29.6172 63.5659 29.7731 59.5728 25.4768 59.7034 25.605 55.1621 21.5371 55.2914 21.6435 50.2567 17.8422 50.3851 17.9315 44.9118 14.4348 45.0403 14.5103 39.1832 11.3562 39.3133 11.4203 33.1273 8.64707 33.2606 8.70117 26.8004 6.34676 26.9388 6.39154 20.2593 4.49405 20.4043 4.52946 13.5604 3.12697 13.7138 3.15223 6.76025 2.28282 6.92334 2.29646-0.0850404 1.99819ZM78.1733 38.9882 74.8535 51.9874 66.446 41.5321Z" transform="matrix(1.83697e-16 1 1 -1.83697e-16 341 313)"/><path d="M-0.172097 1.99258-2.58124 1.78451-5.174 1.12662-9.90584-1.21666-14.2803-4.81625-18.1336-9.40638-21.3614-14.7893-23.842-20.778-25.4399-27.1882-26.0079-33.8362-25.6738-37.3596-24.7086-40.8242-23.1746-44.1837-21.1282-47.4168-18.6184-50.5076-15.6888-53.4404-12.3796-56.1984-8.6991-58.784-0.554434-63.2322 8.54845-66.6664 18.2447-68.8679 23.29-69.4549 28.3472-69.6551 33.4059-69.4509 38.4546-68.8519 48.1548-66.6061 57.2608-63.103 65.4069-58.5664 69.0874-55.9298 72.396-53.118 75.3241-50.1288 77.8317-46.9799 79.8751-43.688 81.4055-40.2702 82.3677-36.7485 82.7005-33.1693 82.1336-26.4033 80.5383-19.8774 78.0611-13.7791 74.8369-8.2963 70.9035-3.51833 66.9361-0.980799 64.7809-4.35048 68.4823-6.71798 68.0159-6.30429 71.6487-10.717 71.4688-10.4597 74.5391-15.6808 74.4101-15.4197 76.7773-21.2472 76.6874-20.9695 78.2109-27.2012 78.1606-26.8933 78.6997-33.3271 78.7013-32.9749 78.401-36.2044 78.4631-35.8625 77.5877-39.0668 77.6916-38.7766 76.2794-41.9303 76.4056-41.6929 74.495-44.7709 74.6297-44.5797 72.259-47.5567 72.3948-47.403 69.6024-50.2536 69.736-50.1292 66.5602-52.8282 66.6907-52.7263 63.1698-55.2485 63.3614-55.127 55.4379-59.5398 55.6929-59.4204 46.8492-62.8226 47.1162-62.7408 37.6591-64.9303 37.8747-64.8927 33.0119-65.4696 33.1668-65.4573 28.2658-65.6552 28.4256-65.6551 23.5245-65.461 23.6765-65.4729 18.8138-64.9072 19.0255-64.9434 9.56839-62.7962 9.83154-62.8753 0.987881-59.5389 1.24056-59.6548-6.68295-55.3274-6.49192-55.4461-10.0128-52.9727-9.88198-53.0729-13.0578-50.4261-12.9232-50.549-15.7156-47.7535-15.5781-47.9062-17.9487-44.9868-17.8114-45.1779-19.722-42.1594-19.5926-42.3984-21.0047-39.3056-20.8974-39.5995-21.7729-36.4572-21.7084-36.8051-22.0087-33.638-22.0071-33.9971-21.468-27.6876-21.5201-28.0011-19.9967-21.8898-20.0896-22.1714-17.7224-16.4565-17.8549-16.7197-14.7846-11.5994-14.9681-11.8568-11.3353-7.52933-11.5963-7.78779-7.54162-4.45135-7.92486-4.69926-3.58896-2.55205-3.98463-2.69835-1.75515-2.13264-2.07495-2.18666 0.172097-1.99258ZM70.091 2.03392 56.6929 1.33333 65.2922-8.9648Z" transform="matrix(1 -1.22465e-16 -1.22465e-16 -1 393 389.333)"/><path d="M0.189316-1.99102 4.88315-1.54471 9.68736-0.202657 14.3649 1.93896 18.8843 4.80735 23.2188 8.3368 27.3425 12.4672 31.2281 17.142 34.8462 22.3064 38.1662 27.9069 41.1558 33.89 43.7819 40.2029 46.0103 46.7923 47.8062 53.6055 49.1383 60.611 49.5204 64.6924 45.5378 65.0652 45.1646 61.078 45.1911 61.2652 43.8897 54.4213 43.9206 54.5575 42.1599 47.878 42.1992 48.009 40.0145 41.5488 40.0625 41.6763 37.4892 35.4903 37.5467 35.6161 34.6201 29.759 34.6888 29.8849 31.4442 24.4116 31.5266 24.5393 27.9993 19.5046 28.0992 19.6354 24.3246 15.0941 24.4474 15.2288 20.4608 11.2358 20.6133 11.3736 16.4501 7.98361 16.6412 8.12133 12.3366 5.38924 12.5758 5.51911 8.16521 3.49974 8.45969 3.60753 3.97846 2.35571 4.32724 2.42048-0.189316 1.99102ZM53.3718 62.4577 48.2394 74.8535 41.4022 63.31Z" transform="matrix(1 0 0 -1 605 387.854)"/><path d="M0.0835387-1.99825 7.17232-1.7019 14.2817-0.828731 21.2726 0.578552 28.0919 2.48151 34.6864 4.84238 41.0032 7.62414 46.989 10.7905 52.5908 14.306 57.755 18.1361 62.4277 22.2476 66.5538 26.6086 70.0767 31.1887 72.9774 36.027 74.5584 40.6647 70.7724 41.9554 69.2599 37.5186 69.4376 37.9017 66.7055 33.3447 66.8355 33.5357 63.4455 29.1283 63.578 29.2835 59.585 25.0632 59.7166 25.1902 55.1753 21.1943 55.3051 21.2992 50.2704 17.5651 50.3987 17.6527 44.9254 14.2179 45.0533 14.2917 39.1963 11.1935 39.3254 11.256 33.1394 8.53177 33.2713 8.58437 26.8112 6.27161 26.9477 6.31504 20.2683 4.45111 20.4112 4.48538 13.5673 3.1077 13.7181 3.13211 6.76457 2.27807 6.92484 2.29125-0.0835387 1.99825ZM78.0823 38.0456 74.8535 51.0677 66.3731 40.6714Z" transform="matrix(1.83697e-16 1 1 -1.83697e-16 497 313)"/><path d="M-0.166035 1.9931-2.56977 1.79285-5.15236 1.16079-9.87856-1.09667-14.2547-4.56993-18.1137-9.00377-21.3483-14.2067-23.8354-19.998-25.4384-26.2004-26.0085-32.6365-25.6719-36.06-24.7008-39.4224-23.1602-42.6768-21.108-45.8039-18.5941-48.7898-15.6621-51.6209-12.3519-54.2819-8.67175-56.7755-0.52984-61.0645 8.56722-64.3748 18.2563-66.4966 23.2955-67.0621 28.3472-67.255 33.4004-67.0581 38.443-66.4807 48.1361-64.3146 57.2365-60.9355 65.38-56.558 69.0603-54.0133 72.37-51.2984 75.3007-48.4107 77.8123-45.3665 79.8613-42.1804 81.3981-38.8677 82.3659-35.4486 82.7011-31.9696 82.1322-25.4159 80.532-19.0982 78.0486-13.1972 74.8178-7.89423 70.8767-3.2735 66.9506-0.858843 64.8551-4.26603 68.5122-6.51524 68.0383-6.10953 71.6711-10.3688 71.4848-10.1115 74.5551-15.151 74.4197-14.8862 76.7868-20.511 76.6915-20.2262 78.2149-26.2412 78.1612-25.9231 78.7002-32.1331 78.702-31.7683 78.4016-34.8855 78.468-34.5326 77.5926-37.6254 77.7027-37.3284 76.2905-40.3725 76.4226-40.1323 74.5121-43.1032 74.6515-42.9122 72.2809-45.7856 72.4198-45.6338 69.6274-48.3852 69.7627-48.2635 66.5869-50.8686 66.7179-50.7699 63.1971-53.2043 63.3876-53.0877 55.4641-57.3469 55.7148-57.2336 46.8711-60.5175 47.1312-60.4405 37.6741-62.5539 37.8827-62.5187 33.02-63.0755 33.1696-63.064 28.2686-63.2551 28.4228-63.255 23.5217-63.0678 23.6684-63.0788 18.8057-62.5332 19.0105-62.567 9.55342-60.496 9.80947-60.5702 0.965811-57.3522 1.21405-57.4621-6.70946-53.2882-6.51971-53.402-10.0406-51.0163-9.90937-51.1132-13.0852-48.5603-12.949-48.6803-15.7414-45.984-15.6007-46.1346-17.9713-43.3188-17.8292-43.5096-19.7398-40.5982-19.6042-40.8398-21.0164-37.8567-20.9026-38.1574-21.778-35.1266-21.7091-35.4859-22.0094-32.4311-22.0076-32.8032-21.4686-26.7176-21.5244-27.0416-20.001-21.1471-20.0996-21.4358-17.7324-15.9237-17.8716-16.1905-14.8013-11.2518-14.9912-11.5089-11.3584-7.33497-11.6237-7.5885-7.56908-4.37043-7.95041-4.60857-3.61451-2.53753-4.00107-2.67549-1.7716-2.12986-2.08101-2.18029 0.166035-1.9931ZM70.0823 2.18438 56.6929 1.33333 65.4074-8.86755Z" transform="matrix(1 -1.22465e-16 -1.22465e-16 -1 548 389.333)"/><path d="M0.0820368-1.99832 7.16939-1.70736 14.276-0.850237 21.2647 0.531239 28.082 2.39938 34.6749 4.71717 40.9904 7.44831 46.9754 10.5572 52.5768 14.0091 57.7412 17.7704 62.4146 21.8085 66.5422 26.0924 70.0671 30.5927 72.9735 35.3531 74.4865 39.7565 70.7036 41.0563 69.2614 36.8591 69.4459 37.2514 66.7138 32.7765 66.8463 32.9676 63.4563 28.6396 63.5906 28.794 59.5975 24.6497 59.7302 24.7754 55.1889 20.8514 55.3191 20.9548 50.2844 17.2879 50.4125 17.3739 44.9392 14.0009 45.0666 14.0731 39.2095 11.0307 39.3376 11.0916 33.1516 8.41642 33.2821 8.46751 26.822 6.1964 26.9567 6.23849 20.2773 4.40813 20.418 4.44128 13.5741 3.08841 13.7225 3.11198 6.7689 2.27333 6.92635 2.28603-0.0820368 1.99832ZM77.9883 37.103 74.8535 50.148 66.2984 39.8132Z" transform="matrix(1.83697e-16 1 1 -1.83697e-16 653 313)"/><path d="M0.185805-1.99135 4.96267-1.54564 9.84757-0.206581 14.6067 1.93163 19.2075 4.79706 23.6219 8.32434 27.8229 12.4534 31.782 17.1275 35.4691 22.292 38.8527 27.8929 41.8998 33.877 44.5765 40.1911 46.848 46.7823 48.6787 53.5975 50.0367 60.6057 50.4263 64.6898 46.4444 65.0697 46.0639 61.0815 46.0914 61.2721 44.7652 54.4282 44.7972 54.5665 43.0029 47.8871 43.0436 48.0199 40.8173 41.5598 40.8668 41.6887 38.2444 35.5027 38.3035 35.6296 35.3211 29.7726 35.3915 29.8992 32.085 24.4259 32.1691 24.5538 28.5746 19.5191 28.6762 19.6497 24.8297 15.1084 24.9539 15.2421 20.8913 11.2491 21.0448 11.3852 16.8021 7.9952 16.9933 8.13038 12.6066 5.3983 12.8443 5.52498 8.34969 3.50561 8.64059 3.61012 4.07393 2.3583 4.41686 2.42081-0.185805 1.99135ZM54.2748 62.4508 49.1591 74.8535 42.3063 63.3192Z" transform="matrix(1 0 0 -1 760 387.854)"/><path d="M789 285.5C789 274.178 797.954 265 809 265 820.046 265 829 274.178 829 285.5 829 296.822 820.046 306 809 306 797.954 306 789 296.822 789 285.5Z" stroke="#C81D31" stroke-width="4" stroke-miterlimit="8" fill="#FADBDF" fill-rule="evenodd"/><path d="M-0.166035 1.9931-2.56977 1.79285-5.15236 1.16079-9.87856-1.09667-14.2547-4.56993-18.1137-9.00377-21.3483-14.2067-23.8354-19.998-25.4384-26.2004-26.0085-32.6365-25.6719-36.06-24.7008-39.4224-23.1602-42.6768-21.108-45.8039-18.5941-48.7898-15.6621-51.6209-12.3519-54.2819-8.67175-56.7755-0.52984-61.0645 8.56722-64.3748 18.2563-66.4966 23.2955-67.0621 28.3472-67.255 33.4004-67.0581 38.443-66.4807 48.1361-64.3146 57.2365-60.9355 65.38-56.558 69.0603-54.0133 72.37-51.2984 75.3007-48.4107 77.8123-45.3665 79.8613-42.1804 81.3981-38.8677 82.3659-35.4486 82.7011-31.9696 82.1322-25.4159 80.532-19.0982 78.0486-13.1972 74.8178-7.89423 70.8767-3.2735 66.9506-0.858843 64.8551-4.26603 68.5122-6.51524 68.0383-6.10953 71.6711-10.3688 71.4848-10.1115 74.5551-15.151 74.4197-14.8862 76.7868-20.511 76.6915-20.2262 78.2149-26.2412 78.1612-25.9231 78.7002-32.1331 78.702-31.7683 78.4016-34.8855 78.468-34.5326 77.5926-37.6254 77.7027-37.3284 76.2905-40.3725 76.4226-40.1323 74.5121-43.1032 74.6515-42.9122 72.2809-45.7856 72.4198-45.6338 69.6274-48.3852 69.7627-48.2635 66.5869-50.8686 66.7179-50.7699 63.1971-53.2043 63.3876-53.0877 55.4641-57.3469 55.7148-57.2336 46.8711-60.5175 47.1312-60.4405 37.6741-62.5539 37.8827-62.5187 33.02-63.0755 33.1696-63.064 28.2686-63.2551 28.4228-63.255 23.5217-63.0678 23.6684-63.0788 18.8057-62.5332 19.0105-62.567 9.55342-60.496 9.80947-60.5702 0.965811-57.3522 1.21405-57.4621-6.70946-53.2882-6.51971-53.402-10.0406-51.0163-9.90937-51.1132-13.0852-48.5603-12.949-48.6803-15.7414-45.984-15.6007-46.1346-17.9713-43.3188-17.8292-43.5096-19.7398-40.5982-19.6042-40.8398-21.0164-37.8567-20.9026-38.1574-21.778-35.1266-21.7091-35.4859-22.0094-32.4311-22.0076-32.8032-21.4686-26.7176-21.5244-27.0416-20.001-21.1471-20.0996-21.4358-17.7324-15.9237-17.8716-16.1905-14.8013-11.2518-14.9912-11.5089-11.3584-7.33497-11.6237-7.5885-7.56908-4.37043-7.95041-4.60857-3.61451-2.53753-4.00107-2.67549-1.7716-2.12986-2.08101-2.18029 0.166035-1.9931ZM70.0823 2.18438 56.6929 1.33333 65.4074-8.86755Z" transform="matrix(1 -1.22465e-16 -1.22465e-16 -1 703 390.333)"/><path d="M0.260413 1.98297-4.21611 2.57085-3.76091 2.45547-8.09681 4.11686-7.73828 3.93634-11.7929 6.51788-11.5116 6.30142-15.1444 9.64975-14.919 9.40426-17.9893 13.366-17.8069 13.0848-20.1741 17.5067-20.0337 17.1761-21.5571 21.9046-21.4728 21.5108-22.0119 26.3927-22.0147 25.9299-21.7143 28.3805-21.8177 27.9462-20.9423 30.3776-21.1016 30.0387-19.6894 32.4317-19.8639 32.1818-17.9533 34.5173-18.1216 34.3357-15.751 36.5946-15.9059 36.4614-13.1135 38.6244-13.2543 38.5247-10.0785 40.5727-10.2073 40.4963-6.68646 42.4101-6.86309 42.3251 1.06042 45.6734 0.842343 45.5958 9.686 48.1773 9.47162 48.1274 18.9287 49.7888 18.7029 49.7622 28.4667 50.3501 28.2293 50.3499 37.9931 49.777 37.7728 49.8022 47.2298 48.1832 47.0201 48.2308 55.8638 45.715 55.6494 45.7894 63.5729 42.5263 63.3983 42.6083 66.9192 40.7433 66.7912 40.8172 69.967 38.8214 69.8262 38.9185 72.6186 36.8106 72.4627 36.9413 74.8333 34.74 74.6624 34.9197 76.573 32.6437 76.394 32.8936 77.8062 30.5615 77.6409 30.9043 78.5163 28.5349 78.408 28.9785 78.7084 26.5903 78.7054 27.0651 78.1664 22.3075 78.2547 22.7101 76.7313 18.102 76.8773 18.4371 74.5101 14.1279 74.6977 14.4098 71.6274 10.549 71.8563 10.792 68.2235 7.52899 68.7259 7.85884 65.3473 6.3085 67.0155 2.67298 70.6703 4.35008 74.6539 7.92817 77.9342 12.0531 80.4715 16.6721 82.1176 21.6513 82.7069 26.8523 82.3481 29.7056 81.3268 32.4699 79.7357 35.0974 77.6462 37.5866 75.1098 39.9418 72.1678 42.1626 68.8569 44.2433 65.1854 46.1882 57.0675 49.5313 48.011 52.1076 38.3383 53.7636 28.3449 54.35 18.3488 53.7481 8.67095 52.048-0.389805 49.403-8.5105 45.9714-12.1834 43.9749-15.4947 41.8396-18.4362 39.561-20.9708 37.1461-23.0567 34.5962-24.6421 31.9096-25.6573 29.09-26.0133 26.1853-25.4265 20.8706-23.7857 15.7778-21.254 11.0487-17.9783 6.82184-14.0915 3.23943-9.71639 0.453848-4.97135-1.36431-0.260413-1.98297ZM66.1846 10.8153 56.6929 1.33333 69.9735-0.570854Z" transform="matrix(1 -1.22465e-16 -1.22465e-16 -1 625 286.333)"/><path d="M0.260413 1.98297-4.21611 2.57085-3.76091 2.45547-8.09681 4.11686-7.73828 3.93634-11.7929 6.51788-11.5116 6.30142-15.1444 9.64975-14.919 9.40426-17.9893 13.366-17.8069 13.0848-20.1741 17.5067-20.0337 17.1761-21.5571 21.9046-21.4728 21.5108-22.0119 26.3927-22.0147 25.9299-21.7143 28.3805-21.8177 27.9462-20.9423 30.3776-21.1016 30.0387-19.6894 32.4317-19.8639 32.1818-17.9533 34.5173-18.1216 34.3357-15.751 36.5946-15.9059 36.4614-13.1135 38.6244-13.2543 38.5247-10.0785 40.5727-10.2073 40.4963-6.68646 42.4101-6.86309 42.3251 1.06042 45.6734 0.842343 45.5958 9.686 48.1773 9.47162 48.1274 18.9287 49.7888 18.7029 49.7622 28.4667 50.3501 28.2293 50.3499 37.9931 49.777 37.7728 49.8022 47.2298 48.1832 47.0201 48.2308 55.8638 45.715 55.6494 45.7894 63.5729 42.5263 63.3983 42.6083 66.9192 40.7433 66.7912 40.8172 69.967 38.8214 69.8262 38.9185 72.6186 36.8106 72.4627 36.9413 74.8333 34.74 74.6624 34.9197 76.573 32.6437 76.394 32.8936 77.8062 30.5615 77.6409 30.9043 78.5163 28.5349 78.408 28.9785 78.7084 26.5903 78.7054 27.0651 78.1664 22.3075 78.2547 22.7101 76.7313 18.102 76.8773 18.4371 74.5101 14.1279 74.6977 14.4098 71.6274 10.549 71.8563 10.792 68.2235 7.52899 68.7259 7.85884 65.3473 6.3085 67.0155 2.67298 70.6703 4.35008 74.6539 7.92817 77.9342 12.0531 80.4715 16.6721 82.1176 21.6513 82.7069 26.8523 82.3481 29.7056 81.3268 32.4699 79.7357 35.0974 77.6462 37.5866 75.1098 39.9418 72.1678 42.1626 68.8569 44.2433 65.1854 46.1882 57.0675 49.5313 48.011 52.1076 38.3383 53.7636 28.3449 54.35 18.3488 53.7481 8.67095 52.048-0.389805 49.403-8.5105 45.9714-12.1834 43.9749-15.4947 41.8396-18.4362 39.561-20.9708 37.1461-23.0567 34.5962-24.6421 31.9096-25.6573 29.09-26.0133 26.1853-25.4265 20.8706-23.7857 15.7778-21.254 11.0487-17.9783 6.82184-14.0915 3.23943-9.71639 0.453848-4.97135-1.36431-0.260413-1.98297ZM66.1846 10.8153 56.6929 1.33333 69.9735-0.570854Z" transform="matrix(1 -1.22465e-16 -1.22465e-16 -1 469 286.333)"/><path d="M0.260413 1.98297-4.21611 2.57085-3.76091 2.45547-8.09681 4.11686-7.73828 3.93634-11.7929 6.51788-11.5116 6.30142-15.1444 9.64975-14.919 9.40426-17.9893 13.366-17.8069 13.0848-20.1741 17.5067-20.0337 17.1761-21.5571 21.9046-21.4728 21.5108-22.0119 26.3927-22.0147 25.9299-21.7143 28.3805-21.8177 27.9462-20.9423 30.3776-21.1016 30.0387-19.6894 32.4317-19.8639 32.1818-17.9533 34.5173-18.1216 34.3357-15.751 36.5946-15.9059 36.4614-13.1135 38.6244-13.2543 38.5247-10.0785 40.5727-10.2073 40.4963-6.68646 42.4101-6.86309 42.3251 1.06042 45.6734 0.842343 45.5958 9.686 48.1773 9.47162 48.1274 18.9287 49.7888 18.7029 49.7622 28.4667 50.3501 28.2293 50.3499 37.9931 49.777 37.7728 49.8022 47.2298 48.1832 47.0201 48.2308 55.8638 45.715 55.6494 45.7894 63.5729 42.5263 63.3983 42.6083 66.9192 40.7433 66.7912 40.8172 69.967 38.8214 69.8262 38.9185 72.6186 36.8106 72.4627 36.9413 74.8333 34.74 74.6624 34.9197 76.573 32.6437 76.394 32.8936 77.8062 30.5615 77.6409 30.9043 78.5163 28.5349 78.408 28.9785 78.7084 26.5903 78.7054 27.0651 78.1664 22.3075 78.2547 22.7101 76.7313 18.102 76.8773 18.4371 74.5101 14.1279 74.6977 14.4098 71.6274 10.549 71.8563 10.792 68.2235 7.52899 68.7259 7.85884 65.3473 6.3085 67.0155 2.67298 70.6703 4.35008 74.6539 7.92817 77.9342 12.0531 80.4715 16.6721 82.1176 21.6513 82.7069 26.8523 82.3481 29.7056 81.3268 32.4699 79.7357 35.0974 77.6462 37.5866 75.1098 39.9418 72.1678 42.1626 68.8569 44.2433 65.1854 46.1882 57.0675 49.5313 48.011 52.1076 38.3383 53.7636 28.3449 54.35 18.3488 53.7481 8.67095 52.048-0.389805 49.403-8.5105 45.9714-12.1834 43.9749-15.4947 41.8396-18.4362 39.561-20.9708 37.1461-23.0567 34.5962-24.6421 31.9096-25.6573 29.09-26.0133 26.1853-25.4265 20.8706-23.7857 15.7778-21.254 11.0487-17.9783 6.82184-14.0915 3.23943-9.71639 0.453848-4.97135-1.36431-0.260413-1.98297ZM66.1846 10.8153 56.6929 1.33333 69.9735-0.570854Z" transform="matrix(1 -1.22465e-16 -1.22465e-16 -1 313 286.333)"/><text font-family="Microsoft YaHei,Microsoft YaHei_MSFontService,sans-serif" font-weight="700" font-size="32" transform="translate(145.993 241)">Start</text><text font-family="Microsoft YaHei,Microsoft YaHei_MSFontService,sans-serif" font-weight="700" font-size="32" transform="translate(778.873 241)">End</text><path d="M263 196.167C263 181.163 275.163 169 290.167 169L696.833 169C711.837 169 724 181.163 724 196.167L724 304.833C724 319.837 711.837 332 696.833 332L290.167 332C275.163 332 263 319.837 263 304.833Z" stroke="#7F7F7F" stroke-width="4" stroke-miterlimit="8" stroke-dasharray="16 12" fill="none" fill-rule="evenodd"/><path d="M201 376.667C201 360.835 213.835 348 229.667 348L771.333 348C787.165 348 800 360.835 800 376.667L800 491.333C800 507.165 787.165 520 771.333 520L229.667 520C213.835 520 201 507.165 201 491.333Z" stroke="#7F7F7F" stroke-width="4" stroke-miterlimit="8" stroke-dasharray="16 12" fill="none" fill-rule="evenodd"/><text font-family="Microsoft YaHei,Microsoft YaHei_MSFontService,sans-serif" font-weight="700" font-size="27" transform="translate(443.78 198)">实</text><text font-family="Microsoft YaHei,Microsoft YaHei_MSFontService,sans-serif" font-weight="700" font-size="27" transform="translate(470.447 198)">义字符</text><text font-family="Microsoft YaHei,Microsoft YaHei_MSFontService,sans-serif" font-weight="700" font-size="27" transform="translate(440.186 502)">空白</text><text font-family="Microsoft YaHei,Microsoft YaHei_MSFontService,sans-serif" font-weight="700" font-size="27" transform="translate(493.52 502)">字符</text></g></svg>