<svg width="934" height="305" xmlns="http://www.w3.org/2000/svg" xmlns:xlink="http://www.w3.org/1999/xlink" overflow="hidden"><g transform="translate(-144 -17)"><path d="M377 66.0006C377 51.6409 388.641 40 403.001 40L506.999 40C521.359 40 533 51.6409 533 66.0006L533 273.999C533 288.359 521.359 300 506.999 300L403.001 300C388.641 300 377 288.359 377 273.999Z" stroke="#588E31" stroke-width="4" stroke-miterlimit="8" fill="#E3F2D9" fill-rule="evenodd"/><path d="M328 300 196 240.37 196 99.6297 328 40Z" stroke="#B58B02" stroke-width="4" stroke-miterlimit="8" fill="#FFF2CA" fill-rule="evenodd"/><path d="M909 42.5C909 30.0736 919.074 20 931.5 20 943.926 20 954 30.0736 954 42.5 954 54.9264 943.926 65 931.5 65 919.074 65 909 54.9264 909 42.5Z" stroke="#B58B02" stroke-width="4" stroke-miterlimit="8" fill="#FFF2CA" fill-rule="evenodd"/><path d="M909 127.5C909 115.074 919.074 105 931.5 105 943.926 105 954 115.074 954 127.5 954 139.926 943.926 150 931.5 150 919.074 150 909 139.926 909 127.5Z" stroke="#B58B02" stroke-width="4" stroke-miterlimit="8" fill="#FFF2CA" fill-rule="evenodd"/><path d="M909 211.5C909 199.074 919.074 189 931.5 189 943.926 189 954 199.074 954 211.5 954 223.926 943.926 234 931.5 234 919.074 234 909 223.926 909 211.5Z" stroke="#B58B02" stroke-width="4" stroke-miterlimit="8" fill="#FFF2CA" fill-rule="evenodd"/><path d="M909 296.5C909 284.074 919.297 274 932 274 944.703 274 955 284.074 955 296.5 955 308.926 944.703 319 932 319 919.297 319 909 308.926 909 296.5Z" stroke="#B58B02" stroke-width="4" stroke-miterlimit="8" fill="#FFF2CA" fill-rule="evenodd"/><path d="M571 57.0004C571 47.6113 578.611 40 588 40L656 40C665.389 40 673 47.6113 673 57.0004L673 283C673 292.389 665.389 300 656 300L588 300C578.611 300 571 292.389 571 283Z" stroke="#2E54A1" stroke-width="4" stroke-miterlimit="8" fill="#DAE3F5" fill-rule="evenodd"/><path d="M703 66.0006C703 51.6409 714.641 40 729.001 40L832.999 40C847.359 40 859 51.6409 859 66.0006L859 273.999C859 288.359 847.359 300 832.999 300L729.001 300C714.641 300 703 288.359 703 273.999Z" stroke="#588E31" stroke-width="4" stroke-miterlimit="8" fill="#E3F2D9" fill-rule="evenodd"/><path d="M1030 170C1030 157.297 1040.07 147 1052.5 147 1064.93 147 1075 157.297 1075 170 1075 182.703 1064.93 193 1052.5 193 1040.07 193 1030 182.703 1030 170Z" stroke="#B58B02" stroke-width="4" stroke-miterlimit="8" fill="#FFF2CA" fill-rule="evenodd"/><path d="M0 0 5.3347 19.1069" stroke="#000000" stroke-width="4" stroke-linecap="round" stroke-linejoin="round" stroke-miterlimit="10" fill="none" fill-rule="evenodd" transform="matrix(1 0 0 -1 1050 179.107)"/><path d="M1038 179 1050.25 179" stroke="#000000" stroke-width="4" stroke-linecap="round" stroke-linejoin="round" stroke-miterlimit="10" fill="none" fill-rule="evenodd"/><path d="M1055 160 1067.25 160" stroke="#000000" stroke-width="4" stroke-linecap="round" stroke-linejoin="round" stroke-miterlimit="10" fill="none" fill-rule="evenodd"/><path d="M955.718 41.9755 1026.38 160.458 1022.95 162.507 952.282 44.0245ZM1028.79 156.692 1029.79 170.071 1018.49 162.839Z"/><path d="M954.98 125.257 1022.05 162.954 1020.09 166.441 953.02 128.743ZM1022.27 158.487 1029.79 169.597 1016.39 168.948Z"/><path d="M0.967266-1.75054 68.0031 35.2903 66.0686 38.7914-0.967266 1.75054ZM68.1871 30.8219 75.7886 41.8772 62.3835 41.3252Z" transform="matrix(1 0 0 -1 954 211.877)"/><path d="M1.71775-1.02437 71.9447 116.738 68.5092 118.787-1.71775 1.02437ZM74.3559 112.972 75.3489 126.351 64.0494 119.118Z" transform="matrix(1 0 0 -1 955 296.351)"/><path d="M145 168 186.257 168 186.257 172 145 172ZM184.257 164 196.257 170 184.257 176Z"/><path d="M4.26283e-06-2 39.2569-1.99992 39.2569 2.00008-4.26283e-06 2ZM37.2569-5.99992 49.2569 0.000104987 37.2569 6.00008Z" transform="matrix(1 0 0 -1 330 170)"/><path d="M533 168 560.894 168 560.894 172 533 172ZM558.894 164 570.894 170 558.894 176Z"/><path d="M673 168 693.138 168 693.138 172 673 172ZM691.138 164 703.138 170 691.138 176Z"/><text font-family="Microsoft YaHei,Microsoft YaHei_MSFontService,sans-serif" font-weight="700" font-size="32" transform="matrix(6.12323e-17 -1 1 6.12323e-17 273.462 220)">Resize</text><text font-family="Microsoft YaHei,Microsoft YaHei_MSFontService,sans-serif" font-weight="700" font-size="32" transform="matrix(6.12323e-17 -1 1 6.12323e-17 466.121 265)">Conv Layers</text><text font-family="Microsoft YaHei,Microsoft YaHei_MSFontService,sans-serif" font-weight="700" font-size="32" transform="matrix(6.12323e-17 -1 1 6.12323e-17 614.037 247)">Sequence</text><text font-family="Microsoft YaHei,Microsoft YaHei_MSFontService,sans-serif" font-weight="700" font-size="32" transform="matrix(6.12323e-17 -1 1 6.12323e-17 652.037 243)">Mapping</text><text font-family="Microsoft YaHei,Microsoft YaHei_MSFontService,sans-serif" font-weight="700" font-size="32" transform="matrix(6.12323e-17 -1 1 6.12323e-17 782.757 271)">Bidirectional</text><text font-family="Microsoft YaHei,Microsoft YaHei_MSFontService,sans-serif" font-weight="700" font-size="32" transform="matrix(6.12323e-17 -1 1 6.12323e-17 820.757 216)">RNNs</text></g></svg>