<svg width="967" height="267" xmlns="http://www.w3.org/2000/svg" xmlns:xlink="http://www.w3.org/1999/xlink" overflow="hidden"><g transform="translate(-89 -382)"><rect x="388.5" y="430.5" width="22" height="22" stroke="#192D54" stroke-width="1.33333" stroke-miterlimit="8" fill="#FADBDF"/><rect x="410.5" y="430.5" width="22" height="22" stroke="#192D54" stroke-width="1.33333" stroke-miterlimit="8" fill="#FADBDF"/><rect x="432.5" y="430.5" width="23" height="22" stroke="#192D54" stroke-width="1.33333" stroke-miterlimit="8" fill="#FADBDF"/><rect x="455.5" y="430.5" width="22" height="22" stroke="#192D54" stroke-width="1.33333" stroke-miterlimit="8" fill="#FADBDF"/><rect x="477.5" y="430.5" width="22" height="22" stroke="#192D54" stroke-width="1.33333" stroke-miterlimit="8" fill="#FADBDF"/><rect x="388.5" y="453.5" width="22" height="22" stroke="#192D54" stroke-width="1.33333" stroke-miterlimit="8" fill="#FADBDF"/><rect x="410.5" y="453.5" width="22" height="22" stroke="#192D54" stroke-width="1.33333" stroke-miterlimit="8" fill="#FADBDF"/><rect x="432.5" y="453.5" width="23" height="22" stroke="#192D54" stroke-width="1.33333" stroke-miterlimit="8" fill="#FADBDF"/><rect x="455.5" y="453.5" width="22" height="22" stroke="#192D54" stroke-width="1.33333" stroke-miterlimit="8" fill="#FADBDF"/><rect x="477.5" y="453.5" width="22" height="22" stroke="#192D54" stroke-width="1.33333" stroke-miterlimit="8" fill="#FADBDF"/><rect x="388.5" y="475.5" width="22" height="22" stroke="#192D54" stroke-width="1.33333" stroke-miterlimit="8" fill="#FADBDF"/><rect x="410.5" y="475.5" width="22" height="22" stroke="#192D54" stroke-width="1.33333" stroke-miterlimit="8" fill="#FADBDF"/><rect x="432.5" y="475.5" width="23" height="22" stroke="#192D54" stroke-width="1.33333" stroke-miterlimit="8" fill="#FADBDF"/><rect x="455.5" y="475.5" width="22" height="22" stroke="#192D54" stroke-width="1.33333" stroke-miterlimit="8" fill="#FADBDF"/><rect x="477.5" y="475.5" width="22" height="22" stroke="#192D54" stroke-width="1.33333" stroke-miterlimit="8" fill="#FADBDF"/><rect x="388.5" y="497.5" width="22" height="22" stroke="#192D54" stroke-width="1.33333" stroke-miterlimit="8" fill="#FADBDF"/><rect x="410.5" y="497.5" width="22" height="22" stroke="#192D54" stroke-width="1.33333" stroke-miterlimit="8" fill="#FADBDF"/><rect x="432.5" y="497.5" width="23" height="22" stroke="#192D54" stroke-width="1.33333" stroke-miterlimit="8" fill="#FADBDF"/><rect x="455.5" y="497.5" width="22" height="22" stroke="#192D54" stroke-width="1.33333" stroke-miterlimit="8" fill="#FADBDF"/><rect x="477.5" y="497.5" width="22" height="22" stroke="#192D54" stroke-width="1.33333" stroke-miterlimit="8" fill="#FADBDF"/><rect x="388.5" y="519.5" width="22" height="22" stroke="#192D54" stroke-width="1.33333" stroke-miterlimit="8" fill="#FADBDF"/><rect x="410.5" y="519.5" width="22" height="22" stroke="#192D54" stroke-width="1.33333" stroke-miterlimit="8" fill="#FADBDF"/><rect x="432.5" y="519.5" width="23" height="22" stroke="#192D54" stroke-width="1.33333" stroke-miterlimit="8" fill="#FADBDF"/><rect x="455.5" y="519.5" width="22" height="22" stroke="#192D54" stroke-width="1.33333" stroke-miterlimit="8" fill="#FADBDF"/><rect x="477.5" y="519.5" width="22" height="22" stroke="#192D54" stroke-width="1.33333" stroke-miterlimit="8" fill="#FADBDF"/><rect x="394.5" y="438.5" width="22" height="22" stroke="#192D54" stroke-width="1.33333" stroke-miterlimit="8" fill="#DAE3F5"/><rect x="416.5" y="438.5" width="23" height="22" stroke="#192D54" stroke-width="1.33333" stroke-miterlimit="8" fill="#DAE3F5"/><rect x="439.5" y="438.5" width="22" height="22" stroke="#192D54" stroke-width="1.33333" stroke-miterlimit="8" fill="#DAE3F5"/><rect x="461.5" y="438.5" width="22" height="22" stroke="#192D54" stroke-width="1.33333" stroke-miterlimit="8" fill="#DAE3F5"/><rect x="483.5" y="438.5" width="22" height="22" stroke="#192D54" stroke-width="1.33333" stroke-miterlimit="8" fill="#DAE3F5"/><rect x="394.5" y="460.5" width="22" height="22" stroke="#192D54" stroke-width="1.33333" stroke-miterlimit="8" fill="#DAE3F5"/><rect x="416.5" y="460.5" width="23" height="22" stroke="#192D54" stroke-width="1.33333" stroke-miterlimit="8" fill="#DAE3F5"/><rect x="439.5" y="460.5" width="22" height="22" stroke="#192D54" stroke-width="1.33333" stroke-miterlimit="8" fill="#DAE3F5"/><rect x="461.5" y="460.5" width="22" height="22" stroke="#192D54" stroke-width="1.33333" stroke-miterlimit="8" fill="#DAE3F5"/><rect x="483.5" y="460.5" width="22" height="22" stroke="#192D54" stroke-width="1.33333" stroke-miterlimit="8" fill="#DAE3F5"/><rect x="394.5" y="482.5" width="22" height="22" stroke="#192D54" stroke-width="1.33333" stroke-miterlimit="8" fill="#DAE3F5"/><rect x="416.5" y="482.5" width="23" height="22" stroke="#192D54" stroke-width="1.33333" stroke-miterlimit="8" fill="#DAE3F5"/><rect x="439.5" y="482.5" width="22" height="22" stroke="#192D54" stroke-width="1.33333" stroke-miterlimit="8" fill="#DAE3F5"/><rect x="461.5" y="482.5" width="22" height="22" stroke="#192D54" stroke-width="1.33333" stroke-miterlimit="8" fill="#DAE3F5"/><rect x="483.5" y="482.5" width="22" height="22" stroke="#192D54" stroke-width="1.33333" stroke-miterlimit="8" fill="#DAE3F5"/><rect x="394.5" y="504.5" width="22" height="22" stroke="#192D54" stroke-width="1.33333" stroke-miterlimit="8" fill="#DAE3F5"/><rect x="416.5" y="504.5" width="23" height="22" stroke="#192D54" stroke-width="1.33333" stroke-miterlimit="8" fill="#DAE3F5"/><rect x="439.5" y="504.5" width="22" height="22" stroke="#192D54" stroke-width="1.33333" stroke-miterlimit="8" fill="#DAE3F5"/><rect x="461.5" y="504.5" width="22" height="22" stroke="#192D54" stroke-width="1.33333" stroke-miterlimit="8" fill="#DAE3F5"/><rect x="483.5" y="504.5" width="22" height="22" stroke="#192D54" stroke-width="1.33333" stroke-miterlimit="8" fill="#DAE3F5"/><rect x="394.5" y="526.5" width="22" height="22" stroke="#192D54" stroke-width="1.33333" stroke-miterlimit="8" fill="#DAE3F5"/><rect x="416.5" y="526.5" width="23" height="22" stroke="#192D54" stroke-width="1.33333" stroke-miterlimit="8" fill="#DAE3F5"/><rect x="439.5" y="526.5" width="22" height="22" stroke="#192D54" stroke-width="1.33333" stroke-miterlimit="8" fill="#DAE3F5"/><rect x="461.5" y="526.5" width="22" height="22" stroke="#192D54" stroke-width="1.33333" stroke-miterlimit="8" fill="#DAE3F5"/><rect x="483.5" y="526.5" width="22" height="22" stroke="#192D54" stroke-width="1.33333" stroke-miterlimit="8" fill="#DAE3F5"/><rect x="401.5" y="444.5" width="22" height="22" stroke="#192D54" stroke-width="1.33333" stroke-miterlimit="8" fill="#D4F4F1"/><rect x="424.5" y="444.5" width="22" height="22" stroke="#192D54" stroke-width="1.33333" stroke-miterlimit="8" fill="#D4F4F1"/><rect x="446.5" y="444.5" width="22" height="22" stroke="#192D54" stroke-width="1.33333" stroke-miterlimit="8" fill="#D4F4F1"/><rect x="468.5" y="444.5" width="22" height="22" stroke="#192D54" stroke-width="1.33333" stroke-miterlimit="8" fill="#D4F4F1"/><rect x="490.5" y="444.5" width="22" height="22" stroke="#192D54" stroke-width="1.33333" stroke-miterlimit="8" fill="#D4F4F1"/><rect x="401.5" y="466.5" width="22" height="23" stroke="#192D54" stroke-width="1.33333" stroke-miterlimit="8" fill="#D4F4F1"/><rect x="424.5" y="466.5" width="22" height="23" stroke="#192D54" stroke-width="1.33333" stroke-miterlimit="8" fill="#D4F4F1"/><rect x="446.5" y="466.5" width="22" height="23" stroke="#192D54" stroke-width="1.33333" stroke-miterlimit="8" fill="#D4F4F1"/><rect x="468.5" y="466.5" width="22" height="23" stroke="#192D54" stroke-width="1.33333" stroke-miterlimit="8" fill="#D4F4F1"/><rect x="490.5" y="466.5" width="22" height="23" stroke="#192D54" stroke-width="1.33333" stroke-miterlimit="8" fill="#D4F4F1"/><rect x="401.5" y="489.5" width="22" height="22" stroke="#192D54" stroke-width="1.33333" stroke-miterlimit="8" fill="#D4F4F1"/><rect x="424.5" y="489.5" width="22" height="22" stroke="#192D54" stroke-width="1.33333" stroke-miterlimit="8" fill="#D4F4F1"/><rect x="446.5" y="489.5" width="22" height="22" stroke="#192D54" stroke-width="1.33333" stroke-miterlimit="8" fill="#D4F4F1"/><rect x="468.5" y="489.5" width="22" height="22" stroke="#192D54" stroke-width="1.33333" stroke-miterlimit="8" fill="#D4F4F1"/><rect x="490.5" y="489.5" width="22" height="22" stroke="#192D54" stroke-width="1.33333" stroke-miterlimit="8" fill="#D4F4F1"/><rect x="401.5" y="511.5" width="22" height="22" stroke="#192D54" stroke-width="1.33333" stroke-miterlimit="8" fill="#D4F4F1"/><rect x="424.5" y="511.5" width="22" height="22" stroke="#192D54" stroke-width="1.33333" stroke-miterlimit="8" fill="#D4F4F1"/><rect x="446.5" y="511.5" width="22" height="22" stroke="#192D54" stroke-width="1.33333" stroke-miterlimit="8" fill="#D4F4F1"/><rect x="468.5" y="511.5" width="22" height="22" stroke="#192D54" stroke-width="1.33333" stroke-miterlimit="8" fill="#D4F4F1"/><rect x="490.5" y="511.5" width="22" height="22" stroke="#192D54" stroke-width="1.33333" stroke-miterlimit="8" fill="#D4F4F1"/><rect x="401.5" y="533.5" width="22" height="22" stroke="#192D54" stroke-width="1.33333" stroke-miterlimit="8" fill="#D4F4F1"/><rect x="424.5" y="533.5" width="22" height="22" stroke="#192D54" stroke-width="1.33333" stroke-miterlimit="8" fill="#D4F4F1"/><rect x="446.5" y="533.5" width="22" height="22" stroke="#192D54" stroke-width="1.33333" stroke-miterlimit="8" fill="#D4F4F1"/><rect x="468.5" y="533.5" width="22" height="22" stroke="#192D54" stroke-width="1.33333" stroke-miterlimit="8" fill="#D4F4F1"/><rect x="490.5" y="533.5" width="22" height="22" stroke="#192D54" stroke-width="1.33333" stroke-miterlimit="8" fill="#D4F4F1"/><rect x="408.5" y="453.5" width="22" height="22" stroke="#192D54" stroke-width="1.33333" stroke-miterlimit="8" fill="#D0CECE"/><rect x="430.5" y="453.5" width="22" height="22" stroke="#192D54" stroke-width="1.33333" stroke-miterlimit="8" fill="#D0CECE"/><rect x="452.5" y="453.5" width="23" height="22" stroke="#192D54" stroke-width="1.33333" stroke-miterlimit="8" fill="#D0CECE"/><rect x="475.5" y="453.5" width="22" height="22" stroke="#192D54" stroke-width="1.33333" stroke-miterlimit="8" fill="#D0CECE"/><rect x="497.5" y="453.5" width="22" height="22" stroke="#192D54" stroke-width="1.33333" stroke-miterlimit="8" fill="#D0CECE"/><rect x="408.5" y="475.5" width="22" height="22" stroke="#192D54" stroke-width="1.33333" stroke-miterlimit="8" fill="#D0CECE"/><rect x="430.5" y="475.5" width="22" height="22" stroke="#192D54" stroke-width="1.33333" stroke-miterlimit="8" fill="#D0CECE"/><rect x="452.5" y="475.5" width="23" height="22" stroke="#192D54" stroke-width="1.33333" stroke-miterlimit="8" fill="#D0CECE"/><rect x="475.5" y="475.5" width="22" height="22" stroke="#192D54" stroke-width="1.33333" stroke-miterlimit="8" fill="#D0CECE"/><rect x="497.5" y="475.5" width="22" height="22" stroke="#192D54" stroke-width="1.33333" stroke-miterlimit="8" fill="#D0CECE"/><rect x="408.5" y="497.5" width="22" height="22" stroke="#192D54" stroke-width="1.33333" stroke-miterlimit="8" fill="#D0CECE"/><rect x="430.5" y="497.5" width="22" height="22" stroke="#192D54" stroke-width="1.33333" stroke-miterlimit="8" fill="#D0CECE"/><rect x="452.5" y="497.5" width="23" height="22" stroke="#192D54" stroke-width="1.33333" stroke-miterlimit="8" fill="#D0CECE"/><rect x="475.5" y="497.5" width="22" height="22" stroke="#192D54" stroke-width="1.33333" stroke-miterlimit="8" fill="#D0CECE"/><rect x="497.5" y="497.5" width="22" height="22" stroke="#192D54" stroke-width="1.33333" stroke-miterlimit="8" fill="#D0CECE"/><rect x="408.5" y="519.5" width="22" height="22" stroke="#192D54" stroke-width="1.33333" stroke-miterlimit="8" fill="#D0CECE"/><rect x="430.5" y="519.5" width="22" height="22" stroke="#192D54" stroke-width="1.33333" stroke-miterlimit="8" fill="#D0CECE"/><rect x="452.5" y="519.5" width="23" height="22" stroke="#192D54" stroke-width="1.33333" stroke-miterlimit="8" fill="#D0CECE"/><rect x="475.5" y="519.5" width="22" height="22" stroke="#192D54" stroke-width="1.33333" stroke-miterlimit="8" fill="#D0CECE"/><rect x="497.5" y="519.5" width="22" height="22" stroke="#192D54" stroke-width="1.33333" stroke-miterlimit="8" fill="#D0CECE"/><rect x="408.5" y="541.5" width="22" height="23" stroke="#192D54" stroke-width="1.33333" stroke-miterlimit="8" fill="#D0CECE"/><rect x="430.5" y="541.5" width="22" height="23" stroke="#192D54" stroke-width="1.33333" stroke-miterlimit="8" fill="#D0CECE"/><rect x="452.5" y="541.5" width="23" height="23" stroke="#192D54" stroke-width="1.33333" stroke-miterlimit="8" fill="#D0CECE"/><rect x="475.5" y="541.5" width="22" height="23" stroke="#192D54" stroke-width="1.33333" stroke-miterlimit="8" fill="#D0CECE"/><rect x="497.5" y="541.5" width="22" height="23" stroke="#192D54" stroke-width="1.33333" stroke-miterlimit="8" fill="#D0CECE"/><rect x="416.5" y="459.5" width="22" height="23" stroke="#192D54" stroke-width="1.33333" stroke-miterlimit="8" fill="#FCE6D5"/><rect x="439.5" y="459.5" width="22" height="23" stroke="#192D54" stroke-width="1.33333" stroke-miterlimit="8" fill="#FCE6D5"/><rect x="461.5" y="459.5" width="22" height="23" stroke="#192D54" stroke-width="1.33333" stroke-miterlimit="8" fill="#FCE6D5"/><rect x="483.5" y="459.5" width="22" height="23" stroke="#192D54" stroke-width="1.33333" stroke-miterlimit="8" fill="#FCE6D5"/><rect x="505.5" y="459.5" width="22" height="23" stroke="#192D54" stroke-width="1.33333" stroke-miterlimit="8" fill="#FCE6D5"/><rect x="416.5" y="482.5" width="22" height="22" stroke="#192D54" stroke-width="1.33333" stroke-miterlimit="8" fill="#FCE6D5"/><rect x="439.5" y="482.5" width="22" height="22" stroke="#192D54" stroke-width="1.33333" stroke-miterlimit="8" fill="#FCE6D5"/><rect x="461.5" y="482.5" width="22" height="22" stroke="#192D54" stroke-width="1.33333" stroke-miterlimit="8" fill="#FCE6D5"/><rect x="483.5" y="482.5" width="22" height="22" stroke="#192D54" stroke-width="1.33333" stroke-miterlimit="8" fill="#FCE6D5"/><rect x="505.5" y="482.5" width="22" height="22" stroke="#192D54" stroke-width="1.33333" stroke-miterlimit="8" fill="#FCE6D5"/><rect x="416.5" y="504.5" width="22" height="22" stroke="#192D54" stroke-width="1.33333" stroke-miterlimit="8" fill="#FCE6D5"/><rect x="439.5" y="504.5" width="22" height="22" stroke="#192D54" stroke-width="1.33333" stroke-miterlimit="8" fill="#FCE6D5"/><rect x="461.5" y="504.5" width="22" height="22" stroke="#192D54" stroke-width="1.33333" stroke-miterlimit="8" fill="#FCE6D5"/><rect x="483.5" y="504.5" width="22" height="22" stroke="#192D54" stroke-width="1.33333" stroke-miterlimit="8" fill="#FCE6D5"/><rect x="505.5" y="504.5" width="22" height="22" stroke="#192D54" stroke-width="1.33333" stroke-miterlimit="8" fill="#FCE6D5"/><rect x="416.5" y="526.5" width="22" height="22" stroke="#192D54" stroke-width="1.33333" stroke-miterlimit="8" fill="#FCE6D5"/><rect x="439.5" y="526.5" width="22" height="22" stroke="#192D54" stroke-width="1.33333" stroke-miterlimit="8" fill="#FCE6D5"/><rect x="461.5" y="526.5" width="22" height="22" stroke="#192D54" stroke-width="1.33333" stroke-miterlimit="8" fill="#FCE6D5"/><rect x="483.5" y="526.5" width="22" height="22" stroke="#192D54" stroke-width="1.33333" stroke-miterlimit="8" fill="#FCE6D5"/><rect x="505.5" y="526.5" width="22" height="22" stroke="#192D54" stroke-width="1.33333" stroke-miterlimit="8" fill="#FCE6D5"/><rect x="416.5" y="548.5" width="22" height="22" stroke="#192D54" stroke-width="1.33333" stroke-miterlimit="8" fill="#FCE6D5"/><rect x="439.5" y="548.5" width="22" height="22" stroke="#192D54" stroke-width="1.33333" stroke-miterlimit="8" fill="#FCE6D5"/><rect x="461.5" y="548.5" width="22" height="22" stroke="#192D54" stroke-width="1.33333" stroke-miterlimit="8" fill="#FCE6D5"/><rect x="483.5" y="548.5" width="22" height="22" stroke="#192D54" stroke-width="1.33333" stroke-miterlimit="8" fill="#FCE6D5"/><rect x="505.5" y="548.5" width="22" height="22" stroke="#192D54" stroke-width="1.33333" stroke-miterlimit="8" fill="#FCE6D5"/><rect x="425.5" y="466.5" width="22" height="22" stroke="#192D54" stroke-width="1.33333" stroke-miterlimit="8" fill="#FFF2CA"/><rect x="447.5" y="466.5" width="22" height="22" stroke="#192D54" stroke-width="1.33333" stroke-miterlimit="8" fill="#FFF2CA"/><rect x="469.5" y="466.5" width="22" height="22" stroke="#192D54" stroke-width="1.33333" stroke-miterlimit="8" fill="#FFF2CA"/><rect x="491.5" y="466.5" width="22" height="22" stroke="#192D54" stroke-width="1.33333" stroke-miterlimit="8" fill="#FFF2CA"/><rect x="513.5" y="466.5" width="22" height="22" stroke="#192D54" stroke-width="1.33333" stroke-miterlimit="8" fill="#FFF2CA"/><rect x="425.5" y="489.5" width="22" height="22" stroke="#192D54" stroke-width="1.33333" stroke-miterlimit="8" fill="#FFF2CA"/><rect x="447.5" y="489.5" width="22" height="22" stroke="#192D54" stroke-width="1.33333" stroke-miterlimit="8" fill="#FFF2CA"/><rect x="469.5" y="489.5" width="22" height="22" stroke="#192D54" stroke-width="1.33333" stroke-miterlimit="8" fill="#FFF2CA"/><rect x="491.5" y="489.5" width="22" height="22" stroke="#192D54" stroke-width="1.33333" stroke-miterlimit="8" fill="#FFF2CA"/><rect x="513.5" y="489.5" width="22" height="22" stroke="#192D54" stroke-width="1.33333" stroke-miterlimit="8" fill="#FFF2CA"/><rect x="425.5" y="511.5" width="22" height="22" stroke="#192D54" stroke-width="1.33333" stroke-miterlimit="8" fill="#FFF2CA"/><rect x="447.5" y="511.5" width="22" height="22" stroke="#192D54" stroke-width="1.33333" stroke-miterlimit="8" fill="#FFF2CA"/><rect x="469.5" y="511.5" width="22" height="22" stroke="#192D54" stroke-width="1.33333" stroke-miterlimit="8" fill="#FFF2CA"/><rect x="491.5" y="511.5" width="22" height="22" stroke="#192D54" stroke-width="1.33333" stroke-miterlimit="8" fill="#FFF2CA"/><rect x="513.5" y="511.5" width="22" height="22" stroke="#192D54" stroke-width="1.33333" stroke-miterlimit="8" fill="#FFF2CA"/><rect x="425.5" y="533.5" width="22" height="22" stroke="#192D54" stroke-width="1.33333" stroke-miterlimit="8" fill="#FFF2CA"/><rect x="447.5" y="533.5" width="22" height="22" stroke="#192D54" stroke-width="1.33333" stroke-miterlimit="8" fill="#FFF2CA"/><rect x="469.5" y="533.5" width="22" height="22" stroke="#192D54" stroke-width="1.33333" stroke-miterlimit="8" fill="#FFF2CA"/><rect x="491.5" y="533.5" width="22" height="22" stroke="#192D54" stroke-width="1.33333" stroke-miterlimit="8" fill="#FFF2CA"/><rect x="513.5" y="533.5" width="22" height="22" stroke="#192D54" stroke-width="1.33333" stroke-miterlimit="8" fill="#FFF2CA"/><rect x="425.5" y="555.5" width="22" height="22" stroke="#192D54" stroke-width="1.33333" stroke-miterlimit="8" fill="#FFF2CA"/><rect x="447.5" y="555.5" width="22" height="22" stroke="#192D54" stroke-width="1.33333" stroke-miterlimit="8" fill="#FFF2CA"/><rect x="469.5" y="555.5" width="22" height="22" stroke="#192D54" stroke-width="1.33333" stroke-miterlimit="8" fill="#FFF2CA"/><rect x="491.5" y="555.5" width="22" height="22" stroke="#192D54" stroke-width="1.33333" stroke-miterlimit="8" fill="#FFF2CA"/><rect x="513.5" y="555.5" width="22" height="22" stroke="#192D54" stroke-width="1.33333" stroke-miterlimit="8" fill="#FFF2CA"/><rect x="432.5" y="475.5" width="22" height="22" stroke="#192D54" stroke-width="1.33333" stroke-miterlimit="8" fill="#E3F2D9"/><rect x="455.5" y="475.5" width="22" height="22" stroke="#192D54" stroke-width="1.33333" stroke-miterlimit="8" fill="#E3F2D9"/><rect x="477.5" y="475.5" width="22" height="22" stroke="#192D54" stroke-width="1.33333" stroke-miterlimit="8" fill="#E3F2D9"/><rect x="499.5" y="475.5" width="22" height="22" stroke="#192D54" stroke-width="1.33333" stroke-miterlimit="8" fill="#E3F2D9"/><rect x="521.5" y="475.5" width="22" height="22" stroke="#192D54" stroke-width="1.33333" stroke-miterlimit="8" fill="#E3F2D9"/><rect x="432.5" y="498.5" width="22" height="22" stroke="#192D54" stroke-width="1.33333" stroke-miterlimit="8" fill="#E3F2D9"/><rect x="455.5" y="498.5" width="22" height="22" stroke="#192D54" stroke-width="1.33333" stroke-miterlimit="8" fill="#E3F2D9"/><rect x="477.5" y="498.5" width="22" height="22" stroke="#192D54" stroke-width="1.33333" stroke-miterlimit="8" fill="#E3F2D9"/><rect x="499.5" y="498.5" width="22" height="22" stroke="#192D54" stroke-width="1.33333" stroke-miterlimit="8" fill="#E3F2D9"/><rect x="521.5" y="498.5" width="22" height="22" stroke="#192D54" stroke-width="1.33333" stroke-miterlimit="8" fill="#E3F2D9"/><rect x="432.5" y="520.5" width="22" height="22" stroke="#192D54" stroke-width="1.33333" stroke-miterlimit="8" fill="#E3F2D9"/><rect x="455.5" y="520.5" width="22" height="22" stroke="#192D54" stroke-width="1.33333" stroke-miterlimit="8" fill="#E3F2D9"/><rect x="477.5" y="520.5" width="22" height="22" stroke="#192D54" stroke-width="1.33333" stroke-miterlimit="8" fill="#E3F2D9"/><rect x="499.5" y="520.5" width="22" height="22" stroke="#192D54" stroke-width="1.33333" stroke-miterlimit="8" fill="#E3F2D9"/><rect x="521.5" y="520.5" width="22" height="22" stroke="#192D54" stroke-width="1.33333" stroke-miterlimit="8" fill="#E3F2D9"/><rect x="432.5" y="542.5" width="22" height="22" stroke="#192D54" stroke-width="1.33333" stroke-miterlimit="8" fill="#E3F2D9"/><rect x="455.5" y="542.5" width="22" height="22" stroke="#192D54" stroke-width="1.33333" stroke-miterlimit="8" fill="#E3F2D9"/><rect x="477.5" y="542.5" width="22" height="22" stroke="#192D54" stroke-width="1.33333" stroke-miterlimit="8" fill="#E3F2D9"/><rect x="499.5" y="542.5" width="22" height="22" stroke="#192D54" stroke-width="1.33333" stroke-miterlimit="8" fill="#E3F2D9"/><rect x="521.5" y="542.5" width="22" height="22" stroke="#192D54" stroke-width="1.33333" stroke-miterlimit="8" fill="#E3F2D9"/><rect x="432.5" y="564.5" width="22" height="22" stroke="#192D54" stroke-width="1.33333" stroke-miterlimit="8" fill="#E3F2D9"/><rect x="455.5" y="564.5" width="22" height="22" stroke="#192D54" stroke-width="1.33333" stroke-miterlimit="8" fill="#E3F2D9"/><rect x="477.5" y="564.5" width="22" height="22" stroke="#192D54" stroke-width="1.33333" stroke-miterlimit="8" fill="#E3F2D9"/><rect x="499.5" y="564.5" width="22" height="22" stroke="#192D54" stroke-width="1.33333" stroke-miterlimit="8" fill="#E3F2D9"/><rect x="521.5" y="564.5" width="22" height="22" stroke="#192D54" stroke-width="1.33333" stroke-miterlimit="8" fill="#E3F2D9"/><rect x="441.5" y="482.5" width="22" height="22" stroke="#192D54" stroke-width="1.33333" stroke-miterlimit="8" fill="#B6C7EA"/><rect x="463.5" y="482.5" width="22" height="22" stroke="#192D54" stroke-width="1.33333" stroke-miterlimit="8" fill="#B6C7EA"/><rect x="485.5" y="482.5" width="22" height="22" stroke="#192D54" stroke-width="1.33333" stroke-miterlimit="8" fill="#B6C7EA"/><rect x="507.5" y="482.5" width="22" height="22" stroke="#192D54" stroke-width="1.33333" stroke-miterlimit="8" fill="#B6C7EA"/><rect x="529.5" y="482.5" width="22" height="22" stroke="#192D54" stroke-width="1.33333" stroke-miterlimit="8" fill="#B6C7EA"/><rect x="441.5" y="505.5" width="22" height="22" stroke="#192D54" stroke-width="1.33333" stroke-miterlimit="8" fill="#B6C7EA"/><rect x="463.5" y="505.5" width="22" height="22" stroke="#192D54" stroke-width="1.33333" stroke-miterlimit="8" fill="#B6C7EA"/><rect x="485.5" y="505.5" width="22" height="22" stroke="#192D54" stroke-width="1.33333" stroke-miterlimit="8" fill="#B6C7EA"/><rect x="507.5" y="505.5" width="22" height="22" stroke="#192D54" stroke-width="1.33333" stroke-miterlimit="8" fill="#B6C7EA"/><rect x="529.5" y="505.5" width="22" height="22" stroke="#192D54" stroke-width="1.33333" stroke-miterlimit="8" fill="#B6C7EA"/><rect x="441.5" y="527.5" width="22" height="22" stroke="#192D54" stroke-width="1.33333" stroke-miterlimit="8" fill="#B6C7EA"/><rect x="463.5" y="527.5" width="22" height="22" stroke="#192D54" stroke-width="1.33333" stroke-miterlimit="8" fill="#B6C7EA"/><rect x="485.5" y="527.5" width="22" height="22" stroke="#192D54" stroke-width="1.33333" stroke-miterlimit="8" fill="#B6C7EA"/><rect x="507.5" y="527.5" width="22" height="22" stroke="#192D54" stroke-width="1.33333" stroke-miterlimit="8" fill="#B6C7EA"/><rect x="529.5" y="527.5" width="22" height="22" stroke="#192D54" stroke-width="1.33333" stroke-miterlimit="8" fill="#B6C7EA"/><rect x="441.5" y="549.5" width="22" height="22" stroke="#192D54" stroke-width="1.33333" stroke-miterlimit="8" fill="#B6C7EA"/><rect x="463.5" y="549.5" width="22" height="22" stroke="#192D54" stroke-width="1.33333" stroke-miterlimit="8" fill="#B6C7EA"/><rect x="485.5" y="549.5" width="22" height="22" stroke="#192D54" stroke-width="1.33333" stroke-miterlimit="8" fill="#B6C7EA"/><rect x="507.5" y="549.5" width="22" height="22" stroke="#192D54" stroke-width="1.33333" stroke-miterlimit="8" fill="#B6C7EA"/><rect x="529.5" y="549.5" width="22" height="22" stroke="#192D54" stroke-width="1.33333" stroke-miterlimit="8" fill="#B6C7EA"/><rect x="441.5" y="571.5" width="22" height="22" stroke="#192D54" stroke-width="1.33333" stroke-miterlimit="8" fill="#B6C7EA"/><rect x="463.5" y="571.5" width="22" height="22" stroke="#192D54" stroke-width="1.33333" stroke-miterlimit="8" fill="#B6C7EA"/><rect x="485.5" y="571.5" width="22" height="22" stroke="#192D54" stroke-width="1.33333" stroke-miterlimit="8" fill="#B6C7EA"/><rect x="507.5" y="571.5" width="22" height="22" stroke="#192D54" stroke-width="1.33333" stroke-miterlimit="8" fill="#B6C7EA"/><rect x="529.5" y="571.5" width="22" height="22" stroke="#192D54" stroke-width="1.33333" stroke-miterlimit="8" fill="#B6C7EA"/><rect x="446.5" y="490.5" width="22" height="23" stroke="#192D54" stroke-width="1.33333" stroke-miterlimit="8" fill="#FEE695"/><rect x="468.5" y="490.5" width="22" height="23" stroke="#192D54" stroke-width="1.33333" stroke-miterlimit="8" fill="#FEE695"/><rect x="490.5" y="490.5" width="22" height="23" stroke="#192D54" stroke-width="1.33333" stroke-miterlimit="8" fill="#FEE695"/><rect x="512.5" y="490.5" width="22" height="23" stroke="#192D54" stroke-width="1.33333" stroke-miterlimit="8" fill="#FEE695"/><rect x="534.5" y="490.5" width="22" height="23" stroke="#192D54" stroke-width="1.33333" stroke-miterlimit="8" fill="#FEE695"/><rect x="446.5" y="513.5" width="22" height="22" stroke="#192D54" stroke-width="1.33333" stroke-miterlimit="8" fill="#FEE695"/><rect x="468.5" y="513.5" width="22" height="22" stroke="#192D54" stroke-width="1.33333" stroke-miterlimit="8" fill="#FEE695"/><rect x="490.5" y="513.5" width="22" height="22" stroke="#192D54" stroke-width="1.33333" stroke-miterlimit="8" fill="#FEE695"/><rect x="512.5" y="513.5" width="22" height="22" stroke="#192D54" stroke-width="1.33333" stroke-miterlimit="8" fill="#FEE695"/><rect x="534.5" y="513.5" width="22" height="22" stroke="#192D54" stroke-width="1.33333" stroke-miterlimit="8" fill="#FEE695"/><rect x="446.5" y="535.5" width="22" height="22" stroke="#192D54" stroke-width="1.33333" stroke-miterlimit="8" fill="#FEE695"/><rect x="468.5" y="535.5" width="22" height="22" stroke="#192D54" stroke-width="1.33333" stroke-miterlimit="8" fill="#FEE695"/><rect x="490.5" y="535.5" width="22" height="22" stroke="#192D54" stroke-width="1.33333" stroke-miterlimit="8" fill="#FEE695"/><rect x="512.5" y="535.5" width="22" height="22" stroke="#192D54" stroke-width="1.33333" stroke-miterlimit="8" fill="#FEE695"/><rect x="534.5" y="535.5" width="22" height="22" stroke="#192D54" stroke-width="1.33333" stroke-miterlimit="8" fill="#FEE695"/><rect x="446.5" y="557.5" width="22" height="22" stroke="#192D54" stroke-width="1.33333" stroke-miterlimit="8" fill="#FEE695"/><rect x="468.5" y="557.5" width="22" height="22" stroke="#192D54" stroke-width="1.33333" stroke-miterlimit="8" fill="#FEE695"/><rect x="490.5" y="557.5" width="22" height="22" stroke="#192D54" stroke-width="1.33333" stroke-miterlimit="8" fill="#FEE695"/><rect x="512.5" y="557.5" width="22" height="22" stroke="#192D54" stroke-width="1.33333" stroke-miterlimit="8" fill="#FEE695"/><rect x="534.5" y="557.5" width="22" height="22" stroke="#192D54" stroke-width="1.33333" stroke-miterlimit="8" fill="#FEE695"/><rect x="446.5" y="579.5" width="22" height="22" stroke="#192D54" stroke-width="1.33333" stroke-miterlimit="8" fill="#FEE695"/><rect x="468.5" y="579.5" width="22" height="22" stroke="#192D54" stroke-width="1.33333" stroke-miterlimit="8" fill="#FEE695"/><rect x="490.5" y="579.5" width="22" height="22" stroke="#192D54" stroke-width="1.33333" stroke-miterlimit="8" fill="#FEE695"/><rect x="512.5" y="579.5" width="22" height="22" stroke="#192D54" stroke-width="1.33333" stroke-miterlimit="8" fill="#FEE695"/><rect x="534.5" y="579.5" width="22" height="22" stroke="#192D54" stroke-width="1.33333" stroke-miterlimit="8" fill="#FEE695"/><path d="M149 459.167C149 444.715 160.715 433 175.167 433L279.833 433C294.285 433 306 444.715 306 459.167L306 572.833C306 587.285 294.285 599 279.833 599L175.167 599C160.715 599 149 587.285 149 572.833Z" stroke="#588E31" stroke-width="4" stroke-miterlimit="8" fill="#E3F2D9" fill-rule="evenodd"/><text font-family="Microsoft YaHei,Microsoft YaHei_MSFontService,sans-serif" font-weight="700" font-size="32" transform="matrix(6.12323e-17 -1 1 6.12323e-17 219.169 557)">Conv</text><text font-family="Microsoft YaHei,Microsoft YaHei_MSFontService,sans-serif" font-weight="700" font-size="32" transform="matrix(6.12323e-17 -1 1 6.12323e-17 257.169 567)">Layers</text><path d="M924 645 793 585.822 793 444.178 924 385Z" stroke="#B58B02" stroke-width="4" stroke-miterlimit="8" fill="#FFF2CA" fill-rule="evenodd"/><text font-family="Microsoft YaHei,Microsoft YaHei_MSFontService,sans-serif" font-weight="700" font-size="32" transform="matrix(6.12323e-17 -1 1 6.12323e-17 850.126 553)">Pixel</text><text font-family="Microsoft YaHei,Microsoft YaHei_MSFontService,sans-serif" font-weight="700" font-size="32" transform="matrix(6.12323e-17 -1 1 6.12323e-17 888.126 573)">Shuffle</text><path d="M638 448.834C638 439.537 645.537 432 654.834 432L722.166 432C731.463 432 739 439.537 739 448.834L739 581.166C739 590.463 731.463 598 722.166 598L654.834 598C645.537 598 638 590.463 638 581.166Z" stroke="#2E54A1" stroke-width="4" stroke-miterlimit="8" fill="#DAE3F5" fill-rule="evenodd"/><text font-family="Microsoft YaHei,Microsoft YaHei_MSFontService,sans-serif" font-weight="700" font-size="32" transform="matrix(6.12323e-17 -1 1 6.12323e-17 699.921 554)">Mis</text><text font-family="Microsoft YaHei,Microsoft YaHei_MSFontService,sans-serif" font-weight="700" font-size="32" transform="matrix(6.12323e-17 -1 1 6.12323e-17 699.921 496)">h</text><path d="M977 397.667C977 390.671 982.671 385 989.667 385L1040.33 385C1047.33 385 1053 390.671 1053 397.667L1053 632.333C1053 639.329 1047.33 645 1040.33 645L989.667 645C982.671 645 977 639.329 977 632.333Z" stroke="#588E31" stroke-width="4" stroke-miterlimit="8" fill="#E3F2D9" fill-rule="evenodd"/><text font-family="Microsoft YaHei,Microsoft YaHei_MSFontService,sans-serif" font-weight="700" font-size="32" transform="matrix(6.12323e-17 -1 1 6.12323e-17 1026.45 612)">Conv Layers</text><path d="M90.0114 514 139.663 514.282 139.64 518.282 89.9886 518ZM137.686 510.271 149.651 516.339 137.617 522.271Z"/><path d="M306 514 361.422 514 361.422 518 306 518ZM359.422 510 371.422 516 359.422 522Z"/><path d="M578 513 627.768 513 627.768 517 578 517ZM625.768 509 637.768 515 625.768 521Z"/><path d="M739.014 513 782.34 513.296 782.312 517.296 738.986 517ZM780.367 509.283 792.326 515.365 780.285 521.282Z"/><path d="M3.93757e-06-2 43.3258-1.99991 43.3258 2.00009-3.93757e-06 2ZM41.3258-5.99992 53.3258 0.000104987 41.3258 6.00008Z" transform="matrix(1 0 0 -1 924 515)"/></g></svg>